<svg width="253" height="289" viewBox="0 0 253 289" fill="none" xmlns="http://www.w3.org/2000/svg">
<path d="M176.442 210.32C178.095 214.654 179.776 219.322 181.44 223.999C183.061 228.701 184.677 233.404 186.075 237.878C186.791 240.105 187.448 242.275 188.046 244.346C188.672 246.403 189.199 248.382 189.687 250.206C190.203 252.017 190.562 253.735 190.923 255.231C191.282 256.73 191.495 258.084 191.724 259.174C191.844 259.714 191.901 260.22 191.946 260.66C191.999 261.097 192.043 261.467 192.075 261.771C192.145 262.374 192.183 262.693 192.183 262.693C192.183 262.693 192.117 262.382 191.995 261.796C191.86 261.216 191.729 260.348 191.439 259.286C191.144 258.23 190.842 256.923 190.386 255.472C189.923 254.025 189.455 252.369 188.867 250.601C188.284 248.828 187.654 246.907 186.987 244.876C186.301 242.853 185.577 240.724 184.829 238.519C183.298 234.124 181.666 229.437 180.038 224.748C178.395 220.065 176.751 215.382 175.213 210.991C173.688 206.593 172.262 202.485 171.041 198.967C169.844 195.432 168.848 192.488 168.149 190.427C167.464 188.355 167.078 187.173 167.078 187.173C167.078 187.173 167.581 188.294 168.418 190.275C169.244 192.265 170.463 195.089 171.837 198.525C173.227 201.951 174.802 205.978 176.44 210.318L176.442 210.32ZM157.148 138.682C155.005 136.723 152.506 134.443 149.825 131.998C148.486 130.773 147.106 129.507 145.703 128.218C145.354 127.898 145 127.573 144.647 127.253C144.293 126.933 143.944 126.573 143.575 126.343C142.803 125.853 141.821 125.653 140.808 125.585C138.768 125.469 136.6 125.812 134.485 126.184C132.363 126.575 130.269 127.001 128.237 127.425C126.207 127.847 124.24 128.258 122.375 128.609C120.511 128.961 118.748 129.234 117.123 129.445C115.5 129.654 114.015 129.792 112.706 129.861C111.401 129.908 110.271 129.919 109.356 129.862C108.439 129.819 107.724 129.75 107.252 129.672C106.772 129.603 106.521 129.564 106.521 129.564C106.521 129.564 106.78 129.586 107.269 129.619C107.753 129.662 108.474 129.687 109.398 129.688C111.243 129.691 113.923 129.482 117.158 128.97C120.393 128.453 124.175 127.649 128.237 126.764C130.268 126.333 132.369 125.848 134.511 125.486C136.648 125.13 138.842 124.797 140.984 124.942C142.041 125.023 143.102 125.245 143.969 125.805C144.418 126.099 144.724 126.454 145.082 126.778C145.428 127.106 145.777 127.436 146.118 127.764C147.5 129.072 148.859 130.365 150.176 131.613C152.803 134.112 155.254 136.448 157.357 138.449C161.537 142.476 164.324 145.159 164.324 145.159C164.324 145.159 161.452 142.566 157.144 138.678L157.148 138.682ZM4.30983 115.083C4.30983 115.083 4.36754 114.982 4.47762 114.791C4.5902 114.598 4.77297 114.32 5.03417 113.971C5.56477 113.286 6.45457 112.319 7.78201 111.372C10.4023 109.45 14.6883 107.579 19.7576 106.935C22.2857 106.61 25.014 106.516 27.7727 106.849C30.5235 107.164 33.3499 107.665 36.2455 108.25C42.0347 109.417 48.1019 110.909 54.1345 112.468C57.1347 113.28 60.137 114.093 63.0923 114.893C66.0427 115.698 68.9234 116.548 71.7133 117.358C77.295 118.984 82.4678 120.572 86.8837 121.973C91.305 123.363 94.9485 124.6 97.5144 125.44C100.067 126.312 101.519 126.81 101.519 126.81C101.519 126.81 100.016 126.414 97.3818 125.72C94.7533 125.016 90.9991 124.008 86.4958 122.8C82.0004 121.58 76.7516 120.155 71.1303 118.631C68.3185 117.87 65.4123 117.086 62.4613 116.291C59.5024 115.508 56.4988 114.712 53.4951 113.917C50.4939 113.12 47.4796 112.344 44.501 111.613C41.5223 110.881 38.596 110.153 35.733 109.529C32.8693 108.914 30.1006 108.313 27.4207 107.934C24.7572 107.551 22.1289 107.529 19.6714 107.766C17.2157 108.009 14.9271 108.498 12.9266 109.176C10.9264 109.85 9.22056 110.718 7.90075 111.592C6.57846 112.47 5.64678 113.353 5.08836 114.012C4.81005 114.345 4.61658 114.612 4.49081 114.799C4.36968 114.984 4.30769 115.081 4.30769 115.081L4.30983 115.083ZM170.289 116.931C170.593 116.661 170.891 116.367 171.21 116.127C171.84 115.619 172.523 115.191 173.227 114.832C174.634 114.099 176.109 113.727 177.515 113.485C178.922 113.259 180.283 113.135 181.603 113.007C182.914 112.9 184.175 112.772 185.375 112.523C186.573 112.276 187.708 111.93 188.725 111.475C189.738 111.006 190.663 110.525 191.43 109.981C192.205 109.459 192.856 108.946 193.364 108.495C193.89 108.059 194.268 107.675 194.536 107.422C194.802 107.168 194.942 107.034 194.942 107.034C194.942 107.034 194.808 107.178 194.557 107.447C194.302 107.712 193.95 108.125 193.435 108.586C192.938 109.063 192.304 109.611 191.53 110.174C190.767 110.752 189.844 111.309 188.805 111.814C187.764 112.312 186.597 112.706 185.37 112.996C184.139 113.286 182.843 113.461 181.524 113.605C180.211 113.744 178.849 113.883 177.478 114.117C176.11 114.37 174.715 114.742 173.413 115.434C172.764 115.774 172.133 116.176 171.554 116.652C171.252 116.873 170.993 117.129 170.712 117.37C170.442 117.646 170.148 117.924 169.906 118.186C168.845 119.312 167.803 120.421 166.793 121.49C165.782 122.558 164.815 123.603 163.875 124.573C162.942 125.544 162.055 126.464 161.238 127.315C159.612 129.019 158.227 130.41 157.268 131.392C156.299 132.371 155.746 132.925 155.746 132.925C155.746 132.925 156.265 132.334 157.171 131.302C158.084 130.277 159.377 128.795 160.964 127.059C161.753 126.183 162.61 125.239 163.516 124.237C164.415 123.234 165.39 122.197 166.387 121.111C167.383 120.03 168.417 118.913 169.466 117.775C169.744 117.468 170.01 117.213 170.285 116.931L170.289 116.931ZM202.039 90.2335C201.858 89.8955 201.682 89.453 201.39 89.0066C201.127 88.5422 200.793 88.0512 200.423 87.517C200.033 86.9994 199.6 86.4465 199.095 85.911C198.591 85.3708 198.023 84.8466 197.415 84.3237C197.114 84.0583 196.776 83.8281 196.45 83.5733C196.11 83.3412 195.761 83.1104 195.4 82.8882C194.662 82.4738 193.898 82.0701 193.067 81.8028C192.671 81.6319 192.234 81.5428 191.815 81.4212C191.378 81.3527 190.986 81.2411 190.512 81.2312C189.627 81.1582 188.683 81.223 187.801 81.2718C186.022 81.39 184.344 81.6573 182.906 82.0928C182.188 82.3046 181.525 82.5223 180.93 82.6842C180.335 82.8507 179.808 82.9473 179.384 82.9993C178.957 83.0493 178.63 83.0527 178.408 83.0548C178.184 83.0548 178.067 83.0509 178.067 83.0509C178.067 83.0509 178.552 83.0248 179.394 82.8596C179.817 82.7756 180.325 82.6378 180.905 82.432C181.485 82.2262 182.143 81.9539 182.87 81.7109C184.325 81.2108 186.067 80.8051 187.889 80.6576C188.805 80.5901 189.728 80.5101 190.679 80.5664C191.137 80.5649 191.623 80.6746 192.089 80.7457C192.533 80.866 192.997 80.9558 193.419 81.1207C194.285 81.4152 195.067 81.8509 195.819 82.2932C196.186 82.526 196.543 82.7741 196.888 83.0216C197.216 83.2923 197.557 83.5358 197.861 83.8145C199.104 84.8982 200.045 86.129 200.766 87.2394C200.934 87.5261 201.095 87.8003 201.25 88.0591C201.392 88.3265 201.51 88.5953 201.631 88.8382C201.877 89.3212 202.017 89.7896 202.168 90.1503C202.301 90.5229 202.37 90.8356 202.432 91.0385C202.491 91.2421 202.522 91.3506 202.522 91.3506C202.522 91.3506 202.348 90.9401 202.039 90.2242L202.039 90.2335ZM194.143 262.668C192.773 249.565 172.735 196.63 168.735 186.151C168.58 185.747 168.347 185.4 168.043 185.117C167.307 184.43 166.232 184.214 165.133 184.483C163.637 178.111 164.867 169.313 165.973 161.455C167.178 152.898 168.047 146.715 165.519 144.358L156.379 135.834L172.394 118.66C174.489 116.413 176.666 116.113 180.331 115.778C185.132 115.337 191.109 114.788 198.229 107.153C202.991 102.046 204.738 96.1996 203.151 90.6883C201.385 84.5623 195.336 79.5285 189.941 79.6935C185.387 79.8317 183.076 80.6581 181.222 81.324C179.916 81.7934 178.883 82.1637 177.191 82.2486C176.179 82.3001 175.219 83.1873 175.044 84.2287C174.876 85.2715 175.558 86.0718 176.57 86.025C178.834 85.9107 180.313 85.3793 181.741 84.8692C183.491 84.2413 185.297 83.5961 189.249 83.4733C192.866 83.3619 198.04 87.1715 199.556 92.4326C200.401 95.3709 200.437 99.919 195.8 104.892C189.933 111.183 185.289 111.611 180.802 112.021C177.171 112.353 173.415 112.698 169.965 116.399L153.949 133.574L144.746 124.992C142.217 122.633 136.109 123.935 127.657 125.73C119.895 127.382 111.207 129.224 104.743 128.175C104.937 127.061 104.647 126.004 103.909 125.315C103.605 125.032 103.243 124.824 102.829 124.697C92.096 121.438 37.8941 105.143 24.7253 104.689C12.7081 104.279 6.83794 109.531 4.86827 111.811C2.90605 114.082 1.97694 116.61 2.38629 118.57C2.501 119.125 2.73813 119.57 3.08912 119.897C4.38177 121.103 6.57872 120.429 9.9038 119.403C14.5625 117.969 21.6008 115.802 30.8704 117.064C45.7329 119.088 89.842 131.535 98.5331 134.011C99.4293 134.264 100.444 134.115 101.393 133.591C102.129 133.183 102.75 132.582 103.195 131.873C110.327 133.098 119.473 131.159 127.635 129.423C133.664 128.141 140.499 126.685 141.922 128.012L162.696 147.385C164.12 148.712 163.149 155.631 162.286 161.735C161.121 170.001 159.829 179.259 161.547 186.286C160.868 186.783 160.316 187.443 159.96 188.206C159.502 189.187 159.422 190.213 159.742 191.088C162.817 199.586 178.311 242.719 181.366 257.404C183.273 266.563 181.602 273.735 180.496 278.483C179.707 281.873 179.186 284.11 180.478 285.315C180.829 285.643 181.292 285.85 181.851 285.924C183.835 286.196 186.292 285.097 188.423 282.978C190.557 280.857 195.39 274.632 194.142 262.673L194.143 262.668Z" fill="#D3BC88"/>
</svg>