<svg width="160" height="135" viewBox="0 0 160 135" fill="none" xmlns="http://www.w3.org/2000/svg">
<path d="M76.099 127.972C57.5221 131.495 43.195 132.676 32.3386 132.676C10.2377 132.676 2.50879 127.781 2.50879 127.781V114.984L4.29757 112.079C4.41288 112.124 4.52539 112.168 4.65477 112.215C5.01758 112.35 5.43102 112.525 5.90634 112.674C6.37604 112.833 6.89918 113.008 7.46731 113.195C8.04107 113.362 8.66545 113.542 9.32921 113.733C9.99016 113.939 10.7102 114.087 11.4583 114.275C12.2121 114.455 12.9996 114.661 13.8377 114.81C14.6702 114.974 15.5393 115.144 16.4365 115.318C17.3421 115.456 18.2787 115.597 19.2378 115.743C19.7187 115.816 20.2053 115.887 20.7003 115.96C21.1953 116.012 21.6988 116.061 22.205 116.116C23.2204 116.221 24.2554 116.328 25.3101 116.437C26.3676 116.5 27.4448 116.562 28.5333 116.627C29.6217 116.685 30.7214 116.773 31.8352 116.766C34.0599 116.771 36.3156 116.873 38.5712 116.75C40.8269 116.669 43.0825 116.633 45.2904 116.416C47.4982 116.223 49.6808 116.121 51.7705 115.816C53.863 115.548 55.8881 115.323 57.8006 115.047C59.7019 114.726 61.5019 114.421 63.1613 114.139C63.991 113.999 64.7869 113.863 65.5407 113.733C66.2917 113.574 67.0004 113.42 67.6698 113.279C69.0058 112.995 70.1702 112.744 71.1292 112.541C73.0446 112.131 74.1387 111.897 74.1387 111.897C74.1387 111.897 73.039 112.105 71.1096 112.468C70.1448 112.65 68.9748 112.869 67.6361 113.122C66.9639 113.248 66.2495 113.383 65.4985 113.527C64.7391 113.636 63.9432 113.754 63.1107 113.873C61.4456 114.113 59.6428 114.374 57.7359 114.648C55.8234 114.875 53.7955 115.05 51.7058 115.266C49.6189 115.519 47.4448 115.566 45.2426 115.707C43.0432 115.871 40.7988 115.853 38.56 115.876C36.3212 115.947 34.0824 115.79 31.883 115.73C30.7833 115.715 29.6948 115.6 28.6204 115.516C27.5489 115.425 26.4857 115.336 25.4423 115.25C24.4073 115.117 23.3863 114.987 22.3907 114.859C21.8928 114.794 21.3978 114.731 20.9113 114.669C20.4275 114.583 19.9522 114.499 19.4797 114.419C18.5403 114.252 17.6234 114.09 16.7403 113.936C15.8656 113.743 15.019 113.555 14.209 113.375C13.3933 113.211 12.6311 112.989 11.9027 112.796C11.1771 112.596 10.4767 112.431 9.8439 112.217C9.20546 112.017 8.6092 111.826 8.05513 111.654C7.51231 111.456 7.0173 111.279 6.56729 111.114C6.11447 110.958 5.73197 110.786 5.38883 110.648C5.17227 110.561 4.98946 110.483 4.8207 110.41C5.35509 107.403 7.63043 98.367 16.6503 87.8389C16.4056 88.1858 16.1609 88.5378 15.9106 88.8925C15.2637 89.7844 14.6843 90.7415 14.074 91.6725C13.4721 92.6087 12.9321 93.5789 12.3724 94.5125C11.8352 95.4592 11.3514 96.411 10.862 97.3186C10.3867 98.234 9.98172 99.1415 9.57109 99.9865C9.1492 100.826 8.83701 101.661 8.51357 102.409C8.207 103.168 7.88638 103.844 7.67825 104.472C7.45325 105.093 7.25918 105.635 7.09605 106.081C6.77542 106.97 6.5926 107.479 6.5926 107.479C6.5926 107.479 6.85698 107.002 7.32105 106.17C7.55449 105.753 7.83293 105.247 8.15356 104.67C8.46013 104.086 8.88764 103.463 9.30952 102.766C9.74828 102.075 10.1842 101.314 10.7327 100.552C11.2699 99.7857 11.8071 98.9642 12.4146 98.1427C13.0361 97.3316 13.6549 96.4815 14.3215 95.6469C15.0106 94.8255 15.6771 93.9701 16.4028 93.159C17.1368 92.3532 17.8315 91.5265 18.5909 90.7676C18.9594 90.3816 19.3278 90.0009 19.6906 89.6253C20.0647 89.2576 20.4388 88.8977 20.8044 88.5431C21.5244 87.8259 22.2669 87.1817 22.9532 86.5532C23.6563 85.9404 24.3229 85.3666 24.9501 84.8581C25.5801 84.347 26.1595 83.888 26.6854 83.502C27.1439 83.1499 27.5489 82.8683 27.8976 82.6179C32.1502 84.4565 38.7737 86.6549 46.8317 87.1087C79.2744 88.9368 109.537 79.937 128.609 72.4211C126.714 73.2321 124.725 74.0614 122.633 74.8803C119.502 76.1165 116.172 77.3682 112.687 78.5574C109.208 79.7701 105.569 80.9124 101.842 81.9946C98.1184 83.0821 94.2905 84.0523 90.4402 84.9572C86.5814 85.8204 82.7029 86.6289 78.8497 87.2469C77.885 87.4034 76.9287 87.5755 75.9724 87.7137C75.0134 87.8467 74.0599 87.9797 73.1121 88.1101C71.2164 88.3996 69.332 88.5587 67.4814 88.7804C65.6279 88.9734 63.7997 89.0933 62.0082 89.2498C60.2137 89.3411 58.4587 89.4323 56.7515 89.521C55.0387 89.5523 53.3736 89.5836 51.7621 89.6123C50.1505 89.5914 48.5923 89.5679 47.0961 89.5497C41.1363 89.3671 36.2171 88.3709 32.8505 87.5416C31.163 87.1191 29.8552 86.7149 28.9748 86.4202C28.5333 86.2768 28.1986 86.1516 27.9736 86.0708C27.7486 85.9873 27.6304 85.9456 27.6304 85.9456C27.6304 85.9456 27.7457 85.9925 27.9651 86.0864C28.1845 86.1803 28.5136 86.3185 28.9467 86.4854C29.813 86.8244 31.0983 87.2913 32.7661 87.7946C34.4368 88.2979 36.4871 88.8534 38.8834 89.3411C41.2713 89.834 44.0191 90.2773 47.0342 90.5068C48.5389 90.6033 50.1055 90.705 51.7283 90.8067C53.354 90.8589 55.0359 90.911 56.7656 90.9658C58.4953 90.9658 60.2728 90.9606 62.0925 90.9606C63.9066 90.8954 65.7685 90.8667 67.6557 90.765C69.5402 90.6372 71.4639 90.572 73.399 90.3764C74.3665 90.2903 75.3424 90.2069 76.3212 90.1182C77.3 90.0269 78.2815 89.9018 79.2659 89.7922C83.2147 89.3619 87.1973 88.7386 91.1714 88.0606C95.1371 87.3408 99.0915 86.548 102.948 85.63C106.806 84.7199 110.584 83.7419 114.201 82.6857C117.829 81.6504 121.299 80.5473 124.573 79.4441C127.85 78.3514 130.91 77.2196 133.725 76.153C139.35 74.0015 143.952 71.996 147.152 70.5199C147.383 70.413 147.605 70.3113 147.822 70.2096C146.055 71.2475 143.881 72.4654 141.662 73.6311C139.035 75.0159 136.349 76.3121 134.307 77.2352C133.289 77.7047 132.431 78.075 131.83 78.3332C131.228 78.5913 130.882 78.74 130.882 78.74C130.882 78.74 131.242 78.6253 131.869 78.4244C132.496 78.2262 133.396 77.9394 134.462 77.5691C136.602 76.8415 139.432 75.8061 142.225 74.6717C145.018 73.5399 147.774 72.322 149.816 71.3518C150.873 70.8563 151.74 70.4286 152.336 70.1313C153.815 73.0548 154.923 76.4581 155.289 80.3465C155.075 80.5108 154.8 80.7272 154.462 80.9906C153.571 81.666 152.226 82.6518 150.46 83.8488C146.93 86.2481 141.693 89.5054 135.095 92.9556C128.499 96.4084 120.548 100.059 111.74 103.379C107.338 105.041 102.728 106.624 97.989 108.1C93.2527 109.583 88.3814 110.932 83.4679 112.142C81.0209 112.77 78.5347 113.31 76.0906 113.871C73.6099 114.392 71.1349 114.935 68.6879 115.391C63.7913 116.346 58.9312 117.172 54.2118 117.811C44.7701 119.115 35.8599 119.741 28.2183 119.616C20.5794 119.512 14.2343 118.654 9.93109 117.556C7.77668 117.019 6.12854 116.447 5.04008 115.991C3.946 115.54 3.41162 115.209 3.41162 115.209C3.41162 115.209 3.93194 115.556 5.01477 116.041C6.09197 116.531 7.72324 117.154 9.86922 117.759C14.1499 118.99 20.5034 120.044 28.1929 120.38C35.8796 120.732 44.8769 120.37 54.4312 119.342C59.2125 118.841 64.1232 118.156 69.1042 117.337C71.6046 116.946 74.0824 116.481 76.5828 116.033C79.1 115.535 81.606 115.068 84.1063 114.505C89.1098 113.428 94.0824 112.207 98.9284 110.848C103.777 109.497 108.508 108.027 113.036 106.47C122.098 103.364 130.33 99.8822 137.202 96.5467C144.075 93.2138 149.585 90.0217 153.348 87.6303C154.943 86.6184 156.223 85.7552 157.176 85.085C157.362 85.6196 157.483 86.2898 157.483 87.1426C157.483 88.9551 157.483 91.6725 157.483 93.8684C157.429 93.9127 157.342 93.9779 157.216 94.0718C156.982 94.2413 156.636 94.489 156.183 94.815C155.264 95.4618 153.88 96.398 152.069 97.5324C148.443 99.8039 143.085 102.858 136.369 106.065C129.658 109.281 121.592 112.643 112.724 115.72C103.845 118.776 94.1808 121.59 84.3538 123.849C81.9069 124.438 79.4262 124.944 76.9849 125.476C74.5127 125.969 72.0489 126.475 69.6105 126.905C64.7251 127.794 59.8847 128.566 55.1793 129.158C45.7713 130.353 36.9034 130.893 29.3039 130.791C25.5041 130.744 22.0222 130.546 18.9537 130.241C15.8824 129.93 13.2246 129.51 11.0561 129.075C8.88764 128.642 7.21418 128.173 6.09197 127.813C4.96695 127.455 4.39601 127.195 4.39601 127.195C4.39601 127.195 4.96133 127.468 6.07791 127.852C7.19449 128.235 8.8567 128.744 11.0195 129.224C13.1824 129.709 15.8374 130.188 18.9115 130.564C21.9857 130.939 25.4732 131.213 29.2898 131.344C36.9203 131.612 45.8445 131.26 55.3284 130.267C60.0731 129.774 64.9501 129.104 69.8945 128.316C72.3752 127.933 74.8446 127.481 77.3281 127.041C79.8228 126.556 82.3147 126.102 84.7954 125.559C94.7405 123.499 104.554 120.873 113.599 117.978C121.412 115.456 128.632 112.705 134.904 109.988C121.471 116.048 101.955 123.064 76.1018 127.969L76.099 127.972ZM57.3871 67.3435C57.4153 67.4348 57.4237 67.5756 57.4968 67.7451C57.6009 68.0946 57.8709 68.5718 58.3265 69.0856C58.785 69.602 59.4684 70.1235 60.3403 70.5903C61.2094 71.0572 62.2557 71.4796 63.4285 71.85C65.7882 72.5749 68.6598 73.0835 71.7649 73.3338C73.3174 73.4695 74.9318 73.5164 76.5687 73.5373C78.2169 73.5503 79.8566 73.4981 81.5385 73.3834C83.1894 73.2843 84.8573 73.12 86.4745 72.8957C88.0945 72.6662 89.6836 72.408 91.1995 72.0716C92.7155 71.7378 94.1696 71.3675 95.5196 70.9372C96.8668 70.5017 98.1156 70.0296 99.2265 69.5107C100.335 68.9917 101.302 68.431 102.087 67.8494C102.869 67.2705 103.465 66.6576 103.828 66.0813C104.188 65.5076 104.368 64.9912 104.404 64.6313C104.447 64.454 104.427 64.3105 104.438 64.2167C104.444 64.1202 104.444 64.0706 104.444 64.0706C104.444 64.0706 104.449 64.1202 104.455 64.2167C104.455 64.3105 104.492 64.4488 104.472 64.6339C104.472 65.0042 104.374 65.5571 104.042 66.1882C103.392 67.4583 101.794 68.9135 99.5725 70.0975C97.3562 71.2997 94.5549 72.3142 91.4696 73.0652C89.9255 73.4382 88.3139 73.7668 86.6629 74.0041C85.0063 74.2466 83.3244 74.4265 81.62 74.5413C79.9466 74.643 78.2225 74.6847 76.5574 74.656C74.884 74.6378 73.2386 74.5152 71.6552 74.3509C68.4883 74.0119 65.5604 73.3651 63.181 72.4732C60.8016 71.5918 58.9931 70.3791 58.1353 69.2212C57.6993 68.6501 57.4996 68.1207 57.4321 67.7582C57.3759 67.5808 57.3871 67.4348 57.3703 67.3435C57.359 67.2496 57.3562 67.2001 57.3562 67.2001C57.3562 67.2001 57.3675 67.2496 57.3871 67.3409V67.3435ZM51.4696 63.2413L51.433 63.1109C53.143 62.3312 54.9149 61.5644 56.7515 60.8108L56.7571 60.8603C54.9402 61.6453 53.174 62.4407 51.4696 63.2413ZM46.0582 43.6482L97.1031 31.0365V47.7218C96.1721 47.7791 95.2496 47.8522 94.3355 47.9382C91.6411 46.6447 87.3211 45.8597 82.3316 45.8597C81.2656 45.8597 80.1688 45.8962 79.0494 45.9693C71.8324 46.4491 65.777 48.3946 63.2569 50.7704C58.844 52.5907 56.2002 54.93 56.4253 57.3136L56.5237 58.3672C54.569 59.1574 52.6621 59.9736 50.8002 60.8108L46.0582 43.6456V43.6482ZM41.4119 66.6133C41.1616 65.6849 40.9506 64.7617 40.7284 63.8724C40.2925 62.0912 39.9128 60.4248 39.6119 58.9931C38.9931 56.1296 38.6894 54.1919 38.6894 54.1919C38.6894 54.1919 39.4037 56.0331 40.3122 58.8288C40.7706 60.2266 41.2825 61.8617 41.8028 63.6221C42.056 64.5009 42.34 65.4085 42.5903 66.3369C42.8491 67.2653 43.1107 68.2067 43.3722 69.1482C43.6197 70.0922 43.8672 71.0389 44.1119 71.9699C44.3594 72.8983 44.5704 73.8215 44.7954 74.7082C45.2285 76.4868 45.6082 78.1532 45.912 79.5876C46.5307 82.451 46.8373 84.3861 46.8373 84.3861C46.8373 84.3861 46.1229 82.5449 45.2173 79.7466C44.7588 78.3514 44.2469 76.7137 43.7266 74.9559C43.4735 74.0745 43.1922 73.1695 42.9391 72.2411C42.6832 71.3127 42.4216 70.3713 42.16 69.4298C41.9125 68.4832 41.665 67.5391 41.4203 66.6107L41.4119 66.6133ZM125.954 50.5983C125.909 52.1786 125.842 53.6521 125.76 54.9169C125.611 57.444 125.4 59.1287 125.4 59.1287C125.4 59.1287 125.189 57.444 125.04 54.9169C124.959 53.6547 124.891 52.1813 124.846 50.5983C124.829 49.8081 124.793 48.9944 124.793 48.1651C124.787 47.3358 124.779 46.4934 124.77 45.6511C124.779 44.8088 124.784 43.9664 124.79 43.1371C124.79 42.3078 124.829 41.4941 124.843 40.7013C124.888 39.1209 124.956 37.6501 125.037 36.3853C125.189 33.8582 125.397 32.1735 125.397 32.1735C125.397 32.1735 125.608 33.8582 125.757 36.3853C125.839 37.6475 125.906 39.1209 125.951 40.7013C125.968 41.4941 126.005 42.3078 126.005 43.1371C126.013 43.9664 126.019 44.8088 126.024 45.6511C126.019 46.4934 126.01 47.3358 126.005 48.1651C126.002 48.9944 125.968 49.8107 125.951 50.5983H125.954ZM63.9122 51.8292C65.7095 49.8759 71.1152 47.667 79.1394 47.135C80.2081 47.0646 81.2825 47.0281 82.3316 47.0281C90.5386 47.0281 95.8206 49.1587 96.0062 51.1329C96.0484 51.5762 95.829 52.0613 95.3593 52.5724C93.5621 54.5231 88.1564 56.7346 80.1322 57.2666C79.0634 57.3397 77.989 57.3736 76.94 57.3736C68.7301 57.3736 63.451 55.2429 63.2654 53.2687C63.2232 52.8254 63.4425 52.3403 63.9122 51.8292ZM101.96 56.4556C101.344 57.663 99.8284 59.053 97.719 60.1796C95.6124 61.3271 92.949 62.2946 90.0183 63.0092C88.5501 63.3613 87.0201 63.6794 85.4479 63.9037C83.8757 64.1358 82.2753 64.3079 80.6553 64.4175C79.0662 64.514 77.4237 64.5531 75.8431 64.527C74.254 64.5087 72.6902 64.3914 71.1827 64.2323C68.1732 63.9063 65.3916 63.2909 63.1304 62.4381C60.8691 61.5983 59.1534 60.4378 58.3378 59.3347C57.9243 58.7923 57.7331 58.2863 57.6712 57.9421C57.6206 57.7726 57.6318 57.6344 57.615 57.5457C57.6065 57.457 57.6009 57.4101 57.6009 57.4101C57.6009 57.4101 57.6121 57.4544 57.6318 57.5431C57.66 57.6291 57.6656 57.7647 57.7387 57.9238C57.8372 58.255 58.0987 58.7088 58.5319 59.1965C58.9678 59.6842 59.6175 60.177 60.4444 60.6178C61.2713 61.0585 62.2641 61.4575 63.3807 61.807C65.6195 62.4902 68.3476 62.9701 71.298 63.21C72.7718 63.3352 74.3046 63.3821 75.8599 63.4004C77.4237 63.4108 78.9819 63.3613 80.5794 63.2543C82.146 63.1579 83.7294 63.004 85.2651 62.7901C86.8035 62.5737 88.3111 62.3285 89.7539 62.013C91.1939 61.6948 92.5749 61.348 93.8574 60.9412C95.1371 60.5265 96.324 60.0805 97.3787 59.5929C98.4306 59.1 99.3503 58.5732 100.096 58.0203C100.841 57.47 101.406 56.8911 101.749 56.3461C102.093 55.801 102.264 55.3133 102.301 54.9717C102.343 54.8022 102.323 54.6666 102.334 54.5779C102.337 54.4866 102.34 54.4423 102.34 54.4423C102.34 54.4423 102.343 54.4866 102.351 54.5779C102.351 54.6692 102.388 54.7996 102.368 54.9743C102.371 55.3264 102.278 55.8532 101.963 56.453L101.96 56.4556ZM23.6451 28.945L128.038 2.248C128.668 2.08892 129.298 2.01329 129.925 2.01329C131.664 2.01329 133.346 2.60528 134.769 3.638C136.265 5.01497 137.019 6.97089 136.628 8.93463L130.578 10.5646C130.53 10.3742 130.474 10.1864 130.412 10.0013C130.204 9.36493 129.948 8.76511 129.647 8.21485C129.051 7.11171 128.322 6.20417 127.622 5.51568C126.922 4.82459 126.261 4.34735 125.785 4.04223C125.552 3.88836 125.355 3.77883 125.226 3.70581C125.096 3.63018 125.026 3.59367 125.026 3.59367C125.026 3.59367 125.079 3.65104 125.181 3.75797C125.282 3.86489 125.431 4.01615 125.603 4.22739C125.951 4.63943 126.41 5.25229 126.82 6.03726C127.234 6.81702 127.588 7.77673 127.765 8.80423C127.861 9.31538 127.9 9.84739 127.895 10.3768C127.895 10.6376 127.875 10.914 127.844 11.1565L127.816 11.3104L40.3206 34.8727L100.29 22.4226C85.417 26.1936 68.9608 30.361 61.17 32.1761C53.5565 33.9495 45.4057 35.7098 39.3109 37.3345C39.3109 37.2537 39.3166 37.1781 39.3166 37.0972C39.3081 36.7347 39.2434 36.3461 39.1787 35.9758C39.0887 35.6185 38.9931 35.2717 38.8609 34.9457C38.605 34.2937 38.2984 33.6939 37.9328 33.1645C37.2212 32.0927 36.3521 31.2529 35.5224 30.661C34.6787 30.0716 33.863 29.7586 33.2865 29.6387C33.1402 29.6126 33.0108 29.5891 32.9011 29.5656C32.7858 29.5604 32.6902 29.5552 32.6115 29.5474C32.4568 29.5396 32.3752 29.537 32.3752 29.537C32.3752 29.537 32.4539 29.563 32.5974 29.6126C32.6677 29.6387 32.7549 29.6673 32.859 29.7039C32.9546 29.7534 33.0671 29.8082 33.1908 29.8708C33.6746 30.1289 34.2877 30.6036 34.8305 31.2999C35.3649 32.0014 35.8487 32.909 36.1215 33.9104C36.3943 34.904 36.4899 36.0071 36.189 36.8756C36.0428 37.3945 35.7981 37.9161 35.5168 38.4116C34.043 38.8706 32.7971 39.3087 31.8436 39.7338C31.7874 39.4965 31.7227 39.267 31.6467 39.0375C31.4386 38.4038 31.1827 37.8014 30.8817 37.2537C30.2883 36.1506 29.5598 35.2404 28.8567 34.5545C28.1592 33.8634 27.4954 33.3862 27.0201 33.0811C26.7839 32.9246 26.5898 32.8177 26.4576 32.7447C26.3282 32.669 26.2579 32.6299 26.2579 32.6299C26.2579 32.6299 26.3113 32.6873 26.4126 32.7942C26.5139 32.9011 26.6629 33.055 26.8345 33.2636C27.1832 33.6731 27.6417 34.2885 28.0523 35.0735C28.4686 35.8533 28.8201 36.8104 29.0001 37.8379C29.093 38.349 29.1323 38.881 29.1267 39.413C29.1267 39.6712 29.107 39.9503 29.0761 40.1928L29.0114 40.5292L28.913 40.8761C28.6261 41.8071 28.0804 42.7407 27.487 43.5126C26.8823 44.2872 26.2157 44.9079 25.6335 45.3199C25.0457 45.7267 24.5619 45.9562 24.261 46.0214C24.2441 46.0266 24.2329 46.0266 24.2188 46.0318C21.305 45.2782 18.8187 42.8189 17.9834 39.4548C16.8134 34.7293 19.3503 30.022 23.6535 28.9424L23.6451 28.945ZM145.493 57.8586V31.0078C145.493 30.6062 145.344 30.2202 145.071 29.9073L136.732 20.352C140.028 17.7884 141.673 13.2481 140.554 8.72339C139.283 3.58845 134.912 0 129.925 0C129.099 0 128.275 0.101707 127.47 0.305123L23.0685 27.0047C17.6712 28.3608 14.4368 34.1503 15.8627 39.9059C16.7262 43.3875 19.0747 46.1231 22.0672 47.4349L29.3658 73.0444C23.3694 77.3891 18.2225 82.1224 14.0065 87.1948C4.45789 98.6747 2.56785 108.337 2.23035 110.736L0.329071 113.824C0.112506 114.176 0 114.572 0 114.979V127.776C0 128.545 0.407823 129.263 1.09408 129.698C1.43721 129.915 9.72577 135 32.3414 135C45.0851 135 59.9775 133.401 76.6053 130.246C105.319 124.798 126.154 116.716 138.574 110.895C152.128 104.545 158.802 99.5144 159.08 99.3032C159.662 98.8599 160 98.2001 160 97.5038V87.1452C160 84.3313 158.942 82.7561 157.922 81.8877C157.463 69.8966 150.519 62.0182 145.496 57.8534L145.493 57.8586Z" fill="#D3BC88"/>
<path d="M51.796 24.0995C55.7195 23.1555 60.2927 22.0341 65.1837 20.8057C67.6278 20.1877 70.1535 19.5487 72.7185 18.8994C75.2808 18.2422 77.8852 17.572 80.4896 16.9017C83.0884 16.2211 85.69 15.5378 88.2494 14.865C90.806 14.1843 93.3204 13.5141 95.7561 12.8647C100.622 11.5582 105.158 10.3142 109.037 9.22932C112.921 8.15227 116.141 7.2056 118.403 6.56406C120.658 5.90427 121.949 5.52612 121.949 5.52612C121.949 5.52612 120.636 5.82603 118.338 6.34761C116.046 6.89266 112.764 7.6333 108.843 8.58518C104.917 9.52662 100.346 10.6506 95.4551 11.8789C93.011 12.497 90.4854 13.1386 87.9203 13.7853C85.3581 14.4451 82.7537 15.1153 80.1493 15.7856C77.5505 16.4688 74.9489 17.1495 72.3895 17.8223C69.8329 18.5056 67.3185 19.1758 64.8828 19.8252C60.0171 21.1343 55.4805 22.3757 51.602 23.4632C47.7206 24.5402 44.4975 25.4869 42.2362 26.1232C39.9805 26.7856 38.6924 27.1638 38.6924 27.1638C38.6924 27.1638 40.0058 26.8639 42.3009 26.3423C44.5931 25.7999 47.8725 25.054 51.796 24.1047V24.0995Z" fill="#D3BC88"/>
<path d="M78.1944 93.7014C80.391 93.4798 82.6242 93.292 84.8461 92.9973C85.9542 92.8486 87.0652 92.7 88.1705 92.554C89.273 92.3766 90.3699 92.2045 91.4584 92.0324C92.5468 91.8577 93.6269 91.6855 94.6872 91.4847C95.7447 91.2683 96.791 91.0544 97.8175 90.8432C98.8441 90.6293 99.8566 90.4416 100.838 90.2121C101.817 89.9669 102.773 89.7244 103.704 89.4923C104.635 89.255 105.538 89.0281 106.413 88.8064C107.287 88.5848 108.114 88.3031 108.916 88.0684C110.516 87.5885 111.976 87.1269 113.264 86.7149C114.541 86.2585 115.641 85.8386 116.552 85.497C118.366 84.8137 119.39 84.3965 119.39 84.3965C119.39 84.3965 118.293 84.6234 116.394 85.0589C115.447 85.2806 114.296 85.5387 112.988 85.8647C111.661 86.1307 110.162 86.428 108.542 86.7827C106.922 87.1504 105.144 87.4529 103.277 87.8076C102.343 87.9823 101.381 88.1597 100.402 88.3448C99.4179 88.5065 98.4082 88.6734 97.3844 88.8403C96.3607 89.0098 95.3228 89.182 94.2681 89.3567C93.2106 89.5079 92.139 89.6514 91.0618 89.8183C89.9846 89.9748 88.8961 90.1364 87.8077 90.2955C86.7136 90.4285 85.6139 90.5641 84.5142 90.6971C82.3232 91.0153 80.1154 91.2291 77.9469 91.4743C75.7756 91.696 73.6353 91.9124 71.5681 92.1211C69.4924 92.2671 67.4899 92.4966 65.5886 92.627C63.6817 92.7678 61.8817 92.9034 60.2195 93.026C58.5516 93.1355 57.0244 93.2372 55.6716 93.3285C54.3159 93.4067 53.1318 93.4745 52.1587 93.5319C51.1828 93.5841 50.4149 93.6258 49.8918 93.6571C49.3687 93.6806 49.0874 93.6936 49.0874 93.6936C49.0874 93.6936 49.3658 93.7249 49.8862 93.7823C50.4065 93.8344 51.1743 93.9231 52.1503 93.9935C53.1262 94.0717 54.3131 94.1526 55.6772 94.2152C57.0413 94.27 58.5797 94.3508 60.2588 94.3586C61.0998 94.369 61.9745 94.3795 62.8801 94.3925C63.7858 94.3821 64.7223 94.3717 65.6842 94.3586C67.6108 94.343 69.6387 94.2543 71.7396 94.163C72.7887 94.0952 73.8547 94.03 74.9319 93.9596C76.0091 93.8918 77.1032 93.8292 78.2 93.7093L78.1944 93.7014Z" fill="#D3BC88"/>
<path d="M102.126 117.837C103.561 117.441 105.125 117.042 106.753 116.547C108.387 116.064 110.114 115.563 111.875 114.977C113.644 114.411 115.466 113.811 117.3 113.151C119.145 112.52 120.982 111.792 122.838 111.109C124.677 110.389 126.494 109.612 128.297 108.877C130.077 108.1 131.813 107.299 133.489 106.519C135.146 105.703 136.746 104.913 138.239 104.123C139.722 103.312 141.108 102.527 142.388 101.799C143.637 101.022 144.767 100.297 145.769 99.6527C146.79 99.0372 147.585 98.3722 148.28 97.8819C149.644 96.8675 150.409 96.2781 150.409 96.2781C150.409 96.2781 149.549 96.7501 148.066 97.5951C147.318 98.0097 146.452 98.5626 145.378 99.0894C144.32 99.6344 143.128 100.247 141.842 100.933C140.515 101.559 139.083 102.237 137.578 102.975C136.048 103.664 134.431 104.389 132.761 105.14C131.073 105.854 129.326 106.59 127.552 107.341C125.757 108.05 123.949 108.799 122.115 109.497C120.281 110.194 118.467 110.937 116.642 111.581C115.731 111.91 114.833 112.246 113.95 112.583C113.061 112.916 112.176 113.222 111.309 113.534C109.571 114.153 107.892 114.75 106.297 115.316C104.7 115.874 103.187 116.401 101.794 116.886C96.1862 118.792 92.4512 120.067 92.4512 120.067C92.4512 120.067 93.4299 119.893 95.1315 119.525C96.8331 119.162 99.2519 118.594 102.132 117.837H102.126Z" fill="#D3BC88"/>
<path d="M67.6273 55.2429C68.2489 55.5063 68.8704 55.694 69.478 55.8427C70.6958 56.1452 71.8602 56.2886 72.9374 56.3799C75.089 56.5599 76.8806 56.466 78.1237 56.3982C78.7453 56.3643 79.2347 56.3043 79.5666 56.2704C79.8984 56.2339 80.0728 56.213 80.0728 56.213C80.0728 56.213 79.3584 56.2104 78.1209 56.1713C76.8806 56.14 75.1087 56.0226 73.0274 55.7175C71.9896 55.5584 70.873 55.342 69.7423 55.0082C69.1798 54.8413 68.6145 54.6379 68.0829 54.3823C67.5626 54.1215 67.0451 53.8085 66.7639 53.42C66.6232 53.2218 66.5557 53.0549 66.5642 52.8358C66.5726 52.6663 66.6485 52.4681 66.8032 52.2647C67.1182 51.8631 67.6357 51.5006 68.1954 51.2007C69.3261 50.5904 70.6508 50.1705 71.9811 49.8289C73.3171 49.4794 74.6896 49.2265 76.0509 49.0413C77.415 48.8614 78.7622 48.7206 80.0813 48.6527C82.6997 48.5041 85.1691 48.5693 87.2532 48.8144C89.3317 49.0648 91.0586 49.4768 92.0936 50.0767C92.614 50.3661 92.9486 50.6947 93.1033 50.9633C93.1793 51.0963 93.2271 51.2085 93.244 51.2867C93.2636 51.365 93.2749 51.4041 93.2749 51.4041C93.2749 51.4041 93.2693 51.3623 93.258 51.2841C93.2524 51.2033 93.2215 51.0859 93.1624 50.9373C93.0386 50.6478 92.7461 50.2383 92.2286 49.8915C91.7196 49.529 91.0305 49.1978 90.2064 48.9031C89.3823 48.6032 88.4261 48.3502 87.3657 48.1546C85.2451 47.753 82.725 47.56 80.0222 47.6278C78.6806 47.667 77.2828 47.7452 75.8765 47.9278C74.4702 48.1077 73.0471 48.3528 71.6408 48.7075C70.243 49.0804 68.8564 49.529 67.5711 50.2357C66.9354 50.5904 66.3082 51.0155 65.8301 51.6596C65.6023 51.9778 65.4166 52.3977 65.4251 52.8567C65.4251 53.2687 65.6135 53.7068 65.861 54.0093C66.3701 54.6274 67.0114 54.9638 67.6273 55.2351V55.2429Z" fill="#D3BC88"/>
</svg>
