<svg width="139" height="101" viewBox="0 0 139 101" fill="none" xmlns="http://www.w3.org/2000/svg">
<path d="M137.851 22.757C137.895 23.3912 137.869 23.9584 137.869 24.5414C137.857 25.1205 137.849 25.6897 137.839 26.2412C137.817 27.3442 137.756 28.3723 137.726 29.2547C137.694 30.1371 137.624 30.8718 137.596 31.3858C137.552 31.8999 137.527 32.1954 137.527 32.1954C137.527 32.1954 137.501 31.9019 137.457 31.3858C137.429 30.8718 137.359 30.1371 137.329 29.2547C137.296 28.3723 137.236 27.3442 137.216 26.2412C137.206 25.6897 137.198 25.1205 137.186 24.5414C137.178 23.9683 137.19 23.3597 137.146 22.818C137.086 22.2665 136.987 21.7131 136.776 21.2029C136.579 20.6908 136.332 20.2043 136.015 19.7789C135.715 19.3416 135.352 18.9733 134.994 18.6365C134.617 18.3233 134.235 18.0476 133.849 17.8467C133.467 17.6399 133.098 17.4823 132.76 17.3641C132.421 17.242 132.117 17.1731 131.862 17.1238C131.609 17.0648 131.398 17.0549 131.262 17.0293C131.121 17.0096 131.047 16.9998 131.047 16.9998C131.047 16.9998 131.121 16.9958 131.262 16.9919C131.404 16.9958 131.609 16.9584 131.874 16.9899C132.142 17.0057 132.467 17.0372 132.831 17.116C133.196 17.1908 133.608 17.3051 134.026 17.4981C134.454 17.6793 134.884 17.9393 135.32 18.2465C135.734 18.5774 136.169 18.9438 136.513 19.4145C136.875 19.8695 137.188 20.3914 137.411 20.9626C137.652 21.5259 137.773 22.1405 137.847 22.755L137.851 22.757ZM27.0619 57.7393H27.8434C27.8916 57.9363 27.9619 58.1214 28.0483 58.279C28.209 58.606 28.436 58.8246 28.436 58.8246C28.436 58.8246 28.663 58.606 28.8237 58.279C29.0025 57.952 29.111 57.5148 29.111 57.0795C29.109 56.6423 29.0005 56.207 28.8217 55.88C28.661 55.5511 28.436 55.3344 28.436 55.3344C28.436 55.3344 28.211 55.5511 28.0503 55.88C27.9639 56.0376 27.8956 56.2227 27.8454 56.4197H27.1463L27.4858 51.1667H38.0667C40.2323 51.1667 42.1588 49.8156 42.8539 47.8046L46.4137 37.5271C47.1088 35.5161 49.0353 34.165 51.2009 34.165H77.1479C79.9403 34.165 82.2043 36.3847 82.2043 39.1225V65.5745H26.5597L27.0639 57.7433L27.0619 57.7393ZM40.7888 3.89787C41.743 3.89787 42.6329 4.15983 43.3983 4.60497H38.1792C38.9446 4.15983 39.8345 3.89787 40.7868 3.89787H40.7888ZM106.018 1.6269C106.018 1.26449 106.319 0.971021 106.687 0.971021C107.056 0.971021 107.358 1.26646 107.358 1.6269V4.603H106.018V1.6269ZM112.46 4.55376C112.46 4.19135 112.762 3.89787 113.129 3.89787H115.082C115.452 3.89787 115.753 4.19332 115.753 4.55376V4.603H112.46V4.55376ZM9.73112 95.2586C13.078 95.2172 17.8612 95.1581 23.5986 95.0872C29.338 95.0478 36.0317 94.9592 43.2055 94.9454C50.3772 94.9257 58.0292 94.904 65.6811 94.8843C73.331 94.906 80.9829 94.9257 88.1567 94.9454C95.3285 94.9986 102.026 95.0478 107.764 95.0892C113.503 95.1305 118.284 95.233 121.633 95.2743C124.98 95.3236 126.894 95.3531 126.894 95.3531C126.894 95.3531 124.982 95.3826 121.633 95.4319C118.284 95.4713 113.503 95.5737 107.764 95.617C102.026 95.6584 95.3305 95.7076 88.1567 95.7588C80.9829 95.7785 73.331 95.8002 65.6811 95.8219C58.0292 95.8002 50.3772 95.7805 43.2055 95.7608C36.0317 95.7451 29.336 95.6564 23.5986 95.619C17.8612 95.5481 13.078 95.487 9.73112 95.4457C6.38228 95.3885 4.46981 95.3551 4.46981 95.3551C4.46981 95.3551 6.38228 95.3216 9.73112 95.2645V95.2586ZM126.894 80.7996C126.894 80.7996 124.982 80.8488 121.633 80.9335C118.284 80.9887 113.503 81.1246 107.764 81.1876C102.026 81.2467 95.3305 81.3728 88.1567 81.4003C80.9829 81.4299 73.331 81.4594 65.6811 81.4909C58.0292 81.4594 50.3772 81.4299 43.2055 81.4003C36.0317 81.3767 29.336 81.2467 23.5986 81.1896C17.8612 81.1285 13.078 80.9887 9.73112 80.9335C6.38228 80.8469 4.46981 80.7976 4.46981 80.7976C4.46981 80.7976 6.38228 80.7484 9.73112 80.6617C13.078 80.6066 17.8612 80.4687 23.5986 80.4057C29.338 80.3486 36.0317 80.2166 43.2055 80.1949C50.3772 80.1654 58.0292 80.1358 65.6811 80.1043C73.331 80.1358 80.9829 80.1654 88.1567 80.1949C95.3305 80.2225 102.026 80.3486 107.764 80.4057C113.503 80.4687 118.284 80.6026 121.633 80.6598C124.98 80.7464 126.894 80.7957 126.894 80.7957V80.7996ZM33.8641 48.3955H26.9816V27.1531L43.7439 28.2739C38.6734 33.0679 39.485 45.6597 33.8621 48.3935L33.8641 48.3955ZM18.8415 46.3825L14.8357 26.1447V11.8709C14.8357 9.39113 16.8929 7.37622 19.4201 7.37622H25.5131V26.4126H15.8663L25.5131 27.0586V48.3974H21.3868C20.1553 48.3974 19.0846 47.5387 18.8415 46.3845V46.3825ZM17.831 68.3418L15.0708 71.5148L19.8901 68.3418H26.1137L26.2463 70.3882L26.3769 68.3418H33.3799L33.2011 70.9673L34.4828 68.3418H83.0099C83.0059 68.4225 83.0059 68.5052 82.9978 68.5742C83.0038 70.3271 80.2818 70.9239 77.9896 71.113C76.8044 71.2135 75.585 71.2036 74.3374 71.2135C73.1 71.2214 71.8705 71.2292 70.6491 71.2371C68.2022 71.2548 65.7876 71.2765 63.413 71.2962C58.662 71.3454 54.0676 71.3907 49.7123 71.436C45.357 71.4971 41.2388 71.5542 37.4379 71.6074C29.8342 71.7532 23.4981 71.8753 19.0645 71.96C14.6308 72.0722 12.0956 72.1372 12.0956 72.1372C12.0956 72.1372 14.6308 72.2022 19.0645 72.3145C23.4981 72.3992 29.8342 72.5213 37.4379 72.6651C41.2388 72.7202 45.357 72.7774 49.7123 72.8384C54.0696 72.8837 58.662 72.929 63.413 72.9782C65.7876 72.9979 68.2042 73.0176 70.6491 73.0373C71.8725 73.0452 73.1 73.0511 74.3374 73.061C75.5609 73.061 76.8285 73.1004 78.1322 73.0196C79.43 72.929 80.7559 72.7833 82.1099 72.281C82.7788 72.0151 83.4779 71.6507 84.0585 71.0303C84.6471 70.4177 84.9826 69.5373 85.0469 68.783C85.0871 68.4028 85.0831 68.0444 85.0851 67.7529L85.0871 66.8232L85.0911 64.9639L85.1011 61.2374C85.0971 56.268 85.0931 51.2987 85.0891 46.4062C85.0891 45.636 85.0851 44.8738 85.0851 44.1076C85.0851 42.5142 85.0851 41.0626 85.075 39.741C85.075 39.5401 85.075 39.3352 85.073 39.1363C85.075 38.9846 85.071 38.7916 85.063 38.5907C84.9103 26.8754 83.6869 26.4145 73.9839 26.4145C68.0174 26.4145 64.4074 26.4145 60.1747 26.4145C57.0548 26.4145 53.5955 26.4145 48.5974 26.4145H26.9776V7.37819H112.615C122.131 7.8568 122.905 9.77127 123.3 15.0971C123.688 20.3146 126.043 60.8493 126.868 75.1527L8.00146 76.498L112.569 77.6817H4.21267C7.14567 72.3381 13.8413 69.1316 15.6433 68.3437H17.827L17.831 68.3418ZM133.749 47.8991C133.863 47.9405 134.036 47.9878 134.241 48.0902C134.657 48.2832 135.249 48.5924 135.838 49.1321C136.435 49.658 137.015 50.4183 137.401 51.3459C137.596 51.8088 137.734 52.313 137.809 52.835C137.891 53.3648 137.871 53.8946 137.879 54.3929C137.877 56.4295 137.819 58.4641 137.728 59.9906C137.69 60.7528 137.624 61.389 137.594 61.8361C137.556 62.2813 137.525 62.5353 137.525 62.5353C137.525 62.5353 137.493 62.2793 137.455 61.8361C137.425 61.391 137.361 60.7548 137.323 59.9906C137.232 58.4641 137.174 56.4295 137.172 54.3929C137.172 53.8749 137.196 53.3845 137.13 52.9197C137.065 52.4509 136.979 51.988 136.816 51.5606C136.656 51.1352 136.479 50.7275 136.254 50.371C136.031 50.0145 135.796 49.6856 135.545 49.4078C135.048 48.8485 134.548 48.4467 134.173 48.2083C133.801 47.9602 133.566 47.8381 133.566 47.8381C133.566 47.8381 133.628 47.8597 133.745 47.8991H133.749ZM132.176 15.9066H130.221L129.827 11.0338C129.534 7.40379 126.446 4.603 122.73 4.603H116.743V4.55376C116.743 3.65561 116 2.92685 115.084 2.92685H113.131C112.215 2.92685 111.472 3.65561 111.472 4.55376V4.603H108.346V1.6269C108.346 0.728759 107.603 0 106.687 0C105.771 0 105.027 0.726789 105.027 1.6269V4.603H45.0235C43.9226 3.56698 42.432 2.92685 40.7868 2.92685C39.1415 2.92685 37.6509 3.56698 36.55 4.603H19.4201C15.3279 4.603 12.0092 7.8568 12.0092 11.8689V26.4106L16.0672 46.9104C16.5835 49.3881 18.8073 51.1667 21.3868 51.1667H25.0108L25.6818 61.6017H25.2037C25.1535 61.4048 25.0852 61.2196 24.9988 61.0621C24.8381 60.7351 24.6131 60.5165 24.6131 60.5165C24.6131 60.5165 24.3881 60.7351 24.2294 61.0621C24.0506 61.389 23.9421 61.8243 23.9401 62.2616C23.9401 62.6988 24.0466 63.1341 24.2274 63.4611C24.3881 63.788 24.6151 64.0066 24.6151 64.0066C24.6151 64.0066 24.8421 63.788 25.0028 63.4611C25.0912 63.3015 25.1595 63.1183 25.2077 62.9214H25.7702L25.941 65.5686H15.0748C15.0748 65.5686 0 71.3415 0 82.8874C0 94.4353 4.71088 98.3607 4.71088 98.3607H6.59523V99.6803C6.59523 100.409 7.1979 101 7.94119 101H127.407C128.15 101 128.753 100.409 128.753 99.6803V98.1677C132.574 97.3562 135.436 94.0275 135.436 90.0371V80.906C135.436 80.6854 135.426 80.4687 135.41 80.2501L134.466 68.5348C137.106 67.613 138.998 65.149 138.998 62.2438V52.9335C138.998 49.4039 136.208 46.5204 132.672 46.2722L132.053 38.5868H132.18C135.946 38.5868 139 35.5929 139 31.8999V22.5895C139 18.8985 135.946 15.9047 132.18 15.9047L132.176 15.9066Z" fill="#D3BC88"/>
<path d="M88.8273 44.4168C88.7771 42.1616 88.7008 40.0561 88.6104 38.2519C88.4436 34.6435 88.2066 32.2386 88.2066 32.2386C88.2066 32.2386 87.9715 34.6435 87.8028 38.2519C87.7124 40.0561 87.6361 42.1596 87.5858 44.4168C87.5678 45.5434 87.5276 46.7094 87.5256 47.8932C87.5175 49.0769 87.5095 50.2803 87.5015 51.4818C87.5095 52.6852 87.5175 53.8867 87.5236 55.0704C87.5256 56.2562 87.5658 57.4202 87.5838 58.5468C87.6341 60.802 87.7084 62.9076 87.8008 64.7117C87.9675 68.3201 88.2066 70.7269 88.2066 70.7269C88.2066 70.7269 88.4457 68.322 88.6124 64.7117C88.7048 62.9076 88.7791 60.802 88.8293 58.5468C88.8474 57.4182 88.8896 56.2542 88.8896 55.0704C88.8977 53.8867 88.9057 52.6852 88.9137 51.4818C88.9057 50.2784 88.8956 49.0769 88.8876 47.8932C88.8856 46.7094 88.8474 45.5434 88.8273 44.4168Z" fill="#D3BC88"/>
<path d="M111.014 32.2406C109.606 33.1447 107.922 33.6706 106.114 33.6706C106.114 33.6706 105.951 33.6489 105.642 33.6095C105.333 33.5878 104.889 33.4795 104.34 33.3574C104.071 33.2668 103.77 33.1782 103.452 33.062C103.147 32.9123 102.794 32.8079 102.46 32.607C101.765 32.2603 101.056 31.7403 100.381 31.0943C99.7118 30.4424 99.1011 29.6309 98.6371 28.6894C98.175 27.7479 97.8898 26.6686 97.8195 25.5459C97.8215 25.2702 97.7813 24.9629 97.8134 24.7108C97.8436 24.4153 97.8375 24.0687 97.9018 23.8126C97.9902 23.2769 98.1288 22.6939 98.3438 22.1503C98.7556 21.0473 99.4266 20.0211 100.286 19.1801C101.146 18.3371 102.193 17.6812 103.316 17.2755C104.447 16.8756 105.612 16.6885 106.797 16.7634C107.924 16.8323 109.025 17.114 109.987 17.565C110.948 18.02 111.775 18.6207 112.44 19.2746C113.099 19.9364 113.628 20.6317 113.983 21.3132C114.19 21.6421 114.296 21.9868 114.447 22.2862C114.566 22.5974 114.656 22.8928 114.748 23.1568C114.873 23.7004 114.984 24.1317 115.006 24.4331C115.046 24.7324 115.068 24.892 115.068 24.892V24.894C115.068 27.9666 113.455 30.6708 111.016 32.2406H111.014ZM97.705 29.1661C98.2855 30.1981 99.0469 31.0372 99.8404 31.6832C100.045 31.8506 100.252 32.0043 100.461 32.15C102.153 34.5864 105.003 36.1877 108.236 36.1877C110.134 36.1877 111.9 35.6362 113.378 34.6869C115.942 33.0403 117.633 30.2001 117.633 26.9739C117.633 23.8048 116.002 21.0118 113.517 19.3534C113.37 19.1486 113.212 18.9437 113.041 18.7409C112.382 17.9609 111.524 17.2164 110.472 16.6472C109.427 16.074 108.199 15.6624 106.86 15.5462C105.584 15.428 104.16 15.5501 102.854 16.0189C101.536 16.4738 100.302 17.2243 99.288 18.1992C98.2936 19.1959 97.5282 20.4052 97.0641 21.6953C96.819 22.3394 96.6784 22.9972 96.5981 23.6945C96.5358 24.051 96.5599 24.3306 96.5398 24.6478C96.5157 25.0102 96.5699 25.3115 96.584 25.6424C96.7025 26.9345 97.1224 28.1419 97.707 29.1661H97.705Z" fill="#D3BC88"/>
<path d="M110.022 21.5535C109.877 21.4294 109.762 21.2994 109.586 21.1773C109.256 20.9213 108.917 20.7026 108.539 20.5352C107.794 20.1846 106.956 19.9955 106.116 19.9877C105.275 19.9955 104.439 20.1846 103.694 20.5352C102.946 20.876 102.297 21.4038 101.809 21.979C100.781 23.1804 100.469 24.6655 100.572 25.8571C100.618 26.4559 100.763 26.9956 100.963 27.4368C101.148 27.8858 101.385 28.2364 101.584 28.5201C101.801 28.7899 101.982 28.9908 102.123 29.1109C102.255 29.237 102.327 29.304 102.327 29.304C102.327 29.304 102.267 29.2271 102.153 29.0853C102.03 28.9494 101.888 28.7229 101.701 28.4432C101.536 28.1498 101.343 27.7913 101.213 27.3462C101.066 26.9089 100.986 26.3929 100.969 25.8355C100.931 24.7226 101.351 23.399 102.271 22.3886C102.743 21.8608 103.324 21.4452 103.983 21.1419C104.642 20.8425 105.377 20.6829 106.116 20.681C106.854 20.681 107.591 20.8405 108.25 21.1419C108.581 21.2856 108.893 21.4767 109.168 21.6737C109.308 21.7584 109.451 21.9061 109.594 22.0203C109.72 22.1188 109.835 22.2645 109.955 22.3827C110.889 23.4069 111.299 24.7226 111.265 25.8374C111.249 26.3948 111.169 26.9109 111.022 27.3501C110.891 27.7933 110.699 28.1517 110.534 28.4472C110.349 28.7249 110.206 28.9514 110.082 29.0873C109.967 29.2291 109.907 29.3059 109.907 29.3059C109.907 29.3059 109.977 29.239 110.112 29.1129C110.253 28.9928 110.431 28.7938 110.65 28.522C110.847 28.2404 111.086 27.8878 111.271 27.4387C111.474 26.9975 111.617 26.4579 111.663 25.8591C111.767 24.6734 111.448 23.1785 110.431 21.9908C110.297 21.849 110.188 21.6973 110.026 21.5594L110.022 21.5535Z" fill="#D3BC88"/>
<path d="M95.6858 64.824H119.122V68.6057H95.6858V64.824ZM94.8822 70.721C95.0691 71.5089 95.7863 72.0958 96.6481 72.0958H120.865C121.87 72.0958 122.683 71.2981 122.683 70.3153V65.7675C122.683 64.9245 122.083 64.2213 121.279 64.0362C121.09 63.2483 120.375 62.6614 119.513 62.6614H95.2941C94.2896 62.6614 93.478 63.4591 93.478 64.4419V68.9898C93.478 69.8327 94.0787 70.5379 94.8822 70.721Z" fill="#D3BC88"/>
<path d="M91.8291 20.3324C91.8291 19.7593 91.355 19.2925 90.7684 19.2925H39.9211C39.3345 19.2925 38.8604 19.7593 38.8604 20.3324C38.8604 20.9056 39.3365 21.3724 39.9211 21.3724H90.7684C91.353 21.3724 91.8291 20.9056 91.8291 20.3324Z" fill="#D3BC88"/>
<path d="M38.8604 13.8267C38.8604 14.3999 39.3365 14.8667 39.9211 14.8667H90.7684C91.353 14.8667 91.8291 14.4018 91.8291 13.8267C91.8291 13.2535 91.355 12.7867 90.7684 12.7867H39.9211C39.3345 12.7867 38.8604 13.2535 38.8604 13.8267Z" fill="#D3BC88"/>
<path d="M47.8662 17.2736C50.2487 17.3031 53.029 17.3662 56.0103 17.38C58.9895 17.3937 62.1675 17.4095 65.3456 17.4253C68.5237 17.4095 71.7018 17.3937 74.681 17.38C77.6602 17.3681 80.4405 17.3031 82.8251 17.2736C85.2076 17.2421 87.1945 17.1731 88.5846 17.1456C89.9748 17.1022 90.7683 17.0786 90.7683 17.0786C90.7683 17.0786 89.9748 17.053 88.5846 17.0097C87.1924 16.9821 85.2076 16.9132 82.8251 16.8816C80.4405 16.8541 77.6602 16.7871 74.681 16.7753C71.7018 16.7615 68.5237 16.7457 65.3456 16.73C62.1675 16.7438 58.9895 16.7615 56.0103 16.7753C53.0311 16.7891 50.2487 16.8521 47.8662 16.8816C45.4816 16.9132 43.4948 16.9821 42.1046 17.0097C40.7145 17.051 39.9189 17.0766 39.9189 17.0766C39.9189 17.0766 40.7145 17.1003 42.1046 17.1436C43.4948 17.1712 45.4816 17.2401 47.8662 17.2716V17.2736Z" fill="#D3BC88"/>
<path d="M114.688 58.409C113.696 58.3144 112.537 58.2356 111.295 58.1864C110.675 58.1687 110.032 58.1253 109.379 58.1253C108.728 58.1174 108.065 58.1096 107.404 58.1017C106.741 58.1096 106.08 58.1194 105.429 58.1273C104.776 58.1312 104.136 58.1706 103.515 58.1903C102.271 58.2415 101.114 58.3203 100.12 58.4149C98.1329 58.5862 96.8091 58.8304 96.8091 58.8304C96.8091 58.8304 98.1329 59.0747 100.12 59.246C101.114 59.3406 102.271 59.4174 103.515 59.4686C104.136 59.4863 104.776 59.5277 105.429 59.5316C106.08 59.5395 106.743 59.5494 107.404 59.5572C108.067 59.5494 108.728 59.5415 109.379 59.5316C110.032 59.5316 110.673 59.4883 111.295 59.4706C112.537 59.4213 113.696 59.3425 114.688 59.248C116.675 59.0747 117.999 58.8304 117.999 58.8304C117.999 58.8304 116.675 58.5842 114.688 58.4129V58.409Z" fill="#D3BC88"/>
<path d="M114.688 53.8257C113.696 53.7312 112.537 53.6543 111.295 53.6031C110.675 53.5854 110.032 53.5421 109.379 53.5421C108.728 53.5342 108.065 53.5263 107.404 53.5184C106.741 53.5263 106.08 53.5362 105.429 53.544C104.776 53.548 104.136 53.5874 103.515 53.6071C102.271 53.6583 101.114 53.7371 100.12 53.8296C98.1329 54.001 96.8091 54.2452 96.8091 54.2452C96.8091 54.2452 98.1329 54.4895 100.12 54.6608C101.114 54.7553 102.271 54.8322 103.515 54.8834C104.136 54.9031 104.776 54.9444 105.429 54.9464C106.08 54.9543 106.743 54.9641 107.404 54.972C108.067 54.9641 108.728 54.9563 109.379 54.9464C110.032 54.9464 110.673 54.9031 111.295 54.8853C112.537 54.8341 113.696 54.7573 114.688 54.6628C116.675 54.4895 117.999 54.2452 117.999 54.2452C117.999 54.2452 116.675 54.001 114.688 53.8277V53.8257Z" fill="#D3BC88"/>
<path d="M100.12 50.0774C101.114 50.172 102.271 50.2488 103.515 50.3C104.136 50.3177 104.776 50.3591 105.429 50.363C106.08 50.3709 106.743 50.3807 107.404 50.3886C108.067 50.3807 108.728 50.3709 109.379 50.363C110.032 50.363 110.673 50.3197 111.295 50.302C112.537 50.2508 113.696 50.1739 114.688 50.0794C116.675 49.9061 117.999 49.6618 117.999 49.6618C117.999 49.6618 116.675 49.4176 114.688 49.2443C113.696 49.1497 112.537 49.071 111.295 49.0217C110.675 49.004 110.032 48.9607 109.379 48.9607C108.728 48.9528 108.065 48.9449 107.404 48.937C106.741 48.9449 106.08 48.9547 105.429 48.9626C104.776 48.9666 104.136 49.006 103.515 49.0256C102.271 49.0769 101.114 49.1556 100.12 49.2482C98.1329 49.4215 96.8091 49.6638 96.8091 49.6638C96.8091 49.6638 98.1329 49.908 100.12 50.0794V50.0774Z" fill="#D3BC88"/>
<path d="M100.12 45.4963C101.114 45.5908 102.271 45.6676 103.515 45.7188C104.136 45.7385 104.776 45.7779 105.429 45.7819C106.08 45.7897 106.743 45.7976 107.404 45.8075C108.067 45.7996 108.728 45.7897 109.379 45.7819C110.032 45.7819 110.673 45.7385 111.295 45.7208C112.537 45.6696 113.696 45.5928 114.688 45.4982C116.675 45.3249 117.999 45.0807 117.999 45.0807C117.999 45.0807 116.675 44.8364 114.688 44.6631C113.696 44.5686 112.537 44.4918 111.295 44.4405C110.675 44.4228 110.032 44.3795 109.379 44.3795C108.728 44.3716 108.065 44.3637 107.404 44.3539C106.741 44.3637 106.08 44.3716 105.429 44.3795C104.776 44.3815 104.136 44.4228 103.515 44.4425C102.271 44.4937 101.114 44.5725 100.12 44.6651C98.1329 44.8364 96.8091 45.0807 96.8091 45.0807C96.8091 45.0807 98.1329 45.3249 100.12 45.4963Z" fill="#D3BC88"/>
<path d="M111.295 39.8572C110.675 39.8375 110.032 39.7961 109.379 39.7961C108.728 39.7882 108.065 39.7804 107.404 39.7705C106.741 39.7784 106.08 39.7882 105.429 39.7961C104.776 39.8001 104.136 39.8394 103.515 39.8591C102.271 39.9103 101.114 39.9872 100.12 40.0817C98.1329 40.2531 96.8091 40.4973 96.8091 40.4973C96.8091 40.4973 98.1329 40.7415 100.12 40.9129C101.114 41.0074 102.271 41.0842 103.515 41.1374C104.136 41.1551 104.776 41.1965 105.429 41.2004C106.08 41.2083 106.743 41.2182 107.404 41.2261C108.067 41.2182 108.728 41.2083 109.379 41.2004C110.032 41.2004 110.673 41.1571 111.295 41.1394C112.537 41.0882 113.696 41.0114 114.688 40.9168C116.675 40.7435 117.999 40.4993 117.999 40.4993C117.999 40.4993 116.675 40.255 114.688 40.0817C113.696 39.9872 112.537 39.9084 111.295 39.8591V39.8572Z" fill="#D3BC88"/>
</svg>
