<svg width="78" height="18" viewBox="0 0 78 18" fill="none" xmlns="http://www.w3.org/2000/svg">
<path d="M44.4162 2.88095C50.9269 2.88095 60.8216 2.88191 67.6424 4.16063C66.1467 5.11679 65.1531 6.79198 65.1531 8.69566C65.1531 10.5993 66.1467 12.2736 67.6424 13.2307C60.8206 14.5104 50.9269 14.5104 44.4162 14.5104H20.4979C20.0678 13.3238 19.0579 11.9808 16.7529 11.2982C17.5603 10.2509 19.8307 7.01566 20.5679 2.87999H44.4172L44.4162 2.88095ZM52.4533 1.14432C54.3541 1.17696 56.2549 1.23455 58.125 1.32671C59.996 1.42751 61.8354 1.56575 63.6123 1.75871C65.3883 1.95935 67.1009 2.21471 68.7089 2.55935C70.3131 2.91455 71.8164 3.35711 73.1364 3.95039C73.794 4.25087 74.4075 4.58591 74.9451 4.97951C75.4836 5.36831 75.9454 5.82046 76.2824 6.31678C76.6164 6.81598 76.8248 7.3507 76.9025 7.86142C76.9486 8.11774 76.9553 8.36926 76.9553 8.5939C76.9496 8.83582 76.9236 9.05278 76.8852 9.26301C76.722 10.104 76.3217 10.6646 76.0366 11.0006C75.8907 11.1705 75.7697 11.2915 75.6862 11.3702C75.6027 11.448 75.5585 11.4883 75.5585 11.4883C75.5585 11.4883 75.5998 11.4451 75.6785 11.3616C75.7563 11.2761 75.8686 11.1485 76.0011 10.9709C76.1326 10.7933 76.2833 10.5638 76.4168 10.2749C76.5521 9.98685 76.6731 9.63933 76.7297 9.23613C76.8459 8.44702 76.7144 7.3843 76.0308 6.49438C75.3579 5.59774 74.252 4.88734 72.9617 4.35359C71.6657 3.81695 70.1816 3.43007 68.5928 3.12671C67.0049 2.81087 65.3067 2.58815 63.5442 2.41151C61.7816 2.22911 59.9518 2.10239 58.0904 2.00927C56.2299 1.90751 54.3359 1.84223 52.4408 1.79519C50.5458 1.73759 48.6498 1.71551 46.7826 1.67807C44.9164 1.63679 43.076 1.62912 41.2962 1.61376C39.5164 1.59936 37.797 1.58591 36.165 1.57247C34.534 1.55327 32.9922 1.53503 31.5676 1.51871C28.7212 1.48127 26.3481 1.45055 24.6873 1.42847C23.0265 1.40063 22.0771 1.38431 22.0771 1.38431C22.0771 1.38431 23.0265 1.36991 24.6873 1.34495C26.3481 1.32575 28.7212 1.29695 31.5676 1.26432C32.9913 1.24992 34.534 1.2336 36.165 1.21728C37.7961 1.20672 39.5164 1.1952 41.2962 1.18368C43.076 1.17408 44.9144 1.16063 46.7836 1.13183C48.6536 1.10975 50.5535 1.1232 52.4533 1.14528V1.14432ZM73.5934 8.69566C73.5934 10.3824 72.2206 11.7552 70.5339 11.7552C68.8462 11.7552 67.4744 10.3824 67.4744 8.69566C67.4744 7.00894 68.8472 5.63614 70.5339 5.63614C72.2206 5.63614 73.5934 7.00894 73.5934 8.69566ZM69.356 12.7785C68.9777 12.6931 68.5928 12.5587 68.2318 12.358C67.8747 12.1497 67.5493 11.879 67.2651 11.5708L67.0769 11.3299C67.0174 11.2617 66.9589 11.1628 66.9003 11.0707C66.7745 10.8873 66.6968 10.6973 66.6075 10.511C66.4539 10.128 66.3694 9.72861 66.3339 9.34269C66.3109 8.95485 66.332 8.5795 66.4107 8.23582C66.4405 8.06302 66.499 7.90078 66.5432 7.74334C66.6085 7.59166 66.6613 7.44286 66.7313 7.30846C66.8648 7.03678 67.0203 6.80734 67.1701 6.61822C67.2488 6.52606 67.3189 6.43774 67.3899 6.36094C67.4657 6.2899 67.5349 6.22366 67.5982 6.1651C67.7173 6.04222 67.8392 5.97502 67.9073 5.91742C67.9803 5.86366 68.0197 5.83582 68.0197 5.83582C68.0197 5.83582 67.9899 5.87422 67.9342 5.94622C67.8814 6.02014 67.7893 6.11422 67.7 6.25534C67.6539 6.32446 67.603 6.4003 67.5473 6.48286C67.4993 6.56926 67.4465 6.66238 67.3909 6.76222C67.2862 6.96382 67.1854 7.19902 67.0971 7.45822C67.0529 7.58686 67.0251 7.72894 66.9867 7.87006C66.9685 8.01598 66.9262 8.1619 66.9185 8.31646C66.8792 8.62366 66.9022 8.94813 66.9368 9.27645C66.9857 9.60573 67.0894 9.93021 67.2219 10.247C67.3016 10.3977 67.3755 10.559 67.4686 10.6905C67.5128 10.7597 67.5493 10.8278 67.6165 10.9046L67.7835 11.1158C68.0177 11.374 68.2846 11.5987 68.5736 11.784C68.8702 11.9568 69.1793 12.1008 69.499 12.191C69.8206 12.2659 70.1403 12.3312 70.4494 12.3312C70.604 12.3436 70.7537 12.3196 70.9016 12.3206C71.0456 12.3004 71.1896 12.2918 71.323 12.263C71.5928 12.2092 71.8376 12.1401 72.0517 12.0614C72.1572 12.0182 72.2571 11.9779 72.3483 11.9414C72.4366 11.8972 72.5182 11.8569 72.5912 11.8204C72.7419 11.7513 72.8523 11.6688 72.931 11.6265C73.0088 11.5804 73.051 11.5555 73.051 11.5555C73.051 11.5555 73.0184 11.591 72.956 11.6572C72.8888 11.7187 72.811 11.8272 72.6728 11.9308C72.6056 11.9856 72.5307 12.047 72.4491 12.1132C72.3636 12.1728 72.2676 12.2313 72.1668 12.2976C71.9595 12.4224 71.7128 12.5462 71.4257 12.6441C71.2836 12.696 71.1291 12.7296 70.9707 12.7747C70.8094 12.7987 70.6414 12.8361 70.4657 12.8438C70.1153 12.8784 69.739 12.8524 69.3579 12.7795L69.356 12.7785ZM64.8248 14.4249C64.3726 14.5056 63.8907 14.59 63.38 14.6611C63.1246 14.6995 62.8635 14.7379 62.5957 14.7782C62.3269 14.8108 62.0523 14.8444 61.772 14.879C60.6498 15.0182 59.4306 15.1372 58.1384 15.239C56.8462 15.3369 55.4831 15.4233 54.0719 15.4857C52.6607 15.5472 51.2024 15.5913 49.7202 15.6259C48.2389 15.6576 46.7327 15.6681 45.2274 15.6768C43.7231 15.6873 42.2178 15.6825 40.7385 15.6768C39.2581 15.6729 37.8009 15.6691 36.3906 15.6528C33.5711 15.6307 30.9388 15.5913 28.6828 15.5452C27.5548 15.5232 26.5209 15.5011 25.6041 15.4713C24.6873 15.4444 23.8886 15.4214 23.231 15.4022C22.5734 15.3792 22.0559 15.3609 21.7036 15.3494C21.3513 15.336 21.1631 15.3283 21.1631 15.3283C21.1631 15.3283 21.3513 15.3216 21.7036 15.3072C22.0559 15.2947 22.5734 15.2774 23.231 15.2534C23.8886 15.2342 24.6883 15.2121 25.6041 15.1852C26.5209 15.1564 27.5539 15.1334 28.6828 15.1123C30.9388 15.0662 33.5711 15.0259 36.3906 15.0048C37.8009 14.9884 39.2581 14.9836 40.7385 14.9798C42.2188 14.9779 43.7231 14.9769 45.2264 14.976C46.7298 14.9779 48.2312 14.9664 49.7096 14.9529C51.189 14.9414 52.6434 14.9193 54.0498 14.88C54.7535 14.8598 55.4456 14.8387 56.1224 14.8195C56.8002 14.7897 57.4616 14.7609 58.1058 14.7331C59.3931 14.662 60.6114 14.5968 61.7326 14.495C62.2933 14.4499 62.8309 14.399 63.3397 14.3452C63.8513 14.2992 64.3333 14.2387 64.7873 14.1801C65.2414 14.1283 65.6657 14.0649 66.0555 14.0025C66.4472 13.944 66.8062 13.8883 67.1288 13.823C67.4523 13.7635 67.7403 13.7107 67.9918 13.6636C68.2414 13.6089 68.4536 13.5619 68.6254 13.5254C68.9701 13.4496 69.1534 13.4092 69.1534 13.4092C69.1534 13.4092 68.9729 13.4611 68.6341 13.56C68.4641 13.6089 68.2558 13.6704 68.0101 13.7404C67.7614 13.8019 67.4753 13.872 67.1557 13.9507C66.836 14.0313 66.4779 14.1052 66.0881 14.183C65.6993 14.2646 65.2779 14.3491 64.8238 14.424L64.8248 14.4249ZM15.5683 10.8825L15.5155 10.944C15.3734 10.9584 15.2112 10.9737 15.0307 10.992C14.3923 11.0592 13.5446 11.1628 12.7017 11.2838C12.6153 11.2963 12.5289 11.3088 12.4425 11.3212C12.382 10.8624 12.2563 10.1481 12.0096 9.3715C12.9715 8.79838 16.0732 7.02142 18.1267 6.66238C16.9814 9.19198 15.5913 10.8557 15.5683 10.8835V10.8825ZM7.54654 10.9488C5.98078 10.9488 5.81182 9.32926 5.81182 8.63326C5.81182 7.93726 5.98078 6.3187 7.54654 6.3187C9.06334 6.3187 10.1606 7.17598 10.9008 8.9395C11.2041 9.66045 11.3788 10.3939 11.4796 10.9488H7.54654ZM19.5878 1.18656C19.51 2.29535 19.2912 3.35903 18.9955 4.35071C14.951 4.35071 11.9001 4.35071 7.7443 4.35071C6.75262 4.35071 6.0067 4.62431 5.48159 5.08031C5.73407 4.76063 6.00766 4.53407 6.22558 4.40255C6.34654 4.32767 6.44926 4.27775 6.5203 4.24607C6.59134 4.21439 6.6307 4.19807 6.6307 4.19807C6.6307 4.19807 6.58846 4.20191 6.5107 4.21055C6.43198 4.22015 6.31678 4.23935 6.17182 4.28351C5.88574 4.36703 5.47967 4.56287 5.10335 4.94111C4.91519 5.12735 4.73471 5.35679 4.58591 5.6275C4.43423 5.89726 4.31519 6.19966 4.23743 6.5251C4.16255 6.85054 4.11167 7.1923 4.11263 7.53982C4.11071 7.88638 4.14047 8.23582 4.19423 8.57854C4.25471 8.92029 4.34015 9.25821 4.44863 9.58365C4.55327 9.91101 4.70015 10.2182 4.85855 10.5062C5.17727 11.0813 5.59871 11.5478 6.01534 11.8608C6.42814 12.1814 6.8323 12.3523 7.1155 12.4396C7.40158 12.526 7.56862 12.5424 7.56862 12.5424C7.56862 12.5424 7.41406 12.4713 7.17022 12.3187C6.92734 12.166 6.59806 11.9241 6.27262 11.5747C6.24574 11.5449 6.21982 11.5123 6.19294 11.4816C6.56254 11.7129 7.01182 11.8454 7.54654 11.8454H9.35134C9.35134 11.8454 11.0467 11.856 12.7315 11.9558C13.5734 12.0028 14.4134 12.0672 15.0393 12.1267C15.1238 12.1344 15.2035 12.143 15.2793 12.1507L16.0377 12.335C17.4441 12.6768 18.3216 13.2662 18.8563 13.9401L8.84254 14.4566L17.5219 14.904C14.5603 14.904 9.81501 14.904 8.70718 14.904C2.96159 14.904 0.793917 10.4966 2.58239 4.17407C2.58815 4.16543 2.59295 4.15871 2.60159 4.14719C2.63327 4.10495 2.67647 4.03679 2.74175 3.95999C2.86655 3.79967 3.06143 3.58175 3.33695 3.35135C3.61247 3.12191 3.96671 2.88095 4.38143 2.67263C4.79519 2.46335 5.26847 2.28767 5.75903 2.15999C6.7459 1.90175 7.79422 1.83551 8.57758 1.80671C9.36382 1.78175 9.88989 1.78079 9.88989 1.78079C9.88989 1.78079 9.36958 1.71167 8.58334 1.63103C7.79806 1.55615 6.73534 1.4784 5.6563 1.60991C5.18975 1.66655 4.72607 1.76639 4.29119 1.90271C5.14079 1.43807 6.12862 1.18944 7.18078 1.18944H19.5859L19.5878 1.18656ZM20.7417 17.0342C20.7427 17.0275 20.7571 16.9545 20.7715 16.8307H44.4172C52.3995 16.8307 60.6286 16.6972 66.74 15.7305C69.4251 15.3052 77.5966 14.0121 77.5966 8.69469C77.5966 3.37727 69.4251 2.08415 66.74 1.65888C60.6286 0.692158 52.3995 0.558716 44.4172 0.558716H20.7993C20.8012 0.469437 20.8031 0.381119 20.8031 0.290879C20.8031 0.13056 20.6735 0 20.5132 0H7.18174C5.25311 0 3.49247 0.703677 2.22431 1.98143C0.768958 3.44735 0 5.62174 0 8.27038C0 14.0707 2.13887 17.2656 6.0211 17.2656H20.4575C20.5958 17.2656 20.7139 17.1686 20.7417 17.0332V17.0342Z" fill="#D3BC88"/>
</svg>