<svg width="74" height="20" viewBox="0 0 74 20" fill="none" xmlns="http://www.w3.org/2000/svg">
<path d="M70.2545 2.78687C70.0395 2.86079 69.8101 2.92991 69.5691 2.97503C69.3291 3.02495 69.0785 3.06815 68.8241 3.09695C68.5688 3.13055 68.3096 3.15167 68.0504 3.17375C67.531 3.20543 67.0117 3.22559 66.5249 3.22079C66.0382 3.22175 65.5851 3.19967 65.1963 3.18239C64.8085 3.16799 64.4849 3.13247 64.2594 3.11615C64.0338 3.09503 63.9042 3.08255 63.9042 3.08255C63.9042 3.08255 64.0338 3.07679 64.2603 3.06815C64.4859 3.06239 64.8094 3.05375 65.1973 3.04223C65.5851 3.03839 66.0363 3.01727 66.5201 3.00191C67.004 2.98463 67.5185 2.96255 68.0312 2.92511C68.2875 2.90591 68.5438 2.88863 68.7944 2.85791C69.0449 2.83103 69.2917 2.80127 69.5269 2.75903C69.763 2.72063 69.9877 2.67167 70.1979 2.61503C70.4053 2.55359 70.5992 2.48351 70.7547 2.38559C70.9102 2.28959 71.0216 2.16095 71.0485 2.02175C71.0753 1.88159 71.0168 1.75103 70.964 1.65791C70.9064 1.56287 70.8488 1.49471 70.8075 1.45055C70.7662 1.40639 70.7413 1.38528 70.7413 1.38528C70.7413 1.38528 70.7681 1.40256 70.8161 1.44C70.8632 1.47936 70.9333 1.536 71.0033 1.63008C71.0696 1.72224 71.1521 1.85471 71.1397 2.03231C71.1281 2.20991 71.0014 2.38655 70.8334 2.50079C70.6664 2.62079 70.4667 2.70719 70.2526 2.78687H70.2545ZM59.348 1.85375C59.348 1.35552 63.2696 1.19616 65.6513 1.19616C68.0321 1.19616 70.4542 1.34688 70.4542 1.85375C70.4542 2.36159 68.0331 2.51231 65.6513 2.51231C63.2696 2.51231 59.348 2.35199 59.348 1.85375ZM2.14079 1.75967C2.54207 1.70111 3.12959 1.60896 3.88031 1.51296C4.63103 1.41696 5.54303 1.3056 6.59614 1.21248C7.12318 1.1664 7.68862 1.13472 8.28094 1.12512C8.8723 1.11264 9.49341 1.0992 10.1414 1.08576C11.4384 1.06464 12.8428 1.04256 14.328 1.0176C15.8131 1.00032 17.3798 0.983038 19.0003 0.963838C20.6207 0.952318 22.295 0.941757 23.9971 0.929277C25.6982 0.924477 27.4271 0.920638 29.1561 0.915838C30.885 0.919678 32.613 0.924478 34.3151 0.927358C36.0172 0.937918 37.6914 0.948477 39.3119 0.959037C40.9324 0.976317 42.4991 0.992638 43.9842 1.00896C45.4693 1.03104 46.8738 1.05312 48.1708 1.07328C50.7637 1.11456 52.9237 1.18368 54.4367 1.21536C55.1931 1.2384 55.7864 1.25664 56.1925 1.26912C56.5976 1.2816 56.8136 1.28831 56.8136 1.28831C56.8136 1.28831 56.5976 1.29504 56.1925 1.30848C55.7874 1.32096 55.1931 1.33824 54.4367 1.36128C52.9237 1.39296 50.7637 1.46304 48.1708 1.50336C46.8738 1.52352 45.4693 1.54463 43.9842 1.56767C42.4991 1.58399 40.9324 1.60032 39.3119 1.6176C37.6914 1.62816 36.0172 1.63775 34.3151 1.64831C32.614 1.65215 30.885 1.65695 29.1561 1.66079C27.4281 1.65599 25.6991 1.65216 23.9971 1.64736C22.2959 1.63488 20.6207 1.62336 19.0003 1.61184C17.3798 1.5936 15.8131 1.57631 14.328 1.55903C12.8428 1.53504 11.4384 1.51296 10.1414 1.49088C8.84542 1.48032 7.65502 1.40448 6.61246 1.464C5.56319 1.51104 4.64735 1.58112 3.89471 1.64352C2.38751 1.76639 1.5264 1.85184 1.5264 1.85184C1.5264 1.85184 1.73952 1.8192 2.14079 1.75776V1.75967ZM73.339 1.85375C73.339 1.74144 73.3832 0 67.2181 0C65.4603 0 62.4027 0.0144005 60.8005 0.1056C59.6149 0.1728 57.7045 0.386878 56.0591 0.404158C40.2191 0.571198 12.9484 0.566398 9.21598 0.566398C3.82943 0.566398 0.386879 1.72416 0.0326396 1.848H0C0 1.848 0.00671981 1.84991 0.0163198 1.85375C0.00671981 1.85759 0 1.85951 0 1.85951H0.0326396C0.386879 1.98431 3.82943 3.14111 9.21598 3.14111C12.9513 3.14111 40.246 3.13631 56.0898 3.30431C57.7391 3.32159 59.6533 3.53567 60.8418 3.60287C62.4334 3.69311 65.4632 3.70847 67.2181 3.70847C73.3832 3.70847 73.339 1.96703 73.339 1.85375Z" fill="#D3BC88"/>
<path d="M2.22915 13.8336C2.64675 13.7722 3.25826 13.6771 4.04066 13.5773C4.82306 13.4774 5.7725 13.3622 6.86881 13.2643C7.41793 13.2163 8.00641 13.1837 8.62369 13.1731C9.23905 13.1597 9.88609 13.1462 10.561 13.1318C11.9107 13.1088 13.3728 13.0858 14.9203 13.0608C16.4669 13.0435 18.0979 13.0243 19.7856 13.0051C21.4723 12.9936 23.2166 12.9811 24.9878 12.9696C26.76 12.9658 28.559 12.961 30.359 12.9562C32.159 12.96 33.959 12.9638 35.7302 12.9686C37.5023 12.9802 39.2457 12.9907 40.9334 13.0013C42.6201 13.0195 44.2521 13.0368 45.7986 13.0531C47.3452 13.0771 48.8082 13.0992 50.158 13.1203C52.8575 13.1635 55.1077 13.2355 56.6821 13.2682C57.4693 13.2922 58.0885 13.3104 58.51 13.3229C58.9314 13.3363 59.157 13.344 59.157 13.344C59.157 13.344 58.9324 13.3517 58.51 13.3651C58.0885 13.3776 57.4693 13.3968 56.6821 13.4198C55.1077 13.4534 52.8575 13.5245 50.158 13.5677C48.8082 13.5888 47.3461 13.6109 45.7986 13.6349C44.2521 13.6512 42.621 13.6685 40.9334 13.6867C39.2457 13.6973 37.5023 13.7078 35.7302 13.7194C33.959 13.7232 32.159 13.728 30.359 13.7318C28.559 13.727 26.759 13.7222 24.9878 13.7174C23.2166 13.705 21.4723 13.6925 19.7856 13.6819C18.0989 13.6627 16.4669 13.6445 14.9203 13.6262C13.3738 13.6013 11.9107 13.5773 10.561 13.5552C9.21121 13.5446 7.97185 13.4659 6.88609 13.5274C5.79362 13.5754 4.84034 13.6493 4.05602 13.7146C2.48643 13.8422 1.59075 13.9315 1.59075 13.9315C1.59075 13.9315 1.81251 13.897 2.23011 13.8326L2.22915 13.8336ZM67.6059 10.6646C67.676 10.6541 67.7643 10.6397 67.8632 10.6397C67.9631 10.6349 68.0773 10.6349 68.1992 10.6483C68.3231 10.656 68.4527 10.6867 68.5919 10.7146C68.7272 10.7558 68.8751 10.7923 69.0152 10.8586C69.1611 10.9162 69.3032 10.9901 69.4424 11.0765C69.5883 11.1542 69.7122 11.2666 69.8466 11.3645C69.9723 11.473 70.0885 11.592 70.2018 11.7101C70.3045 11.8358 70.4005 11.9645 70.4907 12.0893C70.5695 12.2218 70.6405 12.3523 70.7048 12.4762C70.7682 12.601 70.8066 12.7296 70.8478 12.8429C70.9323 13.0704 70.9544 13.2758 70.9736 13.416C70.9909 13.5562 70.9918 13.6378 70.9918 13.6378C70.9918 13.6378 70.9275 13.5811 70.8335 13.4794C70.7864 13.4285 70.7278 13.368 70.6693 13.296C70.6126 13.223 70.5339 13.1501 70.4581 13.0666C70.3803 12.985 70.3083 12.8899 70.219 12.8016C70.1298 12.7123 70.0395 12.6182 69.9522 12.5194C69.8533 12.4282 69.7544 12.3341 69.6594 12.2342C69.5518 12.1478 69.4539 12.048 69.3464 11.9597C69.236 11.8762 69.1352 11.7782 69.0219 11.7014C68.9663 11.6621 68.9125 11.6208 68.8587 11.5786C68.8031 11.5411 68.7474 11.5037 68.6936 11.4662C68.5871 11.3866 68.4747 11.3261 68.372 11.255C68.2655 11.1965 68.1656 11.1274 68.0677 11.0774C67.8767 10.9632 67.7058 10.8806 67.5829 10.8163C67.4571 10.7549 67.3851 10.7203 67.3851 10.7203C67.3851 10.7203 67.4619 10.6886 67.604 10.6646H67.6059ZM62.085 12.1104C62.1311 11.9981 62.1647 11.8243 62.2751 11.6218C62.3259 11.519 62.3807 11.401 62.4459 11.2771C62.518 11.1581 62.6024 11.0333 62.6908 10.897C62.7819 10.7635 62.8971 10.6339 63.0104 10.4899C63.1275 10.3478 63.2754 10.223 63.4184 10.079C63.573 9.95041 63.7362 9.81409 63.9157 9.68641C64.101 9.56929 64.2901 9.43681 64.5042 9.33793C64.9199 9.11425 65.4008 8.96065 65.9096 8.85601C66.4203 8.75425 66.9656 8.74369 67.5128 8.79937C67.7835 8.84257 68.06 8.87809 68.3269 8.96449C68.4613 9.00097 68.5966 9.03649 68.7253 9.09217L68.9211 9.16801L69.0191 9.20641L69.068 9.22561L69.092 9.23521L69.1045 9.24001L69.1112 9.24193L69.141 9.25633C69.3704 9.38209 69.5816 9.47041 69.8351 9.64801C70.0904 9.80065 70.2958 9.98497 70.5061 10.1616C70.9074 10.5379 71.2558 10.9565 71.516 11.4086C71.7704 11.8608 71.971 12.3245 72.0747 12.7853C72.141 13.0109 72.165 13.2403 72.1986 13.4573C72.2197 13.6762 72.2235 13.8893 72.2274 14.0909C72.212 14.2934 72.2139 14.4874 72.1851 14.6688C72.1506 14.8493 72.1285 15.0211 72.0872 15.1776C72.0421 15.3341 72.0037 15.48 71.9614 15.6115C71.9077 15.7392 71.8587 15.8573 71.8146 15.9638C71.7358 16.1779 71.6226 16.3248 71.5688 16.4323C71.5064 16.536 71.4738 16.5907 71.4738 16.5907C71.4738 16.5907 71.4882 16.5273 71.5131 16.4093C71.5362 16.2902 71.5909 16.1251 71.6158 15.9043C71.6312 15.7968 71.6485 15.6768 71.6667 15.5453C71.6715 15.4128 71.684 15.2726 71.6926 15.1238C71.6994 14.9741 71.6859 14.8138 71.683 14.6486C71.6754 14.4826 71.6475 14.3088 71.6312 14.1293C71.5659 13.7741 71.4795 13.3949 71.3269 13.0176C71.1925 12.6346 70.9774 12.264 70.7374 11.9021C70.4917 11.5411 70.1778 11.2186 69.8408 10.919C69.6622 10.7798 69.4818 10.6358 69.3003 10.5283C69.1458 10.4112 68.8952 10.3008 68.6811 10.1866L68.6763 10.1846L68.6658 10.1808L68.6456 10.1731L68.6063 10.1568L68.5266 10.1251L68.3672 10.0608C68.2626 10.0128 68.1522 9.984 68.0418 9.95232C67.8239 9.87936 67.6002 9.84001 67.3775 9.79585C66.9301 9.73633 66.4808 9.71425 66.0459 9.76417C65.6159 9.81985 65.1944 9.90241 64.8171 10.0512C64.4331 10.1846 64.0895 10.3661 63.7784 10.5523C63.6325 10.657 63.4847 10.751 63.3541 10.8547C63.2274 10.9613 63.0978 11.0554 62.9893 11.159C62.8827 11.2637 62.7848 11.3654 62.6879 11.4557C62.6024 11.5546 62.5237 11.6448 62.4536 11.7264C62.3048 11.8886 62.2117 12.0451 62.1388 12.1392C62.0667 12.2362 62.0283 12.289 62.0283 12.289C62.0283 12.289 62.0485 12.2275 62.086 12.1133L62.085 12.1104ZM72.8658 13.9325C72.8658 10.7165 70.2584 8.10913 67.0434 8.10913C64.412 8.10913 62.1887 9.85536 61.4677 12.2506C60.4789 12.3302 59.3778 12.4118 58.3717 12.4224C41.878 12.5971 13.4832 12.5914 9.59713 12.5914C3.98882 12.5914 0.404191 13.7971 0.0355522 13.9258H0.00195312C0.00195312 13.9258 0.0086724 13.9277 0.0192324 13.9315C0.0086724 13.9354 0.00195312 13.9373 0.00195312 13.9373H0.0355522C0.405151 14.0669 3.98978 15.2717 9.59713 15.2717C13.4861 15.2717 41.9068 15.2669 58.4044 15.4416C59.3999 15.4522 60.4876 15.5309 61.4677 15.6096C62.1887 18.0077 64.412 19.7539 67.0443 19.7539C70.2603 19.7539 72.8667 17.1475 72.8667 13.9315L72.8658 13.9325Z" fill="#D3BC88"/>
</svg>