<svg width="56" height="51" viewBox="0 0 56 51" fill="none" xmlns="http://www.w3.org/2000/svg">
<path d="M5.94524 22.3789C5.96156 22.3021 5.99132 22.1888 6.0566 22.0506C6.1766 21.7712 6.45692 21.3958 6.91964 21.055C7.84508 20.3686 9.39164 19.7706 11.2828 19.3395C13.176 18.8989 15.4214 18.5898 17.83 18.3834C19.0348 18.2845 20.2799 18.1933 21.5471 18.1453C22.8134 18.0934 24.1007 18.0579 25.3871 18.0387C26.6735 18.0301 27.9599 18.032 29.229 18.0541C30.4962 18.0733 31.7433 18.1338 32.949 18.2C35.3606 18.3402 37.607 18.5638 39.5183 18.8547C41.4335 19.137 43.005 19.5123 44.0927 19.8128C44.638 19.9664 45.0546 20.1094 45.3359 20.2189C45.6181 20.3216 45.7689 20.3773 45.7689 20.3773C45.7689 20.3773 45.6133 20.3389 45.3205 20.2678C45.0297 20.1862 44.5948 20.1027 44.0485 19.9894C42.9513 19.7677 41.3634 19.5622 39.454 19.3866C38.4988 19.304 37.463 19.2291 36.3657 19.1667C35.2684 19.0995 34.1097 19.065 32.9126 19.0208C31.7145 18.9786 30.4751 18.9728 29.2166 18.9565C27.958 18.945 26.6783 18.9546 25.3977 18.9738C24.118 18.9843 22.8383 19.0064 21.5807 19.0486C20.3222 19.0947 19.0847 19.1312 17.8886 19.2051C15.4982 19.3434 13.272 19.5507 11.3894 19.8666C9.5126 20.1882 7.95836 20.6106 7.02236 21.2058C6.55868 21.4995 6.24572 21.8144 6.10172 22.0755C6.02492 22.2022 5.98268 22.3107 5.95868 22.3837C5.93564 22.4576 5.92316 22.496 5.92316 22.496C5.92316 22.496 5.93084 22.4566 5.9462 22.3808L5.94524 22.3789ZM9.36668 18.8038C9.18908 18.4419 9.01436 18.0858 8.8454 17.7411C8.67836 17.3965 8.51516 17.0624 8.36156 16.7456C8.20892 16.4278 8.06588 16.1283 7.93244 15.8518C7.66748 15.2979 7.4534 14.8323 7.2998 14.5088C7.22492 14.3456 7.1654 14.2189 7.12508 14.1315C7.08572 14.0442 7.06364 13.9971 7.06364 13.9971C7.06364 13.9971 7.0886 14.0423 7.13372 14.1267C7.17884 14.2112 7.24604 14.3351 7.33052 14.4925C7.49756 14.8103 7.74044 15.2605 8.02268 15.8067C8.16476 16.0784 8.3174 16.375 8.47964 16.687C8.63996 17 8.80892 17.3302 8.9846 17.672C9.1574 18.0147 9.33692 18.369 9.51932 18.728C9.54716 18.7818 9.57404 18.8384 9.60188 18.8922C9.54524 18.9085 9.49148 18.9258 9.4358 18.944C9.41276 18.8979 9.38972 18.8499 9.36668 18.8038ZM12.9196 16.3587C12.8304 15.6886 12.742 15.0291 12.6566 14.3907C12.574 13.7523 12.4944 13.1351 12.4185 12.5504C12.3465 11.9648 12.2774 11.4109 12.214 10.8992C12.0883 9.87682 11.9952 9.02242 11.9251 8.42626C11.8924 8.1277 11.8665 7.89346 11.8492 7.73314C11.832 7.57282 11.8224 7.48738 11.8224 7.48738C11.8224 7.48738 11.8377 7.57186 11.8646 7.73122C11.8915 7.88962 11.9318 8.1229 11.9817 8.41954C12.0777 9.01186 12.2236 9.85954 12.383 10.8771C12.4617 11.3859 12.5481 11.9379 12.6393 12.5216C12.7276 13.1043 12.8198 13.7197 12.9158 14.3571C13.0089 14.9946 13.1059 15.6522 13.2028 16.3213C13.2844 16.8954 13.367 17.4781 13.4505 18.0598C13.3526 18.0762 13.2566 18.0925 13.1587 18.1088C13.078 17.5232 12.9974 16.9376 12.9177 16.3606L12.9196 16.3587ZM11.3001 4.01411C11.1686 3.07715 11.0947 2.11619 11.2944 2.08835C11.494 2.06051 11.687 3.00515 11.8185 3.94211C11.9491 4.87906 12.1027 6.43138 11.9059 6.45826C11.71 6.4861 11.4316 4.95202 11.3001 4.01411ZM11.1168 1.97027C11.1014 1.98947 11.0937 2.00003 11.0937 2.00003C11.0937 2.00003 11.0995 1.98755 11.112 1.96739C11.1244 1.94723 11.1436 1.91555 11.1763 1.88387C11.2089 1.85219 11.2569 1.81283 11.327 1.80707C11.398 1.80227 11.4739 1.84259 11.5286 1.90211C11.5852 1.96067 11.6304 2.03459 11.6726 2.11427C11.7139 2.19491 11.7532 2.28131 11.7849 2.37347C11.8176 2.46563 11.8483 2.56163 11.8742 2.66051C11.9011 2.75939 11.9241 2.85923 11.9472 2.96099C11.9884 3.16355 12.0249 3.36611 12.0499 3.55811C12.0768 3.74915 12.0931 3.92867 12.1084 4.08323C12.1238 4.23683 12.1276 4.36547 12.1334 4.45475C12.1382 4.54499 12.1401 4.59683 12.1401 4.59683C12.1401 4.59683 12.1305 4.54595 12.1152 4.45763C12.0998 4.36931 12.0787 4.24259 12.0528 4.09091C12.0297 3.93827 11.9961 3.76067 11.9635 3.57251C11.9308 3.38339 11.8934 3.18179 11.8502 2.98211C11.8281 2.88227 11.808 2.78339 11.7811 2.68547C11.7571 2.58851 11.7312 2.49347 11.7024 2.40323C11.6736 2.31203 11.6428 2.22563 11.6083 2.14691C11.5728 2.06819 11.5344 1.99619 11.4883 1.94051C11.4412 1.88483 11.3846 1.84835 11.328 1.84451C11.2713 1.84259 11.2233 1.87139 11.1897 1.89827C11.1552 1.92611 11.1321 1.95203 11.1168 1.97123V1.97027ZM19.4102 17.2102C19.3363 16.7235 19.2614 16.2291 19.1865 15.7347C19.1135 15.2394 19.0415 14.745 18.9705 14.2573C18.9014 13.7696 18.8342 13.2896 18.7679 12.8259C18.7046 12.3613 18.6431 11.912 18.5855 11.4858C18.5299 11.0595 18.4761 10.6573 18.4281 10.2848C18.3311 9.53986 18.2611 8.91874 18.2063 8.48386C18.1814 8.2669 18.1622 8.09602 18.1487 7.9789C18.1363 7.86274 18.1295 7.80034 18.1295 7.80034C18.1295 7.80034 18.1411 7.86274 18.1622 7.97698C18.1833 8.09218 18.215 8.2621 18.2534 8.47714C18.3283 8.90818 18.4425 9.52354 18.5654 10.2637C18.6268 10.6333 18.6931 11.0346 18.7641 11.4589C18.8323 11.8832 18.9043 12.3306 18.9791 12.7943C19.0511 13.257 19.126 13.736 19.2019 14.2227C19.2758 14.7095 19.3507 15.2038 19.4246 15.6982C19.4966 16.1936 19.5695 16.688 19.6396 17.1757C19.6492 17.2429 19.6579 17.3053 19.6675 17.3725C19.5907 17.3782 19.5148 17.383 19.438 17.3888C19.4284 17.3283 19.4198 17.2707 19.4102 17.2093V17.2102ZM17.7225 5.27458C17.6217 4.59298 17.566 3.89315 17.7283 3.86915C17.8905 3.84515 18.0412 4.53059 18.142 5.21218C18.2438 5.89282 18.359 7.0237 18.1996 7.0477C18.0412 7.07074 17.8223 5.95618 17.7215 5.27458H17.7225ZM17.566 3.80771C17.566 3.80771 17.5699 3.79907 17.5804 3.78275C17.591 3.76835 17.6063 3.74531 17.6332 3.72131C17.6601 3.69731 17.6985 3.66755 17.7561 3.66275C17.8137 3.65699 17.8751 3.68579 17.9193 3.72803C17.9644 3.77027 18.0009 3.82307 18.0345 3.88067C18.0681 3.93827 18.0998 4.00163 18.1238 4.06883C18.1497 4.13603 18.1747 4.20419 18.1948 4.27619C18.2159 4.34723 18.2342 4.42115 18.2515 4.49411C18.2841 4.64099 18.3119 4.78883 18.3321 4.92899C18.3523 5.06818 18.3647 5.19874 18.3753 5.31106C18.3878 5.42338 18.3897 5.5165 18.3945 5.58178C18.3974 5.64802 18.3993 5.68546 18.3993 5.68546C18.3993 5.68546 18.3916 5.64898 18.3791 5.5837C18.3667 5.51938 18.3503 5.42722 18.3311 5.31682C18.3129 5.20642 18.287 5.07778 18.262 4.9405C18.2371 4.80323 18.2073 4.65634 18.1737 4.51138C18.1564 4.43843 18.1401 4.36642 18.1199 4.29634C18.1007 4.22626 18.0806 4.15715 18.0575 4.09187C18.0345 4.02563 18.0095 3.96419 17.9827 3.90659C17.9539 3.85091 17.9241 3.79811 17.8857 3.75779C17.8483 3.71843 17.8022 3.69155 17.7571 3.69059C17.711 3.69059 17.6716 3.71267 17.6447 3.73283C17.6169 3.75395 17.5977 3.77411 17.5852 3.78755C17.5737 3.80195 17.567 3.80963 17.567 3.80963L17.566 3.80771ZM23.5238 15.9296C23.5171 15.3584 23.5094 14.7863 23.5027 14.2247C23.4988 13.6621 23.494 13.1082 23.4892 12.5725C23.4873 12.0359 23.4854 11.5184 23.4835 11.0269C23.4835 10.5354 23.4835 10.0707 23.4844 9.64162C23.4854 8.78434 23.4979 8.0701 23.5007 7.56898C23.5046 7.31938 23.5075 7.12258 23.5094 6.98818C23.5123 6.85474 23.5132 6.78274 23.5132 6.78274C23.5132 6.78274 23.5171 6.85378 23.5228 6.98818C23.5295 7.12162 23.5372 7.31842 23.5487 7.56802C23.567 8.06818 23.6006 8.78146 23.6265 9.63874C23.6399 10.0669 23.6534 10.5315 23.6678 11.0221C23.6803 11.5136 23.6937 12.0311 23.7071 12.5667C23.7177 13.1034 23.7302 13.6563 23.7417 14.2189C23.7513 14.7814 23.7609 15.3526 23.7705 15.9248C23.7753 16.3386 23.7801 16.7494 23.7849 17.1613C23.7052 17.1632 23.6246 17.1661 23.5449 17.169C23.5382 16.7562 23.5305 16.3434 23.5238 15.9277V15.9296ZM23.2905 3.27203C23.2627 3.30083 23.2329 3.33059 23.2012 3.35843C23.1724 3.39011 23.1446 3.42275 23.1119 3.45251C23.0851 3.48707 23.0534 3.51875 23.0265 3.55331C23.0006 3.58883 22.9699 3.62147 22.9459 3.65699C22.9334 3.67523 22.9209 3.69251 22.9075 3.70979C22.8959 3.72707 22.8844 3.74531 22.8729 3.76259C22.8479 3.79715 22.8297 3.83267 22.8067 3.86627C22.7884 3.89987 22.7673 3.93251 22.7519 3.96323C22.7164 4.02467 22.6915 4.07939 22.6713 4.11875C22.6521 4.15907 22.6415 4.18211 22.6415 4.18211C22.6415 4.18211 22.631 4.15811 22.6223 4.11299C22.6185 4.09091 22.6137 4.06307 22.6137 4.03139C22.6118 3.99971 22.6108 3.96419 22.6147 3.92483C22.6166 3.88547 22.6252 3.84419 22.6339 3.80003C22.6463 3.75683 22.6569 3.70979 22.678 3.66467C22.6953 3.61859 22.7183 3.57251 22.7452 3.52739C22.7683 3.48131 22.8038 3.44099 22.8345 3.39779C22.8691 3.35747 22.9055 3.32003 22.943 3.28355C22.9823 3.24995 23.0227 3.21923 23.062 3.18947C23.1043 3.16451 23.1446 3.14051 23.1839 3.12035C23.2233 3.09923 23.2636 3.08675 23.3001 3.07331C23.3711 3.04547 23.4374 3.03779 23.4815 3.03107C23.5257 3.02531 23.5516 3.02435 23.5516 3.02435C23.5516 3.02435 23.5343 3.04451 23.5017 3.07523C23.4854 3.09059 23.4671 3.10883 23.4441 3.12803C23.4211 3.14627 23.398 3.17123 23.3721 3.19523C23.3471 3.22115 23.3164 3.24515 23.2886 3.27299L23.2905 3.27203ZM23.1091 5.85826C23.0726 5.84386 23.0169 5.83426 22.9526 5.7997C22.9199 5.78434 22.8825 5.76706 22.8422 5.74594C22.8047 5.72386 22.7644 5.69794 22.7203 5.6701C22.6771 5.6413 22.6358 5.60578 22.5887 5.57026C22.5436 5.53378 22.5033 5.4877 22.4572 5.44258C22.4159 5.39458 22.3718 5.34274 22.3295 5.28706C22.2911 5.2285 22.2479 5.16994 22.2163 5.10178C22.1433 4.97122 22.0915 4.81954 22.0559 4.65826C22.0214 4.49603 22.0156 4.32323 22.031 4.14947C22.0435 4.06211 22.0531 3.97475 22.079 3.89027C22.0905 3.84707 22.1011 3.80387 22.1183 3.76259L22.1414 3.70019L22.1529 3.66947L22.1587 3.65315L22.1615 3.64547L22.1625 3.64163L22.1635 3.63971L22.1673 3.63011C22.2067 3.55715 22.2335 3.48995 22.2883 3.40835C22.3353 3.32675 22.3929 3.26051 22.4486 3.19331C22.5657 3.06371 22.6982 2.95139 22.8403 2.86691C22.9823 2.78435 23.1292 2.71811 23.2751 2.68355C23.3462 2.66147 23.4191 2.65283 23.4883 2.64131C23.5574 2.63363 23.6255 2.63075 23.6889 2.62883C23.7532 2.63267 23.8147 2.63075 23.8723 2.64035C23.9299 2.64995 23.9846 2.65667 24.0345 2.66819C24.0844 2.68163 24.1305 2.69315 24.1727 2.70659C24.214 2.72291 24.2515 2.73827 24.2851 2.75171C24.3532 2.77475 24.4003 2.81027 24.4348 2.82755C24.4684 2.84675 24.4867 2.85731 24.4867 2.85731C24.4867 2.85731 24.4665 2.85347 24.4291 2.84579C24.3916 2.83907 24.3388 2.82179 24.2678 2.81507C24.2332 2.81123 24.1948 2.80643 24.1535 2.80067C24.1113 2.79971 24.0671 2.79683 24.0201 2.79395C23.9721 2.79203 23.9212 2.79779 23.8694 2.79971C23.8166 2.80259 23.7619 2.81219 23.7052 2.81891C23.5929 2.84099 23.4729 2.87075 23.3529 2.92067C23.2319 2.96579 23.1148 3.03587 23.0015 3.11363C22.8883 3.19331 22.7875 3.29411 22.6934 3.40259C22.6502 3.46019 22.6051 3.51779 22.5715 3.57635C22.535 3.62627 22.5014 3.70595 22.4668 3.77507V3.77699L22.4659 3.78083L22.463 3.78659L22.4582 3.80003L22.4486 3.82499L22.4284 3.87683C22.414 3.91043 22.4054 3.94499 22.3958 3.98051C22.3737 4.04963 22.3622 4.12163 22.3487 4.19171C22.3324 4.33379 22.3276 4.47683 22.3449 4.61507C22.3651 4.75138 22.3929 4.88386 22.4419 5.00386C22.486 5.12578 22.5455 5.2333 22.606 5.33122C22.6396 5.3773 22.6703 5.42338 22.7039 5.46466C22.7385 5.50402 22.7702 5.5453 22.8028 5.5789C22.8364 5.61154 22.87 5.64322 22.8988 5.67298C22.9305 5.69986 22.9593 5.72386 22.9862 5.74594C23.038 5.79202 23.0889 5.82082 23.1187 5.84386C23.1503 5.8669 23.1667 5.87842 23.1667 5.87842C23.1667 5.87842 23.1475 5.87266 23.111 5.86114L23.1091 5.85826ZM27.4751 16.8541C27.5539 16.4077 27.6345 15.9613 27.7123 15.5226C27.7919 15.0829 27.8707 14.6519 27.9455 14.2333C28.0233 13.8157 28.0991 13.4115 28.1702 13.0285C28.2431 12.6464 28.3123 12.2835 28.3766 11.9495C28.5043 11.2823 28.6195 10.7264 28.6963 10.3376C28.7366 10.1427 28.7673 9.9901 28.7894 9.88642C28.8114 9.78274 28.823 9.72706 28.823 9.72706C28.823 9.72706 28.8153 9.78274 28.8009 9.88834C28.7855 9.99394 28.7634 10.1485 28.7346 10.3443C28.6742 10.737 28.5945 11.2986 28.4879 11.9696C28.4342 12.3056 28.3756 12.6695 28.3151 13.0544C28.2518 13.4384 28.1855 13.8435 28.1164 14.264C28.0454 14.6835 27.9724 15.1155 27.8985 15.5562C27.8227 15.9958 27.7449 16.4422 27.6681 16.8896C27.6556 16.9597 27.6431 17.0298 27.6306 17.1008C27.5663 17.1008 27.4982 17.1008 27.4329 17.1008C27.4473 17.0192 27.4617 16.9376 27.4751 16.855V16.8541ZM28.6444 8.94466C28.6185 8.92834 28.5772 8.91298 28.5311 8.87746C28.5081 8.85922 28.4812 8.84098 28.4534 8.8189C28.4265 8.79586 28.3996 8.76994 28.3699 8.7421C28.3411 8.7133 28.3142 8.6797 28.2825 8.64514C28.2527 8.60962 28.2278 8.56738 28.199 8.5261C28.174 8.48194 28.1471 8.43586 28.1222 8.38594C28.101 8.33506 28.077 8.28322 28.0617 8.22562C28.0242 8.1133 28.007 7.98658 28.0031 7.85602C28.0002 7.7245 28.0214 7.58914 28.0588 7.4557C28.0809 7.39042 28.102 7.32322 28.1346 7.26082C28.149 7.22914 28.1644 7.19746 28.1836 7.1677L28.2105 7.12258L28.2239 7.1005L28.2306 7.08898L28.2345 7.08322L28.2364 7.08034V7.07842L28.2412 7.0717C28.2825 7.01986 28.3142 6.97186 28.3689 6.91618C28.4178 6.85954 28.4726 6.81634 28.5254 6.77218C28.6367 6.68866 28.7558 6.6205 28.8796 6.57538C29.0025 6.53218 29.1263 6.50242 29.2454 6.49762C29.3039 6.4909 29.3625 6.49474 29.4182 6.4957C29.4729 6.5005 29.5266 6.50914 29.5766 6.51682C29.6265 6.5293 29.6745 6.53698 29.7177 6.55234C29.7609 6.56866 29.8022 6.5821 29.8396 6.59938C29.877 6.61666 29.9116 6.63298 29.9423 6.6493C29.9711 6.66754 29.999 6.68578 30.023 6.70114C30.0729 6.72994 30.1036 6.7645 30.1276 6.78274C30.1506 6.80194 30.1631 6.8125 30.1631 6.8125C30.1631 6.8125 30.1487 6.80674 30.1199 6.79426C30.0911 6.7837 30.0527 6.76258 29.999 6.74722C29.9731 6.73858 29.9442 6.72898 29.9116 6.71842C29.879 6.7117 29.8454 6.7021 29.8089 6.69346C29.7714 6.68482 29.7311 6.68098 29.6898 6.67426C29.6486 6.6685 29.6044 6.6685 29.5593 6.66466C29.4681 6.66562 29.3702 6.67042 29.2703 6.69154C29.1695 6.70882 29.0678 6.74626 28.9679 6.78946C28.8681 6.83458 28.774 6.89794 28.6847 6.96898C28.6425 7.00738 28.5993 7.04578 28.5647 7.0861C28.5292 7.1197 28.4908 7.17634 28.4524 7.22434V7.2253L28.4514 7.22818L28.4486 7.23298L28.4428 7.24162L28.4313 7.26082L28.4083 7.2973C28.3919 7.3213 28.3795 7.34722 28.367 7.37314C28.3391 7.42402 28.3199 7.47778 28.2988 7.53154C28.2652 7.64002 28.2403 7.75042 28.2335 7.85986C28.2287 7.9693 28.2307 8.07778 28.2518 8.17666C28.2681 8.27842 28.2979 8.37154 28.3305 8.45698C28.3507 8.49826 28.367 8.53858 28.3871 8.57506C28.4082 8.61154 28.4265 8.64802 28.4466 8.67874C28.4678 8.71042 28.4889 8.73922 28.5081 8.76706C28.5282 8.79202 28.5475 8.81602 28.5647 8.83714C28.5983 8.8813 28.6339 8.9101 28.6531 8.93314C28.6742 8.95522 28.6857 8.96674 28.6857 8.96674C28.6857 8.96674 28.6713 8.95906 28.6444 8.94466ZM29.3644 6.83362C29.349 6.84322 29.3318 6.85474 29.3116 6.86626C29.2914 6.87778 29.2694 6.89314 29.2454 6.9085C29.2214 6.92386 29.1954 6.93826 29.1686 6.9565C29.1427 6.97474 29.1148 6.99298 29.087 7.01026C29.0601 7.03138 29.0322 7.05154 29.0034 7.07074C28.9766 7.09378 28.9487 7.11394 28.9219 7.13602C28.8959 7.16002 28.8671 7.18018 28.8431 7.20514C28.8316 7.21762 28.8182 7.22914 28.8057 7.2397C28.7942 7.25218 28.7826 7.26466 28.7702 7.27618C28.7462 7.29922 28.726 7.32418 28.7039 7.34722C28.6847 7.37122 28.6627 7.3933 28.6463 7.41538C28.6098 7.45762 28.582 7.49698 28.5609 7.52386C28.5398 7.55266 28.5273 7.56802 28.5273 7.56802C28.5273 7.56802 28.5234 7.54786 28.5234 7.51138C28.5234 7.49314 28.5235 7.47106 28.5283 7.4461C28.5321 7.42114 28.5369 7.3933 28.5455 7.36258C28.5532 7.33282 28.5666 7.3021 28.5791 7.2685C28.5954 7.23682 28.6108 7.2013 28.6339 7.16962C28.654 7.13602 28.679 7.10338 28.7068 7.07266C28.7318 7.03906 28.7654 7.0141 28.7961 6.98434C28.8287 6.95842 28.8633 6.93442 28.8969 6.91138C28.9324 6.89026 28.9679 6.87202 29.0034 6.8557C29.039 6.8413 29.0745 6.82978 29.1081 6.81922C29.1417 6.80962 29.1753 6.80482 29.206 6.80002C29.2655 6.7885 29.3183 6.7933 29.3538 6.79426C29.3894 6.79618 29.4095 6.79906 29.4095 6.79906C29.4095 6.79906 29.3932 6.8125 29.3634 6.8317L29.3644 6.83362ZM32.7119 15.6896C32.7618 15.0243 32.8118 14.359 32.8607 13.7043C32.9116 13.0506 32.9625 12.4055 33.0105 11.7834C33.0623 11.1594 33.1122 10.5575 33.1593 9.98626C33.2092 9.41506 33.2562 8.87554 33.2994 8.3773C33.3868 7.37986 33.4722 6.55138 33.526 5.96962C33.5558 5.6797 33.5788 5.45122 33.5942 5.2957C33.6105 5.14018 33.6191 5.05762 33.6191 5.05762C33.6191 5.05762 33.6162 5.14114 33.6095 5.29762C33.6028 5.4541 33.5922 5.68354 33.5798 5.97442C33.549 6.55714 33.5145 7.39042 33.4578 8.38882C33.429 8.88802 33.3974 9.42946 33.3647 10.0016C33.3292 10.5738 33.2918 11.1767 33.2534 11.8007C33.2121 12.4247 33.1689 13.0688 33.1257 13.7245C33.0796 14.3792 33.0335 15.0445 32.9874 15.7098C32.95 16.2147 32.9116 16.7158 32.8742 17.216C32.7858 17.2122 32.6956 17.2074 32.6082 17.2035C32.6428 16.7014 32.6783 16.1974 32.7138 15.6906L32.7119 15.6896ZM33.263 3.94307C33.2246 3.92291 33.1641 3.90659 33.0959 3.86051C33.0604 3.83843 33.021 3.81539 32.9788 3.78851C32.9394 3.75875 32.8972 3.72419 32.8511 3.68771C32.807 3.65027 32.7647 3.60515 32.7167 3.55907C32.6706 3.51299 32.6303 3.45443 32.5833 3.39779C32.542 3.33731 32.4978 3.27395 32.4585 3.20387C32.422 3.13283 32.3807 3.05987 32.3519 2.97827C32.2847 2.81891 32.2434 2.63747 32.2194 2.44643C32.1974 2.25539 32.2089 2.05379 32.2425 1.85219C32.2655 1.75331 32.2847 1.65155 32.3222 1.55555C32.3385 1.50659 32.3548 1.45763 32.3778 1.41155L32.4095 1.34051L32.4258 1.30595L32.4345 1.28771L32.4383 1.27907L32.4402 1.27523L32.4412 1.27331L32.447 1.26275C32.4978 1.18115 32.5343 1.10531 32.6034 1.01603C32.6639 0.92579 32.735 0.85475 32.8022 0.78083C32.9462 0.64163 33.1026 0.523551 33.2678 0.439071C33.4338 0.356511 33.6018 0.294111 33.767 0.268191C33.8476 0.248991 33.9292 0.246111 34.007 0.239391C34.0838 0.237471 34.1596 0.241311 34.2306 0.244191C34.3017 0.255711 34.3689 0.259551 34.4322 0.274911C34.4946 0.293151 34.5542 0.304671 34.6089 0.323871C34.6626 0.344991 34.7126 0.362271 34.7577 0.38243C34.8009 0.40547 34.8412 0.425631 34.8777 0.445791C34.9506 0.479391 34.9996 0.52547 35.0361 0.54755C35.0706 0.57251 35.0898 0.586911 35.0898 0.586911C35.0898 0.586911 35.0678 0.58019 35.0265 0.56771C34.9852 0.55523 34.9286 0.53123 34.8518 0.51683C34.8143 0.50819 34.773 0.49859 34.727 0.48899C34.6799 0.48419 34.631 0.475551 34.5782 0.46883C34.5263 0.462111 34.4697 0.463071 34.4111 0.460191C34.3526 0.459231 34.2902 0.464031 34.2278 0.465951C34.1001 0.480351 33.9647 0.50339 33.8274 0.55043C33.6892 0.58979 33.5529 0.65987 33.4194 0.73955C33.286 0.82115 33.1641 0.92963 33.0498 1.04579C32.9961 1.10819 32.9404 1.17155 32.8982 1.23587C32.853 1.28963 32.8079 1.37987 32.7618 1.45667L32.7609 1.45859L32.7599 1.46243L32.7561 1.46915L32.7494 1.48355L32.7359 1.51235L32.709 1.56995C32.6898 1.60739 32.6764 1.64771 32.662 1.68707C32.6313 1.76579 32.6102 1.84739 32.589 1.92899C32.5564 2.09219 32.5362 2.25827 32.543 2.41955C32.5516 2.57987 32.5679 2.73731 32.6102 2.88131C32.6466 3.02627 32.7023 3.15779 32.759 3.27779C32.7926 3.33347 32.8214 3.39107 32.853 3.44195C32.8876 3.49187 32.9174 3.54179 32.951 3.58499C32.9855 3.62723 33.0182 3.66563 33.047 3.70403C33.0796 3.73859 33.1094 3.76931 33.1362 3.79811C33.189 3.85763 33.2428 3.89603 33.2735 3.92483C33.3062 3.95363 33.3234 3.96995 33.3234 3.96995C33.3234 3.96995 33.3023 3.96035 33.263 3.94403V3.94307ZM33.9782 0.74435C33.959 0.76067 33.9359 0.78083 33.909 0.80099C33.8822 0.82019 33.8543 0.84707 33.8226 0.87299C33.7919 0.90083 33.7564 0.92483 33.7228 0.95459C33.6892 0.98531 33.6537 1.01699 33.6162 1.04579C33.5817 1.08035 33.5462 1.11491 33.5087 1.14659C33.4751 1.18403 33.4377 1.21859 33.4041 1.25507C33.3714 1.29347 33.335 1.32803 33.3052 1.36835C33.2898 1.38755 33.2735 1.40675 33.2572 1.42595C33.2428 1.44515 33.2274 1.46531 33.213 1.48355C33.1823 1.52099 33.1583 1.56131 33.1305 1.59779C33.1074 1.63523 33.0806 1.67075 33.0594 1.70531C33.0143 1.77251 32.9807 1.83395 32.9548 1.87715C32.9298 1.92227 32.9154 1.94819 32.9154 1.94819C32.9154 1.94819 32.9068 1.91843 32.902 1.86563C32.9001 1.83971 32.8972 1.80707 32.9001 1.76963C32.901 1.73219 32.9039 1.69091 32.9126 1.64579C32.9183 1.60067 32.9327 1.55363 32.9462 1.50275C32.9644 1.45379 32.9807 1.40003 33.0086 1.35011C33.0326 1.29731 33.0623 1.24643 33.0969 1.19747C33.1276 1.14563 33.1708 1.10243 33.2092 1.05539C33.2514 1.01219 33.2966 0.97187 33.3407 0.93347C33.3878 0.89795 33.4358 0.86627 33.4818 0.83555C33.5308 0.80963 33.5788 0.78755 33.623 0.76643C33.669 0.74627 33.7151 0.73571 33.7564 0.72227C33.839 0.69731 33.9129 0.69443 33.9609 0.69155C34.0108 0.68867 34.0406 0.689631 34.0406 0.689631C34.0406 0.689631 34.0185 0.71267 33.9801 0.74435H33.9782ZM38.6361 17.3686C38.7705 16.8829 38.9058 16.3971 39.0383 15.919C39.1727 15.441 39.3052 14.9715 39.4338 14.5165C39.5634 14.0615 39.6892 13.6227 39.8092 13.2061C39.9302 12.7904 40.0444 12.3968 40.151 12.0349C40.3622 11.3082 40.5484 10.7063 40.6742 10.2839C40.7385 10.0727 40.7894 9.90658 40.8239 9.79426C40.8594 9.68098 40.8777 9.6205 40.8777 9.6205C40.8777 9.6205 40.8633 9.68194 40.8354 9.79618C40.8066 9.91138 40.7663 10.0784 40.7135 10.2935C40.605 10.7207 40.4562 11.3331 40.2662 12.0656C40.1711 12.4314 40.0684 12.8279 39.959 13.2474C39.8486 13.6669 39.7314 14.1075 39.6114 14.5645C39.4886 15.0215 39.3618 15.4928 39.2332 15.9718C39.1026 16.4509 38.9702 16.9366 38.8367 17.4234C38.8156 17.4982 38.7954 17.5731 38.7743 17.648C38.7052 17.6413 38.6361 17.6336 38.567 17.6259C38.591 17.5395 38.614 17.4541 38.637 17.3677L38.6361 17.3686ZM40.6655 8.6557C40.6434 8.63458 40.6166 8.61154 40.5897 8.58466C40.5647 8.55682 40.5388 8.52514 40.511 8.49154C40.4831 8.45794 40.4591 8.41762 40.4303 8.37634C40.4025 8.3341 40.3814 8.2861 40.3545 8.23714C40.3334 8.18626 40.3103 8.1325 40.2902 8.0749C40.2738 8.01634 40.2537 7.95586 40.2441 7.89154C40.2172 7.76386 40.2143 7.62274 40.2249 7.47778C40.2374 7.33282 40.2748 7.18402 40.3295 7.04002C40.3612 6.96994 40.39 6.89794 40.4322 6.8317C40.4514 6.7981 40.4706 6.76354 40.4946 6.73282L40.5282 6.68578L40.5455 6.66274L40.5542 6.65026L40.558 6.6445L40.5599 6.64162L40.5609 6.6397L40.5666 6.63298C40.6166 6.58018 40.654 6.53026 40.7193 6.47362C40.7778 6.41506 40.8402 6.37282 40.9007 6.32866C41.0265 6.24706 41.1609 6.18178 41.2962 6.14434C41.4316 6.10786 41.565 6.08674 41.6918 6.09058C41.7551 6.08866 41.8156 6.09922 41.8741 6.10498C41.9318 6.11458 41.9865 6.12802 42.0393 6.14146C42.0902 6.1597 42.1391 6.17314 42.1842 6.19426C42.2284 6.21634 42.2706 6.23458 42.3081 6.25666C42.3446 6.28066 42.3791 6.30082 42.4098 6.32194C42.4386 6.34498 42.4655 6.3661 42.4895 6.38626C42.5385 6.42274 42.5673 6.46402 42.5913 6.4861C42.6134 6.5101 42.6249 6.52258 42.6249 6.52258C42.6249 6.52258 42.6095 6.51394 42.5807 6.49954C42.5519 6.48514 42.5135 6.45826 42.4588 6.43522C42.4319 6.4237 42.4031 6.41026 42.3705 6.39586C42.3369 6.3853 42.3013 6.37282 42.2639 6.35938C42.2255 6.3469 42.1833 6.33922 42.1401 6.3277C42.0969 6.3181 42.0508 6.3133 42.0028 6.30466C41.9068 6.29698 41.8022 6.2941 41.6946 6.3085C41.5862 6.3181 41.4748 6.34978 41.3644 6.38914C41.254 6.43042 41.1474 6.49186 41.0447 6.56194C40.9958 6.6013 40.9449 6.6397 40.9046 6.68098C40.8633 6.71458 40.8162 6.7741 40.7711 6.82498H40.7702L40.7682 6.82786L40.7644 6.83362L40.7577 6.84322L40.7433 6.86242L40.7145 6.90082C40.6943 6.92578 40.679 6.95362 40.6626 6.98146C40.6281 7.03426 40.6002 7.09186 40.5734 7.1485C40.5254 7.26562 40.486 7.38466 40.4668 7.50562C40.4486 7.62658 40.439 7.74562 40.4486 7.85794C40.4543 7.97122 40.4754 8.07682 40.5004 8.17378C40.5167 8.22082 40.5292 8.2669 40.5465 8.3101C40.5647 8.35234 40.5791 8.39362 40.5974 8.4301C40.6166 8.46658 40.6358 8.50018 40.6521 8.53282C40.6713 8.56258 40.6876 8.59042 40.7039 8.61538C40.7346 8.66722 40.7682 8.7037 40.7865 8.72962C40.8057 8.7565 40.8162 8.7709 40.8162 8.7709C40.8162 8.7709 40.8018 8.76034 40.7759 8.7421C40.75 8.72194 40.7078 8.70082 40.6636 8.65666L40.6655 8.6557ZM41.7801 6.47554C41.7628 6.48514 41.7436 6.49666 41.7206 6.50722C41.6975 6.51778 41.6726 6.5341 41.6457 6.5485C41.6188 6.56386 41.589 6.57634 41.5593 6.59362C41.5295 6.61186 41.4988 6.62914 41.4671 6.64642C41.4364 6.66658 41.4047 6.68674 41.3721 6.70498C41.3423 6.72802 41.3087 6.74722 41.279 6.77026C41.2492 6.79426 41.2166 6.81442 41.1887 6.83938C41.1743 6.8509 41.1599 6.86242 41.1446 6.87394C41.1311 6.88642 41.1167 6.8989 41.1033 6.91138C41.0754 6.93442 41.0514 6.96034 41.0255 6.98242C41.0025 7.00738 40.9775 7.02946 40.9583 7.0525C40.9142 7.0957 40.8806 7.13602 40.8546 7.16482C40.8297 7.19458 40.8153 7.2109 40.8153 7.2109C40.8153 7.2109 40.8134 7.18786 40.8172 7.14754C40.8201 7.12834 40.823 7.10338 40.8306 7.0765C40.8374 7.04866 40.845 7.01794 40.8575 6.98626C40.869 6.95362 40.8863 6.92098 40.9046 6.8845C40.9247 6.8509 40.9458 6.81346 40.9727 6.78082C40.9977 6.7453 41.0274 6.7117 41.0601 6.68002C41.0908 6.64642 41.1292 6.6205 41.1647 6.5917C41.2022 6.56482 41.2415 6.54274 41.2799 6.52066C41.3193 6.50146 41.3596 6.48514 41.399 6.46882C41.4393 6.4573 41.4777 6.44674 41.5141 6.4381C41.5506 6.43042 41.5871 6.4285 41.6188 6.42562C41.6841 6.4189 41.7378 6.42754 41.7762 6.43234C41.8137 6.4381 41.8348 6.44386 41.8348 6.44386C41.8348 6.44386 41.8156 6.45634 41.782 6.47458L41.7801 6.47554ZM43.7663 18.3104C43.8661 17.9024 43.965 17.5002 44.0601 17.1114C44.157 16.7226 44.2501 16.3472 44.3394 15.991C44.4306 15.6358 44.517 15.2998 44.5957 14.9888C44.7551 14.3687 44.8972 13.8531 44.9922 13.4912C45.0412 13.3107 45.0806 13.1696 45.1065 13.0727C45.1334 12.9757 45.1477 12.9248 45.1477 12.9248C45.1477 12.9248 45.1372 12.9776 45.118 13.0755C45.0978 13.1744 45.069 13.3175 45.0316 13.5008C44.9538 13.8666 44.8492 14.3898 44.7119 15.0157C44.6437 15.3286 44.5689 15.6675 44.4901 16.0266C44.4105 16.3837 44.325 16.7619 44.2367 17.1526C44.1465 17.5424 44.0543 17.9466 43.9602 18.3565C43.9526 18.3882 43.9449 18.4198 43.9372 18.4506C43.8729 18.4362 43.8076 18.4227 43.7413 18.4083C43.75 18.3757 43.7577 18.343 43.7653 18.3094L43.7663 18.3104ZM46.8316 18.3795C47.0255 17.9763 47.2117 17.5875 47.3893 17.2179C47.5689 16.8493 47.7378 16.5018 47.8943 16.1792C48.2073 15.536 48.477 15.0051 48.6623 14.6307C48.7564 14.4455 48.8303 14.2986 48.8802 14.1987C48.9311 14.0989 48.958 14.0461 48.958 14.0461C48.958 14.0461 48.9349 14.1008 48.8908 14.2045C48.8466 14.3072 48.7813 14.4579 48.6988 14.649C48.5308 15.0311 48.2956 15.5782 48.0028 16.231C47.8569 16.5574 47.6985 16.9107 47.5305 17.2842C47.3605 17.6576 47.182 18.0502 46.9967 18.4573C46.8844 18.7002 46.7682 18.9546 46.6521 19.2061C46.5916 19.184 46.533 19.1619 46.4706 19.1398C46.5916 18.8845 46.7145 18.6262 46.8316 18.3805V18.3795ZM5.4374 24.8624C5.48828 24.8624 5.53916 24.8643 5.591 24.8682C12.9331 25.4086 20.2886 25.6784 27.6441 25.6784C33.7833 25.6784 39.9215 25.4787 46.0521 25.1024C46.0837 25.1043 46.1106 25.1062 46.1423 25.1082C46.3919 25.1206 46.6165 25.1677 46.8249 25.2368C46.4082 25.2762 45.9781 25.3174 45.5298 25.3597C41.1148 25.7619 35.2118 26.1718 29.2943 26.3725C23.3779 26.5885 17.4489 26.5942 13.0022 26.5011C10.7788 26.4598 8.927 26.3984 7.62908 26.3504C6.33212 26.2986 5.591 26.2698 5.591 26.2698C5.591 26.2698 6.32924 26.3427 7.6214 26.4694C8.91356 26.5942 10.7616 26.7651 12.9811 26.9389C17.4211 27.2941 23.3548 27.6397 29.302 27.7731C35.2492 27.9229 41.205 27.8624 45.6709 27.7203C46.7269 27.6829 47.6965 27.6483 48.5663 27.6176C48.8562 28.9462 48.8207 30.68 48.6508 32.5261C48.4626 32.8275 48.2697 33.1443 48.0738 33.4755C47.8713 33.8288 47.6485 34.1859 47.4469 34.5622C47.3932 34.6601 47.3375 34.7609 47.2837 34.8589C47.23 34.7609 47.1753 34.6601 47.1215 34.5622C46.9189 34.1849 46.6962 33.8278 46.4937 33.4755C46.0799 32.7737 45.6748 32.1286 45.31 31.5853C44.591 30.4937 44.0303 29.8083 44.0303 29.8083C44.0303 29.8083 44.2828 30.656 44.7839 31.8646C45.0306 32.4704 45.3369 33.1673 45.6853 33.9037C45.8639 34.2694 46.0348 34.6544 46.2335 35.0326C46.3871 35.3331 46.5436 35.6374 46.6991 35.9408C46.5426 36.2451 46.3861 36.5494 46.2325 36.8489C46.0319 37.2262 45.8629 37.6121 45.6834 37.9779C45.334 38.7133 45.0277 39.4112 44.782 40.0169C44.2809 41.2246 44.0303 42.0732 44.0303 42.0732C44.0303 42.0732 44.5919 41.3888 45.311 40.2973C45.6758 39.7539 46.0809 39.1097 46.4946 38.407C46.6972 38.0537 46.9209 37.6976 47.1215 37.3203C47.1753 37.2224 47.23 37.1216 47.2837 37.0237C47.3385 37.1225 47.3932 37.2224 47.4469 37.3203C47.6025 37.6121 47.7695 37.8915 47.9327 38.168C47.7925 39.223 47.6754 40.2099 47.6255 41.0624C47.5861 41.7305 47.4229 42.3123 47.1484 42.8182C46.2805 42.895 45.3167 42.9766 44.2665 43.0582C43.1366 43.1523 41.9106 43.2397 40.6137 43.3299C39.3167 43.424 37.9478 43.4988 36.5318 43.5853C33.6988 43.7417 30.6729 43.8713 27.6451 43.9635C24.6172 44.046 21.5865 44.0921 18.7449 44.0998C17.3241 44.095 15.9494 44.0998 14.6467 44.0797C13.344 44.0653 12.1113 44.0489 10.9737 44.0201C8.69852 43.9741 6.80348 43.9078 5.47676 43.856C4.14908 43.8022 3.39165 43.7724 3.39165 43.7724C3.39165 43.7724 4.14717 43.8473 5.46908 43.976C6.791 44.1046 8.68124 44.2803 10.9526 44.4579C12.0883 44.552 13.319 44.6403 14.6217 44.7296C15.9235 44.8246 17.2991 44.8995 18.7209 44.9869C21.5663 45.1433 24.6038 45.2729 27.6451 45.3651C30.6863 45.4467 33.7295 45.4928 36.5836 45.5004C38.0102 45.4956 39.3906 45.5004 40.6991 45.4803C41.4268 45.4716 42.1314 45.463 42.8111 45.4515C39.4146 46.2425 34.4793 46.1993 28.8239 46.1993C18.3484 46.1993 1.94589 46.7244 2.00349 44.3715C2.45277 38.5251 2.90205 32.6787 3.35133 26.8333C3.43773 25.7101 4.35548 24.8624 5.43836 24.8624H5.4374ZM48.1612 36.5101C48.0642 36.3209 47.9673 36.1318 47.8693 35.9408C48.0249 35.6365 48.1813 35.3321 48.3349 35.0326C48.3484 35.0067 48.3599 34.9808 48.3733 34.9558C48.3052 35.4781 48.2332 35.9974 48.1612 36.511V36.5101ZM5.69468 12.5859C5.69468 12.5859 5.68028 12.5735 5.66108 12.5466C5.65148 12.5331 5.63996 12.5168 5.63036 12.4967C5.61884 12.4775 5.60732 12.4535 5.59772 12.4275C5.58716 12.4016 5.57948 12.3719 5.5718 12.3411C5.56604 12.3095 5.55836 12.2749 5.5574 12.2403C5.55452 12.2048 5.55548 12.1683 5.55836 12.1309C5.56028 12.0935 5.56988 12.057 5.5766 12.0205C5.5862 11.9831 5.59868 11.9475 5.61116 11.913C5.62556 11.8794 5.64284 11.8467 5.65916 11.816C5.67836 11.7863 5.69756 11.7584 5.7158 11.7325C5.735 11.7066 5.75708 11.6864 5.77628 11.6663C5.81372 11.6259 5.85404 11.601 5.87996 11.5827C5.90684 11.5645 5.92316 11.5568 5.92316 11.5568C5.92316 11.5568 5.9174 11.5751 5.90684 11.6048C5.90108 11.6192 5.89436 11.6375 5.88572 11.6567C5.87708 11.6759 5.8694 11.6989 5.86076 11.7229C5.85212 11.7479 5.83964 11.7709 5.831 11.7987C5.82236 11.8256 5.8118 11.8535 5.80124 11.8823C5.7926 11.912 5.783 11.9408 5.77244 11.9706C5.76572 12.0013 5.75516 12.0311 5.74844 12.0618C5.74268 12.0925 5.73308 12.1232 5.72924 12.1539C5.72732 12.1693 5.72348 12.1847 5.7206 12.1991C5.71868 12.2144 5.71676 12.2298 5.71484 12.2442C5.70908 12.2739 5.70908 12.3037 5.70524 12.3315C5.70332 12.3594 5.69948 12.3863 5.69948 12.4112C5.69564 12.4621 5.69564 12.5053 5.69564 12.537C5.69564 12.5687 5.69564 12.5869 5.69564 12.5869L5.69468 12.5859ZM6.51644 13.5239C6.4886 13.5258 6.4502 13.5373 6.3974 13.5344C6.37052 13.5354 6.34172 13.5354 6.30908 13.5354C6.27836 13.5325 6.2438 13.5287 6.20732 13.5239C6.17084 13.5181 6.13244 13.5085 6.09212 13.4999C6.05084 13.4903 6.01052 13.473 5.96636 13.4586C5.92412 13.4403 5.87996 13.4211 5.8358 13.3981C5.7926 13.3722 5.74652 13.3472 5.70524 13.3136C5.61692 13.2512 5.53724 13.1696 5.46428 13.0765C5.39132 12.9824 5.33468 12.873 5.28956 12.7559C5.27036 12.6954 5.2502 12.6368 5.2406 12.5735C5.23484 12.5427 5.22812 12.5111 5.2262 12.4794L5.2214 12.4323L5.21948 12.4083L5.21852 12.3968L5.21756 12.3911V12.3882V12.3795C5.21948 12.32 5.2166 12.2682 5.2262 12.1981C5.23196 12.1309 5.24828 12.0704 5.26268 12.0099C5.2982 11.8899 5.34812 11.7757 5.41436 11.6778C5.4806 11.5799 5.55452 11.4925 5.63804 11.4243C5.6774 11.3879 5.72156 11.3591 5.76284 11.3303C5.80508 11.3043 5.84732 11.2823 5.8886 11.2602C5.9318 11.2429 5.97116 11.2227 6.01052 11.2103C6.0518 11.1987 6.08828 11.1853 6.12476 11.1786C6.16028 11.1719 6.19388 11.1651 6.22556 11.1603C6.25628 11.1575 6.28604 11.1565 6.31196 11.1546C6.3638 11.1488 6.40508 11.1575 6.43196 11.1575C6.4598 11.1594 6.47324 11.1603 6.47324 11.1603C6.47324 11.1603 6.45884 11.1632 6.43292 11.1709C6.40604 11.1776 6.36668 11.1843 6.31964 11.2016C6.29564 11.2083 6.26972 11.2179 6.24188 11.2275C6.21404 11.24 6.18524 11.2515 6.15356 11.265C6.12188 11.2784 6.09116 11.2986 6.05756 11.3149C6.02396 11.3331 5.99132 11.3562 5.95772 11.3783C5.89148 11.4272 5.82332 11.4829 5.76188 11.553C5.69756 11.6192 5.6438 11.7008 5.59484 11.7863C5.54684 11.8727 5.51324 11.9687 5.4854 12.0685C5.47484 12.1194 5.46428 12.1703 5.4614 12.2183C5.45276 12.2605 5.45564 12.3239 5.45468 12.3786V12.3824L5.45564 12.3872L5.4566 12.3968L5.45852 12.416L5.4614 12.4554C5.46236 12.4823 5.46716 12.5072 5.47292 12.5331C5.47964 12.585 5.495 12.6349 5.50844 12.6839C5.54108 12.7808 5.58236 12.8749 5.63708 12.9575C5.6918 13.0391 5.75132 13.1168 5.82044 13.1792C5.88668 13.2435 5.95868 13.2944 6.02876 13.3395C6.06428 13.3587 6.09884 13.3799 6.1334 13.3952C6.167 13.4096 6.19964 13.4269 6.23228 13.4384C6.26396 13.4499 6.29468 13.4595 6.32348 13.4701C6.35228 13.4778 6.3782 13.4845 6.4022 13.4903C6.4502 13.5037 6.49148 13.5066 6.5174 13.5123C6.54428 13.5171 6.55868 13.52 6.55868 13.52C6.55868 13.52 6.54428 13.5219 6.5174 13.5258L6.51644 13.5239ZM45.6277 10.7946C45.7631 10.2224 45.9417 9.6493 46.078 9.68194C46.2143 9.71362 46.1164 10.3059 45.9801 10.8781C45.8447 11.4503 45.5778 12.3834 45.4434 12.3517C45.31 12.32 45.4905 11.3677 45.6268 10.7946H45.6277ZM45.9887 9.5677C46.0012 9.55906 46.0204 9.54562 46.0501 9.5341C46.0789 9.5245 46.1183 9.51298 46.1653 9.52738C46.2124 9.54178 46.2527 9.58402 46.2738 9.63106C46.2969 9.67906 46.3084 9.73282 46.318 9.7885C46.3257 9.84514 46.3305 9.90466 46.3285 9.9661C46.3285 10.0266 46.3257 10.0899 46.3189 10.1533C46.3132 10.2167 46.3046 10.28 46.2949 10.3434C46.2748 10.4711 46.2498 10.5959 46.2201 10.713C46.1932 10.8301 46.1615 10.9376 46.1337 11.0298C46.1077 11.1219 46.0799 11.1987 46.0626 11.2515C46.0434 11.3053 46.0329 11.3351 46.0329 11.3351C46.0329 11.3351 46.0386 11.3034 46.0492 11.2487C46.0607 11.1939 46.0761 11.1152 46.0962 11.0221C46.1164 10.928 46.1375 10.8176 46.1605 10.7015C46.1836 10.5834 46.2076 10.4586 46.2268 10.3328C46.2364 10.2704 46.246 10.208 46.2517 10.1456C46.2585 10.0832 46.2652 10.0227 46.2671 9.96322C46.2709 9.90466 46.27 9.84706 46.2661 9.79234C46.2613 9.73858 46.2537 9.6877 46.2364 9.6445C46.2191 9.6013 46.1922 9.56578 46.1557 9.55042C46.1202 9.53506 46.0809 9.53986 46.053 9.54754C46.0242 9.55522 46.0031 9.56578 45.9887 9.5725C45.9743 9.57922 45.9676 9.58402 45.9676 9.58402C45.9676 9.58402 45.9743 9.57826 45.9868 9.56962L45.9887 9.5677ZM49.9669 11.8266C50.2444 11.2323 50.565 10.6439 50.6917 10.7034C50.8185 10.7629 50.5737 11.385 50.2953 11.9802C50.0169 12.5754 49.5196 13.5363 49.3948 13.4778C49.27 13.4202 49.6885 12.4218 49.966 11.8266H49.9669ZM50.6322 10.5642C50.6466 10.5565 50.6697 10.5459 50.7013 10.5392C50.7321 10.5335 50.7743 10.5287 50.8175 10.5527C50.8607 10.5757 50.8895 10.6285 50.8991 10.6832C50.9097 10.7389 50.9077 10.7994 50.9029 10.8618C50.8962 10.9242 50.8866 10.9895 50.8693 11.0547C50.854 11.121 50.8357 11.1891 50.8137 11.2554C50.7925 11.3226 50.7666 11.3898 50.7426 11.4579C50.6898 11.5914 50.6341 11.7229 50.5756 11.8439C50.5199 11.9648 50.4613 12.0771 50.4114 12.1712C50.3625 12.2672 50.3154 12.3431 50.2857 12.3978C50.254 12.4515 50.2357 12.4823 50.2357 12.4823C50.2357 12.4823 50.2492 12.4496 50.2741 12.392C50.2991 12.3344 50.3346 12.2528 50.3769 12.1549C50.4201 12.057 50.4681 11.9418 50.5209 11.8189C50.5737 11.696 50.6274 11.5655 50.6783 11.433C50.7033 11.3667 50.7292 11.3015 50.7503 11.2343C50.7724 11.168 50.7945 11.1037 50.8108 11.0394C50.829 10.976 50.8434 10.9146 50.853 10.8551C50.8617 10.7965 50.8674 10.7399 50.8607 10.6899C50.8549 10.64 50.8357 10.5968 50.8041 10.5738C50.7724 10.5507 50.733 10.5498 50.7023 10.5527C50.6725 10.5565 50.6485 10.5623 50.6332 10.5671C50.6169 10.5728 50.6092 10.5757 50.6092 10.5757C50.6092 10.5757 50.6169 10.5709 50.6322 10.5642ZM54.5577 35.6566L53.8674 26.6845C53.7119 24.6541 52.0674 23.0518 50.0773 22.9386C50.0773 22.7187 50.0773 22.4883 50.0773 22.2349C50.0773 21.0118 48.9061 20.071 47.0553 19.3501C47.8722 17.6182 48.7065 15.8586 49.3775 14.4608C49.5753 14.0509 49.8517 13.5978 50.0073 13.3088C50.2156 12.921 50.5727 12.1664 50.7781 11.7287C51.4981 10.1888 51.0575 9.99682 51.0297 9.98338C51.0009 9.96994 50.5717 9.75586 49.8517 11.2957C49.6463 11.7344 49.294 12.5005 49.1289 12.9114C49.0079 13.2157 48.837 13.7178 48.6498 14.1306C48.0009 15.5571 47.1762 17.3485 46.3641 19.1014C45.7468 18.896 45.07 18.7117 44.35 18.5437C44.7973 16.688 45.2706 14.7392 45.6489 13.2282C45.7477 12.8336 45.9138 12.3863 46.0002 12.105C46.1154 11.7287 46.2921 11.001 46.3929 10.5795C46.7452 9.0973 46.2748 8.99746 46.245 8.98978C46.2153 8.98306 45.7506 8.86018 45.3983 10.3424C45.2985 10.7658 45.1276 11.5011 45.0604 11.8919C45.0105 12.1808 44.9596 12.6541 44.8703 13.0506C44.5276 14.5722 44.0745 16.5277 43.6396 18.3872C42.2639 18.1002 40.7548 17.8736 39.1958 17.695C39.911 15.1203 40.7385 12.1559 41.3634 9.97186C41.4402 9.70402 41.541 9.41506 41.6342 9.15682C42.3033 9.13186 42.9186 8.65474 43.1135 7.94434C43.3526 7.0765 42.8764 6.18754 42.0498 5.96002C41.2233 5.7325 40.3593 6.25186 40.1202 7.12066C39.9244 7.83106 40.2086 8.55394 40.7702 8.9197C40.7174 9.19138 40.6559 9.49474 40.5839 9.76738C39.9954 11.9936 39.1756 15.0157 38.4652 17.6163C36.7871 17.4426 35.0726 17.3206 33.4271 17.24C33.7074 13.4557 34.0626 8.7517 34.3391 5.38882C34.3698 5.02114 34.4265 4.62082 34.4802 4.26083C35.3433 4.05539 36.0172 3.27875 36.0873 2.30531C36.1737 1.11683 35.326 0.0877109 34.1951 0.00515098C33.0633 -0.0764489 32.0764 0.82115 31.991 2.00867C31.9199 2.98115 32.4748 3.84707 33.2985 4.17443C33.2994 4.54211 33.2994 4.95107 33.2764 5.32354C33.0662 8.69602 32.7398 13.4115 32.4719 17.1968C30.8639 17.1315 29.351 17.1046 28.0319 17.0998C28.4514 14.7335 28.9401 12.0109 29.3135 10.0026C29.3587 9.75586 29.4259 9.48994 29.4883 9.24994C30.1142 9.17602 30.6441 8.69986 30.7593 8.0461C30.8994 7.24834 30.3657 6.48802 29.5679 6.34786C28.7702 6.20866 28.0098 6.74242 27.8697 7.53922C27.7554 8.19202 28.0915 8.81986 28.655 9.1021C28.6319 9.35074 28.6041 9.62818 28.5628 9.87778C28.2268 11.9255 27.7506 14.7056 27.3359 17.0979C26.4057 17.0998 25.3775 17.1142 24.2841 17.145C24.2428 13.9021 24.1967 9.88642 24.1852 7.0093C24.1843 6.6925 24.2044 6.3469 24.2246 6.03586C24.982 5.79586 25.5273 5.08162 25.5148 4.24547C25.5004 3.22499 24.6595 2.40899 23.639 2.42339C22.6175 2.43875 21.8025 3.27875 21.8169 4.30019C21.8294 5.13538 22.3939 5.83234 23.158 6.05122C23.1878 6.36418 23.2185 6.71362 23.2262 7.0333C23.2991 9.91138 23.3711 13.9299 23.4239 17.1718C22.3699 17.2093 21.2707 17.2611 20.1551 17.3341C19.7289 14.4301 19.1721 10.5959 18.8044 7.9069C18.7391 7.43362 18.7267 6.87586 18.6979 6.53218C18.6585 6.07234 18.5347 5.2045 18.4598 4.70243C18.1977 2.93795 17.6438 3.03299 17.6073 3.03875C17.5708 3.04451 17.0131 3.11459 17.2751 4.87906C17.35 5.38306 17.4854 6.25666 17.5823 6.71074C17.6534 7.04674 17.8041 7.58338 17.879 8.05378C18.3062 10.713 18.8822 14.5021 19.3171 17.3936C17.5324 17.5251 15.7353 17.7104 14.0438 17.9629C13.5657 14.4829 13.0348 10.5767 12.6576 7.65538C12.574 7.00642 12.552 6.2413 12.5136 5.76994C12.4617 5.13922 12.3004 3.94499 12.2044 3.25475C11.8646 0.828831 11.182 0.94307 11.1379 0.94883C11.0937 0.95555 10.4054 1.03427 10.7452 3.45923C10.8422 4.15139 11.016 5.35234 11.1398 5.97922C11.232 6.44194 11.4211 7.1821 11.519 7.82818C11.9577 10.7447 12.5212 14.6499 13.0166 18.129C11.9232 18.3162 10.8931 18.536 9.959 18.7923C9.12476 17.1085 8.24348 15.319 7.57052 13.9347C7.47164 13.7312 7.37756 13.5018 7.29404 13.2935C7.70876 12.9037 7.83836 12.273 7.57148 11.7383C7.24508 11.0835 6.44924 10.8176 5.79452 11.144C5.1398 11.4704 4.87388 12.2663 5.20028 12.921C5.46716 13.4567 6.04796 13.7312 6.61052 13.6352C6.72668 13.8282 6.85436 14.0432 6.959 14.2477C7.6454 15.5878 8.52188 17.3235 9.34844 18.9699C6.86876 19.7312 5.21468 20.7834 5.21468 22.2349C5.21468 22.4883 5.21468 22.7187 5.21468 22.9386C3.22557 23.0528 1.58109 24.6541 1.42461 26.6845L0.73437 35.6566L0.0124503 45.0425C-0.0720296 46.1427 0.27549 47.2064 0.991649 48.0396C1.69341 48.8556 2.66493 49.3481 3.72957 49.4268C11.6544 50.0134 19.7011 50.31 27.646 50.31C35.5919 50.31 43.6386 50.0134 51.5625 49.4268C52.6271 49.3481 53.5996 48.8556 54.3004 48.0396C55.0156 47.2073 55.3631 46.1436 55.2796 45.0425L54.5577 35.6566Z" fill="#D3BC88"/>
<path d="M25.3297 37.8992C24.8708 38.6413 24.4638 39.3488 24.1326 39.967C23.7966 40.5814 23.5383 41.1085 23.3636 41.4819C23.1879 41.8544 23.0996 42.0752 23.0996 42.0752C23.0996 42.0752 23.2734 41.913 23.5575 41.6144C23.8417 41.3168 24.242 40.8858 24.6932 40.351C25.1502 39.8192 25.6628 39.1837 26.1898 38.4886C26.449 38.1382 26.7303 37.785 26.9934 37.4106C27.098 37.2675 27.1998 37.1168 27.3034 36.9699C27.4071 37.1168 27.5098 37.2666 27.6145 37.4106C27.8775 37.785 28.1588 38.1382 28.418 38.4886C28.9441 39.1837 29.4567 39.8192 29.9146 40.351C30.3658 40.8858 30.7652 41.3168 31.0503 41.6144C31.3345 41.912 31.5092 42.0752 31.5092 42.0752C31.5092 42.0752 31.4199 41.8544 31.2442 41.4819C31.0695 41.1085 30.8122 40.5805 30.4743 39.967C30.1441 39.3488 29.7361 38.6422 29.2782 37.8992C29.0449 37.5315 28.8164 37.1418 28.562 36.7616C28.3863 36.488 28.1991 36.2154 28.0158 35.9418C28.1982 35.6672 28.3815 35.3926 28.562 35.1219C28.8145 34.7408 29.0439 34.352 29.2772 33.9834C29.7351 33.2403 30.1431 32.5338 30.4734 31.9155C30.8103 31.3011 31.0676 30.7741 31.2433 30.4007C31.419 30.0282 31.5082 29.8074 31.5082 29.8074C31.5082 29.8074 31.3345 29.9706 31.0494 30.2682C30.7652 30.5667 30.3668 30.9968 29.9146 31.5325C29.4577 32.0643 28.946 32.6989 28.418 33.3939C28.1578 33.7443 27.8785 34.0986 27.6145 34.471C27.5118 34.617 27.4071 34.7658 27.3034 34.9126C27.2007 34.7658 27.0951 34.617 26.9924 34.471C26.7274 34.0976 26.449 33.7443 26.1889 33.3939C25.6618 32.6989 25.1492 32.0643 24.6922 31.5325C24.241 30.9959 23.8417 30.5658 23.5575 30.2682C23.2734 29.9696 23.0996 29.8074 23.0996 29.8074C23.0996 29.8074 23.1889 30.0282 23.3646 30.4007C23.5402 30.7741 23.7985 31.3011 24.1345 31.9155C24.4657 32.5328 24.8737 33.2403 25.3316 33.9834C25.5649 34.351 25.7934 34.7408 26.0468 35.1219C26.2273 35.3917 26.4097 35.6672 26.593 35.9418C26.4078 36.2144 26.2225 36.488 26.0468 36.7616C25.7924 37.1418 25.5639 37.5315 25.3306 37.8992H25.3297Z" fill="#D3BC88"/>
<path d="M36.0011 37.8992C35.5422 38.6413 35.1351 39.3488 34.8049 39.967C34.4679 40.5814 34.2107 41.1085 34.035 41.4819C33.8593 41.8544 33.77 42.0752 33.77 42.0752C33.77 42.0752 33.9438 41.913 34.2289 41.6144C34.5131 41.3168 34.9134 40.8858 35.3646 40.351C35.8225 39.8192 36.3342 39.1837 36.8612 38.4886C37.1214 38.1382 37.4017 37.785 37.6647 37.4106C37.7694 37.2675 37.8721 37.1168 37.9758 36.9699C38.0785 37.1168 38.1812 37.2666 38.2868 37.4106C38.5499 37.785 38.8302 38.1382 39.0894 38.4886C39.6164 39.1837 40.1291 39.8192 40.586 40.351C41.0372 40.8858 41.4375 41.3168 41.7217 41.6144C42.0058 41.912 42.1796 42.0752 42.1796 42.0752C42.1796 42.0752 42.0913 41.8544 41.9156 41.4819C41.7399 41.1085 41.4827 40.5805 41.1457 39.967C40.8145 39.3488 40.4074 38.6422 39.9486 37.8992C39.7153 37.5315 39.4868 37.1418 39.2324 36.7616C39.0567 36.488 38.8705 36.2154 38.6852 35.9418C38.8686 35.6672 39.051 35.3926 39.2315 35.1219C39.4839 34.7408 39.7143 34.352 39.9467 33.9834C40.4046 33.2403 40.8126 32.5338 41.1438 31.9155C41.4807 31.3011 41.738 30.7741 41.9137 30.4007C42.0894 30.0282 42.1787 29.8074 42.1787 29.8074C42.1787 29.8074 42.0049 29.9706 41.7217 30.2682C41.4366 30.5667 41.0372 30.9968 40.586 31.5325C40.1291 32.0643 39.6174 32.6989 39.0894 33.3939C38.8302 33.7443 38.5508 34.0986 38.2859 34.471C38.1831 34.617 38.0775 34.7658 37.9748 34.9126C37.8711 34.7658 37.7665 34.617 37.6638 34.471C37.3988 34.0976 37.1195 33.7443 36.8603 33.3939C36.3332 32.6989 35.8206 32.0643 35.3636 31.5325C34.9124 30.9959 34.5131 30.5658 34.2289 30.2682C33.9447 29.9696 33.77 29.8074 33.77 29.8074C33.77 29.8074 33.8593 30.0282 34.035 30.4007C34.2107 30.7741 34.4689 31.3011 34.8049 31.9155C35.1361 32.5328 35.5431 33.2403 36.0011 33.9834C36.2343 34.351 36.4638 34.7408 36.7172 35.1219C36.8967 35.3917 37.0801 35.6672 37.2635 35.9418C37.0791 36.2144 36.8919 36.488 36.7172 36.7616C36.4628 37.1418 36.2343 37.5315 36.0011 37.8992Z" fill="#D3BC88"/>
<path d="M15.0123 37.8992C14.5544 38.6413 14.1464 39.3488 13.8152 39.967C13.4792 40.5814 13.2209 41.1085 13.0462 41.4819C12.8705 41.8544 12.7822 42.0752 12.7822 42.0752C12.7822 42.0752 12.956 41.913 13.2411 41.6144C13.5253 41.3168 13.9256 40.8858 14.3768 40.351C14.8337 39.8192 15.3464 39.1837 15.8734 38.4886C16.1326 38.1382 16.4139 37.785 16.676 37.4106C16.7816 37.2675 16.8833 37.1168 16.987 36.9699C17.0907 37.1158 17.1934 37.2666 17.2981 37.4106C17.5611 37.785 17.8414 38.1382 18.1016 38.4886C18.6286 39.1837 19.1403 39.8192 19.5982 40.351C20.0494 40.8858 20.4488 41.3168 20.7339 41.6144C21.0181 41.912 21.1928 42.0752 21.1928 42.0752C21.1928 42.0752 21.1035 41.8544 20.9278 41.4819C20.7521 41.1085 20.4958 40.5805 20.1589 39.967C19.8277 39.3488 19.4206 38.6422 18.9617 37.8992C18.7285 37.5315 18.5 37.1418 18.2465 36.7616C18.0709 36.488 17.8837 36.2154 17.6993 35.9418C17.8817 35.6672 18.0651 35.3926 18.2446 35.1219C18.4971 34.7408 18.7275 34.352 18.9608 33.9834C19.4187 33.2403 19.8267 32.5338 20.1569 31.9155C20.4939 31.3011 20.7512 30.7741 20.9269 30.4007C21.1025 30.0282 21.1918 29.8074 21.1918 29.8074C21.1918 29.8074 21.0181 29.9706 20.7339 30.2682C20.4497 30.5667 20.0504 30.9968 19.5992 31.5325C19.1422 32.0643 18.6305 32.6989 18.1025 33.3939C17.8424 33.7443 17.563 34.0986 17.299 34.471C17.1963 34.617 17.0917 34.7658 16.988 34.9126C16.8853 34.7658 16.7797 34.617 16.6769 34.471C16.412 34.0976 16.1326 33.7443 15.8734 33.3939C15.3464 32.6989 14.8347 32.0643 14.3768 31.5325C13.9256 30.9959 13.5262 30.5658 13.2411 30.2682C12.9569 29.9696 12.7832 29.8074 12.7832 29.8074C12.7832 29.8074 12.8725 30.0282 13.0481 30.4007C13.2238 30.7741 13.4821 31.3011 13.8181 31.9155C14.1493 32.5328 14.5573 33.2403 15.0152 33.9834C15.2475 34.351 15.4779 34.7408 15.7304 35.1219C15.9109 35.3917 16.0933 35.6672 16.2766 35.9418C16.0913 36.2144 15.9061 36.488 15.7304 36.7616C15.476 37.1418 15.2475 37.5315 15.0142 37.8992H15.0123Z" fill="#D3BC88"/>
<path d="M5.52655 31.8656C5.77231 32.4714 6.07951 33.1684 6.42799 33.9047C6.60751 34.2704 6.77838 34.6554 6.97614 35.0336C7.12974 35.3341 7.28526 35.6384 7.44174 35.9418C7.28526 36.2461 7.12879 36.5504 6.97519 36.85C6.77455 37.2272 6.60559 37.6132 6.42607 37.9789C6.07663 38.7143 5.77039 39.4122 5.52463 40.018C5.02351 41.2256 4.77295 42.0743 4.77295 42.0743C4.77295 42.0743 5.33455 41.3898 6.05359 40.2983C6.41839 39.7549 6.8235 39.1108 7.23726 38.408C7.43982 38.0548 7.6635 37.6986 7.86414 37.3213C7.9179 37.2234 7.97262 37.1226 8.02638 37.0247C8.08014 37.1236 8.13486 37.2234 8.18862 37.3213C8.38926 37.6986 8.6139 38.0557 8.8155 38.408C9.22926 39.1098 9.63438 39.754 9.99918 40.2983C10.7192 41.3898 11.2808 42.0743 11.2808 42.0743C11.2808 42.0743 11.0283 41.2256 10.5281 40.018C10.2824 39.4112 9.97614 38.7143 9.6267 37.9789C9.44814 37.6132 9.27822 37.2272 9.07758 36.85C8.92398 36.5504 8.7675 36.2461 8.61198 35.9418C8.7675 35.6375 8.92398 35.3332 9.07758 35.0336C9.2763 34.6554 9.44718 34.2704 9.62574 33.9047C9.97422 33.1684 10.2814 32.4714 10.5272 31.8656C11.0283 30.657 11.2808 29.8093 11.2808 29.8093C11.2808 29.8093 10.7201 30.4948 10.0011 31.5863C9.6363 32.1296 9.23214 32.7748 8.81838 33.4765C8.61582 33.8298 8.3931 34.1869 8.19055 34.5632C8.13679 34.6612 8.08206 34.762 8.02831 34.8599C7.97359 34.762 7.91886 34.6612 7.8651 34.5632C7.6635 34.186 7.43982 33.8288 7.23726 33.4765C6.8235 32.7748 6.41839 32.1296 6.05359 31.5863C5.33455 30.4948 4.77391 29.8093 4.77391 29.8093C4.77391 29.8093 5.02639 30.657 5.52751 31.8656H5.52655Z" fill="#D3BC88"/>
</svg>