<svg width="247" height="233" viewBox="0 0 247 233" fill="none" xmlns="http://www.w3.org/2000/svg">
<path d="M67.9487 111.096C68.7379 111.541 69.9344 112.258 71.118 113.134C73.1314 114.58 74.994 116.423 74.994 116.423C74.994 116.423 73.5528 114.25 71.735 112.26C71.5284 112.028 71.3193 111.802 71.1073 111.577L71.8644 102.311C72.0513 100.044 72.89 98.1038 74.288 96.7066C85.4671 85.5623 142.831 30.1391 174.083 16.3606C170.57 24.3532 158.248 47.2105 119.286 88.4987L102.57 71.7026L117.038 90.8694C115.196 92.8038 113.297 94.7767 111.339 96.7921C109.223 98.6106 107.231 100.279 105.404 101.753C102.11 104.415 100.145 108.503 99.7614 113.371C99.2672 119.654 98.4147 128.773 97.1408 136.785C95.9883 142.925 93.2787 148.318 92.4551 149.859C90.2529 148.892 88.1553 148.173 88.1553 148.173C88.1553 148.173 90.3654 149.549 92.4655 151.107C93.17 151.62 93.8598 152.152 94.4675 152.635C95.8996 153.827 98.5011 156.151 101.236 159.411C105.008 163.905 109.024 170.165 110.55 177.635C112.349 187.875 107.767 197.75 100.41 202.775C91.5133 208.853 76.9842 208.308 70.025 194.729C63.0642 181.148 70.7275 167.217 75.9067 159.024L75.8998 159.03C82.488 149.16 82.9175 138.108 82.1005 130.518C82.1575 127.388 82.1691 123.725 82.0747 120.026C82.013 117.575 81.9225 115.116 81.7792 112.793C81.712 111.633 81.6496 110.515 81.5584 109.444C81.4702 108.374 81.4078 107.372 81.306 106.432C81.1296 104.562 80.9607 102.999 80.8128 101.9C80.6768 100.804 80.6007 100.179 80.6007 100.179C80.6007 100.179 80.6137 100.788 80.6353 101.855C80.6703 102.923 80.6763 104.438 80.6588 106.243C80.6637 107.149 80.6187 108.116 80.596 109.144C80.5764 110.173 80.5219 111.247 80.4689 112.36C80.3673 114.585 80.1987 116.935 80.0023 119.269C79.6111 123.939 79.0368 128.529 78.5423 131.934C78.5268 132.04 78.5125 132.141 78.4984 132.245C78.2942 133.059 78.0753 133.876 77.8434 134.693C72.3061 149.445 59.7177 172.879 46.321 177.872C32.5718 183 22.9715 164.78 21.8337 149.494C22.3916 138.885 26.3345 128.287 31.7999 121.953C42.342 109.735 55.5351 105.852 67.9457 111.095L67.9487 111.096ZM154.637 56.6367C155.932 55.0916 157.297 53.4977 158.691 51.9294C165.538 44.0776 172.993 36.8298 172.993 36.8298C172.993 36.8298 165.559 42.5167 158.204 49.0707C166.485 38.1129 173.796 27.6434 177.115 22.8309L177.385 34.3573C177.385 34.3573 167.556 44.1542 154.637 56.6398L154.637 56.6367ZM79.0862 141.398C78.1087 148.433 75.4985 154.524 71.28 159.623C73.9915 154.255 76.8494 147.934 79.0862 141.398ZM103.126 157.828C100.822 155.083 98.5958 152.936 96.9675 151.493C99.8817 143.47 101.66 127.33 102.662 114.567C102.996 110.311 104.747 106.705 107.591 104.404C130.404 85.9741 179.214 37.3754 179.704 36.885L180.311 36.2803L180.287 35.2618L179.836 16.0997L179.706 10.5808L175.251 12.2524C141.787 24.8167 74.8032 91.3487 71.9668 94.1738C70.2344 95.9011 69.1979 98.2973 68.9685 101.104L68.3757 108.347C62.1135 105.666 55.5728 105.039 49.2716 106.544C44.2384 107.745 39.3451 110.321 34.8495 114.1C32.9508 115.696 31.1244 117.506 29.3876 119.52C19.1814 131.351 13.0799 158.929 26.7505 175.221C28.7522 177.607 31.1087 179.642 33.754 181.27C45.2249 188.33 55.1802 181.631 61.4606 174.871C60.8205 187.709 63.2306 197.453 68.6657 203.931C70.6219 206.262 72.9508 208.129 75.5894 209.479C83.2134 213.378 91.3544 214.337 97.9233 212.112C103.46 210.235 110.645 205.143 113.421 191.532C116.328 177.286 109.425 165.341 103.122 157.829L103.126 157.828Z" fill="#D3BC88"/>
<path d="M96.019 168.582C89.5268 163.084 81.025 163.473 75.4472 168.957C76.8874 167.017 78.4509 165.682 79.7322 164.838C80.5692 164.294 81.2652 163.911 81.7591 163.681C82.261 163.458 82.5276 163.339 82.5276 163.339C82.5276 163.339 82.2338 163.411 81.6823 163.544C81.1393 163.693 80.3403 163.925 79.4048 164.357C77.5291 165.199 75.0281 166.827 72.9441 169.752C71.9465 171.236 70.9229 172.938 70.2882 175.057C69.6201 177.144 69.1793 179.541 69.2282 182.227C69.2775 184.899 69.7382 187.858 70.9523 190.875L71.1699 191.441L71.4401 192.002L71.9839 193.128C72.3859 193.869 72.8261 194.607 73.2917 195.331L74.056 196.391C74.1875 196.567 74.3073 196.744 74.4476 196.92L74.9005 197.44L75.8145 198.473C76.1138 198.779 76.394 199.028 76.6868 199.307C77.9744 200.538 79.3982 201.469 80.8336 202.302C82.2873 203.028 83.7622 203.646 85.1906 203.948C88.0643 204.635 90.7099 204.446 92.9804 203.83C95.2658 203.215 97.1612 202.093 98.7289 200.794C99.1276 200.476 99.5113 200.154 99.844 199.782C100.183 199.418 100.545 199.102 100.842 198.71C101.138 198.323 101.432 197.942 101.717 197.567C102.004 197.195 102.207 196.797 102.446 196.425C103.42 194.902 104.046 193.305 104.487 191.831C104.938 190.362 105.15 188.98 105.271 187.827C105.39 186.672 105.382 185.729 105.368 185.085C105.34 184.439 105.325 184.095 105.325 184.095C105.325 184.095 105.293 184.422 105.233 185.037C105.171 185.646 105.024 186.518 104.786 187.591C104.535 188.655 104.157 189.906 103.585 191.236C103.01 192.562 102.242 193.979 101.203 195.312C100.933 195.648 100.681 196.037 100.383 196.349C100.089 196.662 99.7861 196.979 99.4808 197.304C99.1753 197.627 98.8061 197.907 98.4662 198.222C98.4512 198.238 98.4315 198.251 98.4149 198.265C99.144 197.468 99.8173 196.58 100.422 195.598C105.036 188.057 103.983 177.649 98.3256 170.906L96.4404 172.488C101.121 178.066 101.72 187.058 97.8347 193.407C93.3836 200.676 84.7408 202.337 78.5659 197.11C77.9446 196.586 77.3611 195.998 76.8303 195.365C72.15 189.788 71.551 180.795 75.436 174.446C77.6616 170.812 80.9898 168.477 84.8066 167.872C88.3422 167.312 91.8578 168.332 94.7032 170.741C95.3231 171.266 95.908 171.854 96.4388 172.486L98.3239 170.904C97.6259 170.073 96.8569 169.297 96.0208 168.587L96.019 168.582Z" fill="#D3BC88"/>
<path d="M105.31 84.9317C108.066 88.2168 108.394 92.4782 106.042 94.4517C103.69 96.4252 99.5507 95.3623 96.7942 92.0772C94.0393 88.794 93.7114 84.5327 96.0633 82.5592C98.4138 80.5868 102.555 81.6486 105.31 84.9317ZM95.718 92.9803C99.166 97.0895 104.365 98.4243 107.305 95.9569C110.247 93.4883 109.836 88.1368 106.387 84.0275C102.941 79.9202 97.7423 78.5854 94.8003 81.054C91.8597 83.5214 92.2715 88.8729 95.718 92.9803Z" fill="#D3BC88"/>
<path d="M97.1254 91.7994C99.6124 94.7634 103.349 95.7227 105.471 93.9422C107.593 92.1616 102.736 94.8292 98.8581 90.3455C94.736 85.582 98.5863 81.428 96.4643 83.2086C94.3424 84.9891 94.6383 88.8355 97.1254 91.7994Z" fill="#D3BC88"/>
<path d="M101.022 88.378C101.913 89.4371 102.845 90.4581 103.582 91.1952C104.313 91.9369 104.846 92.3895 104.846 92.3895C104.846 92.3895 104.493 91.7827 103.891 90.936C103.293 90.0827 102.448 88.9884 101.561 87.9259C100.67 86.8669 99.7361 85.8469 99.001 85.1087C98.27 84.367 97.7352 83.9125 97.7352 83.9125C97.7352 83.9125 98.09 84.5181 98.6935 85.3668C99.2928 86.2189 100.136 87.3143 101.023 88.3769L101.022 88.378Z" fill="#D3BC88"/>
<path d="M106.357 73.7375C106.774 74.2254 107.239 74.817 107.776 75.4117C108.312 76.0076 108.884 76.6418 109.455 77.2771C110.049 77.8896 110.644 78.5009 111.199 79.0743C111.753 79.6508 112.309 80.1471 112.767 80.594C113.226 81.0397 113.639 81.3782 113.912 81.6304C114.198 81.8722 114.362 82.0115 114.362 82.0115C114.362 82.0115 114.232 81.837 114.008 81.5336C113.773 81.2395 113.458 80.7988 113.043 80.3097C112.626 79.8217 112.162 79.2289 111.623 78.6354C111.087 78.0407 110.514 77.4065 109.944 76.7712C109.349 76.1587 108.755 75.5494 108.2 74.974C107.644 74.3987 107.089 73.9012 106.632 73.4543C106.171 73.0098 105.759 72.6701 105.486 72.4179C105.2 72.1761 105.036 72.0368 105.036 72.0368C105.036 72.0368 105.165 72.2094 105.39 72.5147C105.626 72.8076 105.942 73.2484 106.357 73.7375Z" fill="#D3BC88"/>
<path d="M97.595 96.2915C96.8409 95.767 96.0854 95.1086 95.423 94.3754C94.7167 93.6855 94.0809 92.8969 93.5706 92.1086C93.0128 91.337 92.572 90.553 92.2506 89.8633C91.8836 89.1756 91.638 88.5706 91.4918 88.146C91.3125 87.7129 91.2266 87.4587 91.2266 87.4587C91.2266 87.4587 91.1938 87.684 91.176 88.1044C91.182 88.5279 91.2299 89.1504 91.3887 89.9304C91.6003 90.7057 91.9319 91.6242 92.424 92.596C92.9616 93.5461 93.6577 94.5247 94.468 95.4173C95.3262 96.26 96.2601 96.9764 97.165 97.526C98.0883 98.0271 98.9587 98.3584 99.6912 98.5646C100.428 98.7144 101.012 98.7489 101.408 98.7459C101.802 98.7151 102.012 98.6747 102.012 98.6747C102.012 98.6747 101.771 98.5901 101.362 98.4092C100.958 98.2631 100.385 98.0157 99.7307 97.6413C99.0761 97.3169 98.3308 96.8675 97.5936 96.2927L97.595 96.2915Z" fill="#D3BC88"/>
<path d="M85.1939 143.355C85.4228 141.673 85.6361 139.865 85.8202 138.043C85.9222 136.187 85.9936 134.317 86.0306 132.555C86.0022 130.769 85.9594 129.1 85.8914 127.66C85.7794 126.205 85.6635 124.987 85.5788 124.135C85.4624 123.273 85.3965 122.781 85.3965 122.781C85.3965 122.781 85.3459 123.235 85.2552 124.03C85.1946 124.833 85.0998 125.977 84.9597 127.338C84.8786 128.718 84.7479 130.315 84.5926 132.014C84.4859 133.732 84.3399 135.553 84.1678 137.359C84.0581 139.192 83.9211 141.014 83.7612 142.711C83.6532 144.43 83.533 146.031 83.4017 147.391C83.3302 148.78 83.246 149.928 83.1824 150.73C83.1465 151.548 83.1265 152.017 83.1265 152.017C83.1265 152.017 83.2632 151.609 83.5015 150.891C83.7091 150.16 84.0014 149.11 84.3251 147.836C84.6057 146.539 84.8962 145.006 85.1923 143.353L85.1939 143.355Z" fill="#D3BC88"/>
<path d="M59.4182 118.55C61.7314 118.775 64.992 119.643 67.3913 122.502C67.729 122.904 68.0427 123.34 68.3226 123.798C68.975 124.859 70.6097 129.336 64.2672 142.419C60.2905 150.622 54.7775 158.828 52.1289 162.772L52.0243 162.925C46.9548 170.476 41.145 174.421 37.5687 172.747C36.1094 172.063 34.6262 170.878 33.3957 169.411C30.5953 166.074 25.0641 156.298 34.1354 137.612C41.4925 122.461 52.0197 117.831 59.4182 118.55ZM25.7902 148.755C25.7131 149.209 25.6206 149.656 25.5636 150.122L25.4529 151.557C25.1259 155.356 25.3179 159.576 26.8141 163.978L27.4078 165.62L28.1921 167.246C28.3264 167.516 28.4491 167.789 28.595 168.056L29.0818 168.844C29.4195 169.362 29.7089 169.903 30.0877 170.4C31.5283 172.432 33.352 174.228 35.3268 175.614C35.824 175.962 36.3192 176.305 36.8448 176.562L37.6215 176.979L37.7199 177.032L37.7676 177.057C37.8348 177.087 37.6827 177.027 37.9325 177.13L38.11 177.195L38.4651 177.326L39.1732 177.579C39.4583 177.643 39.7545 177.698 40.0432 177.752C40.3267 177.795 40.6393 177.872 40.893 177.874L41.6436 177.873C43.6275 177.824 45.2413 177.182 46.6717 176.417C48.1058 175.642 49.3432 174.687 50.4568 173.656C51.5864 172.643 52.5761 171.535 53.5044 170.433C54.4291 169.324 55.268 168.192 56.0377 167.061C56.7956 165.911 57.4823 164.794 58.1471 163.719C60.8143 159.423 62.8818 155.707 64.2584 153.055C64.956 151.735 65.4622 150.667 65.8168 149.948C66.1648 149.22 66.3504 148.834 66.3504 148.834C66.3504 148.834 65.4275 150.235 63.8142 152.686C62.1882 155.125 59.8095 158.552 56.8924 162.609C55.4337 164.654 53.8672 166.812 51.9669 168.868C51.4517 169.416 50.9203 169.964 50.3624 170.495C51.955 168.809 53.3864 166.945 54.5661 165.184C59.9903 157.108 76.5924 132.505 70.611 122.781C70.2048 122.119 69.7575 121.499 69.2704 120.919C62.7412 113.137 49.416 112.967 38.813 124.528C41.0856 121.543 43.3461 119.34 45.1649 117.893C46.2798 116.993 47.2065 116.351 47.8539 115.93C48.5126 115.522 48.8646 115.306 48.8646 115.306C48.8646 115.306 48.481 115.476 47.7657 115.799C47.0636 116.141 46.0213 116.643 44.8082 117.434C42.3473 118.968 39.1036 121.597 36.0154 125.577C34.4679 127.561 32.9445 129.858 31.5544 132.468C30.1935 135.153 28.8556 137.868 27.7599 141.105C27.6209 141.502 27.4573 141.887 27.3357 142.299C27.2201 142.712 27.1047 143.129 26.9893 143.546C26.7557 144.381 26.5242 145.225 26.29 146.071C26.11 146.951 25.9584 147.856 25.7889 148.756L25.7902 148.755Z" fill="#D3BC88"/>
<path d="M83.9997 104.626C84.1924 105.961 84.3673 107.295 84.5133 108.541C84.6699 109.791 84.8171 110.956 84.9426 111.955C85.0728 112.957 85.1785 113.795 85.2559 114.379C85.3396 114.969 85.3875 115.304 85.3875 115.304C85.3875 115.304 85.3998 114.984 85.4186 114.424C85.4194 113.86 85.4493 113.06 85.4089 112.075C85.3702 111.092 85.3412 109.949 85.2306 108.704C85.1186 107.459 84.9806 106.124 84.823 104.786C84.6236 103.44 84.4064 102.093 84.1863 100.823C83.9621 99.5576 83.6831 98.3642 83.4571 97.3439C83.2311 96.3235 82.981 95.4685 82.8275 94.872C82.6548 94.2752 82.5562 93.9326 82.5562 93.9326C82.5562 93.9326 82.5967 94.2679 82.6683 94.8539C82.7474 95.4404 82.8619 96.2773 82.9981 97.2807C83.1387 98.2837 83.3009 99.4531 83.4753 100.705C83.6588 101.958 83.8381 103.292 83.9979 104.621L83.9997 104.626Z" fill="#D3BC88"/>
<path d="M162.109 31.188C160.97 32.7214 159.735 34.3837 158.428 36.1398C157.098 37.8761 155.698 39.7069 154.248 41.5993C152.78 43.4767 151.268 45.4183 149.73 47.3913C148.173 49.3473 146.612 51.3524 145.006 53.3138C143.425 55.3 141.84 57.2854 140.255 59.2127C138.677 61.1498 137.125 63.0554 135.624 64.8983C132.607 68.5771 129.792 72.0104 127.379 74.9517C124.97 77.9032 122.965 80.3635 121.561 82.0855C120.17 83.823 119.377 84.8154 119.377 84.8154C119.377 84.8154 120.268 83.9225 121.828 82.3591C123.364 80.7709 125.597 78.5408 128.168 75.7538C129.467 74.3737 130.864 72.8653 132.308 71.2385C133.761 69.6201 135.304 67.9232 136.844 66.1132C138.395 64.3136 140.017 62.4714 141.601 60.5359C143.204 58.6206 144.811 56.6518 146.409 54.6745C149.574 50.6905 152.697 46.6625 155.498 42.7689C156.925 40.8463 158.237 38.9245 159.497 37.1186C160.739 35.2956 161.901 33.5617 162.939 31.9293C163.999 30.3178 164.909 28.7861 165.724 27.4364C166.521 26.0717 167.224 24.889 167.773 23.8871C168.34 22.9035 168.741 22.0956 169.024 21.5519C169.306 21.0082 169.457 20.7174 169.457 20.7174C169.457 20.7174 168.741 21.7828 167.486 23.6465C166.246 25.5183 164.368 28.0993 162.111 31.1869L162.109 31.188Z" fill="#D3BC88"/>
<path d="M90.7767 152.25C91.5494 152.884 92.4082 153.697 93.3424 154.531C94.2716 155.377 95.2356 156.312 96.1724 157.277C97.1242 158.226 98.0488 159.204 98.8912 160.148C99.7209 161.101 100.527 161.974 101.164 162.765C101.81 163.548 102.366 164.199 102.729 164.669C103.107 165.133 103.325 165.399 103.325 165.399C103.325 165.399 103.152 165.109 102.849 164.598C102.532 164.096 102.092 163.364 101.489 162.535C100.891 161.699 100.179 160.73 99.3478 159.739C98.5113 158.756 97.5892 157.733 96.6368 156.739C95.6574 155.777 94.6511 154.848 93.6886 154.01C92.7195 153.182 91.7786 152.471 90.9666 151.883C90.1583 151.285 89.4558 150.856 88.972 150.547C88.4805 150.253 88.1991 150.084 88.1991 150.084C88.1991 150.084 88.4591 150.301 88.9112 150.677C89.3698 151.04 90.0082 151.596 90.7732 152.243L90.7767 152.25Z" fill="#D3BC88"/>
<path d="M63.5841 111.368C64.3854 111.721 65.305 112.232 66.2896 112.744C67.2723 113.272 68.3046 113.886 69.3242 114.547C70.3482 115.188 71.3582 115.876 72.2872 116.567C73.2068 117.269 74.0857 117.903 74.8009 118.517C75.5236 119.113 76.1356 119.612 76.549 119.984C76.9705 120.346 77.2106 120.553 77.2106 120.553C77.2106 120.553 77.0014 120.306 76.6353 119.879C76.2596 119.462 75.7286 118.846 75.0288 118.183C74.3358 117.512 73.5069 116.744 72.5725 116.002C71.6341 115.266 70.6083 114.524 69.5641 113.831C68.5042 113.184 67.432 112.587 66.4169 112.08C65.4011 111.584 64.4404 111.21 63.6214 110.915C62.8018 110.61 62.1186 110.452 61.6461 110.327C61.1722 110.224 60.9005 110.162 60.9005 110.162C60.9005 110.162 61.172 110.28 61.6453 110.49C62.1171 110.681 62.7904 110.999 63.5857 111.37L63.5841 111.368Z" fill="#D3BC88"/>
<path d="M97.4792 114.564C97.3517 115.954 97.2052 117.576 97.0484 119.314C96.9038 121.057 96.7336 122.908 96.5484 124.754C96.3951 126.614 96.2295 128.467 96.0574 130.197C95.8992 131.936 95.7511 133.557 95.6252 134.948C95.5069 136.343 95.4062 137.506 95.3375 138.318C95.2766 139.138 95.2432 139.604 95.2432 139.604C95.2432 139.604 95.3361 139.163 95.4979 138.391C95.643 137.614 95.8799 136.515 96.0897 135.158C96.301 133.804 96.5664 132.233 96.7733 130.513C96.9801 128.793 97.1848 126.95 97.3744 125.103C97.5228 123.238 97.656 121.365 97.7637 119.604C97.8715 117.842 97.9019 116.168 97.9426 114.742C97.9847 113.316 97.9579 112.105 97.9628 111.267C97.9463 110.42 97.9385 109.936 97.9385 109.936C97.9385 109.936 97.89 110.398 97.8016 111.204C97.7239 112.015 97.6109 113.171 97.4773 114.559L97.4792 114.564Z" fill="#D3BC88"/>
</svg>