<svg width="37" height="56" viewBox="0 0 37 56" fill="none" xmlns="http://www.w3.org/2000/svg">
<path d="M10.9827 30.2275C14.7911 31.2547 18.6723 31.8278 18.6723 31.8278C18.6723 31.8278 14.8659 30.8678 11.2199 29.4796C11.0317 29.4105 10.8445 29.3395 10.6583 29.2684C10.928 29.1744 11.2429 29.062 11.6269 28.9219C13.3395 28.3075 14.9811 27.5606 14.9811 27.5606C14.9811 27.5606 13.2147 27.935 11.4407 28.1606C10.3635 28.3065 9.28835 28.3977 8.60963 28.4467C6.67043 27.6307 5.06531 26.8579 4.41251 26.5353V20.6131C4.83203 20.8176 5.35043 21.0633 5.94947 21.3264C7.58243 22.0617 9.81442 22.9084 12.0954 23.5641C14.3783 24.2198 16.7015 24.6844 18.4544 24.9264C19.3299 25.056 20.0634 25.1347 20.576 25.1827C21.0886 25.2297 21.3824 25.2576 21.3824 25.2576C21.3824 25.2576 21.0925 25.2067 20.5856 25.1164C20.0797 25.0252 19.3568 24.887 18.5005 24.6864C16.7811 24.3014 14.5261 23.6515 12.3431 22.8211C12.248 22.7846 12.1539 22.7472 12.0589 22.7097C12.7837 22.4697 13.8541 22.0982 15.1866 21.5894C17.7575 20.6275 20.241 19.4928 20.241 19.4928C20.241 19.4928 17.6192 20.2608 14.9629 20.8387C12.7875 21.3273 10.6007 21.6873 9.88066 21.8016C8.62403 21.239 7.47011 20.6601 6.53507 20.1417C5.77091 19.7261 5.14787 19.3565 4.71587 19.0915C4.60067 19.0205 4.50083 18.959 4.41347 18.9053V12.7843C4.60355 12.8697 4.81571 12.9638 5.04899 13.0627C6.03971 13.4909 7.38851 13.9881 8.76035 14.3798C10.1331 14.7715 11.5251 15.0576 12.5744 15.215C13.6237 15.3763 14.3255 15.4377 14.3255 15.4377C14.3255 15.4377 13.6371 15.2793 12.6282 14.976C11.6192 14.6774 10.2992 14.2061 9.02627 13.6425C7.75331 13.0771 6.53219 12.4224 5.64803 11.8838C5.57315 11.8397 5.50403 11.7965 5.43395 11.7542C9.77218 11.4825 14.1527 11.3366 18.4871 11.3366C20.8794 11.3366 23.287 11.3798 25.6928 11.4633C25.7379 11.8013 25.8109 12.3753 25.8992 13.1433C26.312 13.1203 26.7027 13.0944 27.0214 13.0685C27.4995 13.0233 27.8182 12.9936 27.8182 12.9936C27.8182 12.9936 27.5216 13.1193 27.079 13.3075C26.6317 13.4909 26.0298 13.7213 25.424 13.944C25.0275 14.088 24.6349 14.2301 24.2816 14.3577C23.5654 14.6313 22.8109 14.9126 22.0352 15.1939C21.177 15.1411 19.6429 15.0211 18.1088 14.7667C15.7981 14.4125 13.5258 13.7549 13.5258 13.7549C13.5258 13.7549 15.6541 14.7801 17.9207 15.528C18.6493 15.7785 19.1754 15.9475 19.5584 16.0627C15.3287 17.5056 11.2765 18.5942 11.2765 18.5942C11.2765 18.5942 16.0362 17.7225 20.7277 16.4861C22.6352 15.9993 24.5226 15.4541 26.0979 14.976C26.215 16.1405 26.3398 17.5142 26.4502 19.032C26.6086 18.9945 26.767 18.9571 26.9274 18.9177C28.6669 18.5069 30.3699 17.9078 30.3699 17.9078C30.3699 17.9078 28.8358 18.8621 27.1952 19.6541C26.6278 19.9344 26.0547 20.1984 25.5459 20.4259L19.6496 23.2521L26.5894 21.2131C26.6595 22.4669 26.7142 23.782 26.745 25.1289C26.8246 25.1347 26.9043 25.1395 26.984 25.1452C28.5795 25.2556 30.1952 25.1961 30.1952 25.1961C30.1952 25.1961 28.641 25.6454 27.031 25.9276C26.4243 26.04 25.8147 26.134 25.2886 26.208C24.2787 26.3558 23.12 26.4796 21.9498 26.5411C20.2928 26.6275 18.6234 26.5881 17.3735 26.4883C16.1216 26.3932 15.2912 26.2732 15.2912 26.2732C15.2912 26.2732 16.1015 26.4892 17.3408 26.7312C18.5783 26.9779 20.2525 27.216 21.945 27.3264C22.4922 27.3619 23.0403 27.382 23.575 27.3926C23.5578 27.4003 23.5395 27.408 23.5213 27.4156C21.4746 28.2873 19.376 29.0544 19.376 29.0544C19.376 29.0544 21.5763 28.6665 23.7622 28.1606C24.8605 27.9129 25.952 27.6355 26.769 27.4204C26.768 28.4102 26.7526 29.4067 26.7162 30.3974C28.6592 29.9116 30.465 29.206 30.465 29.206C30.465 29.206 28.6563 30.335 26.6835 31.2086C25.6822 31.6694 24.6483 32.0563 23.8746 32.326C22.7149 32.7926 21.4515 33.2678 20.168 33.7036C17.8237 34.4985 15.4295 35.1609 13.6141 35.5824C11.7997 36.0086 10.5747 36.2332 10.5747 36.2332C10.5747 36.2332 11.8131 36.1075 13.6611 35.8233C15.5111 35.5449 17.9648 35.0716 20.3917 34.4553C22.6515 33.8812 24.8778 33.1872 26.6048 32.5747C26.5011 34.0963 26.3427 35.5804 26.1162 36.982C26.6941 36.8179 27.2384 36.6499 27.6829 36.5001C28.4115 36.2563 28.8915 36.07 28.8915 36.07C28.8915 36.07 28.4566 36.3436 27.7818 36.7238C27.1088 37.1059 26.1901 37.5839 25.2502 38.0255C25.0976 38.0975 24.943 38.1686 24.7894 38.2387C24.0627 38.6121 23.2592 39.0124 22.4451 39.3964C19.7437 40.6943 16.9434 41.7983 16.9434 41.7983C16.9434 41.7983 19.8627 41.0678 22.735 40.1251C23.7747 39.791 24.8058 39.43 25.7014 39.1046C25.2349 41.1158 24.5878 42.8668 23.7066 44.1887C21.9632 44.2329 20.2199 44.2617 18.4861 44.2617C16.3472 44.2617 14.1959 44.2223 12.0455 44.1551C13.6736 43.9622 15.2471 43.6972 16.4451 43.4217C17.121 43.2719 17.6778 43.1231 18.0666 43.0137C18.4525 42.8995 18.6723 42.8342 18.6723 42.8342C18.6723 42.8342 18.4467 42.8755 18.0503 42.9484C17.6547 43.0156 17.0874 43.1049 16.4048 43.1817C15.0397 43.3459 13.209 43.4457 11.384 43.4447C9.5581 43.4351 7.74083 43.3247 6.39875 43.1548C5.72675 43.0751 5.17379 42.9859 4.78979 42.9167C4.63139 42.887 4.50851 42.863 4.41155 42.8447V37.6867C4.75331 37.8307 5.20835 38.0111 5.75267 38.2079C6.96995 38.639 8.60771 39.118 10.2656 39.479C11.9207 39.8524 13.5939 40.1097 14.8477 40.2604C16.1043 40.4092 16.9434 40.4611 16.9434 40.4611C16.9434 40.4611 16.1149 40.3113 14.8909 40.0195C13.6679 39.7247 12.0522 39.2803 10.4787 38.7254C8.90147 38.183 7.37027 37.534 6.26531 36.9897C5.90819 36.8111 5.60003 36.6489 5.33987 36.5068C5.81123 36.3379 6.35171 36.1449 6.89315 35.951C8.41091 35.4153 9.86626 34.7568 9.86626 34.7568C9.86626 34.7568 8.29475 35.04 6.71939 35.1868C5.92451 35.2646 5.12963 35.3414 4.53347 35.4C4.49123 35.4057 4.45187 35.4086 4.41155 35.4134V28.1683C5.75267 28.654 8.33795 29.5488 10.9827 30.2294V30.2275ZM1.92228 8.92511C1.78596 7.19231 1.64963 5.46047 1.51332 3.72864C1.44612 2.87232 2.11236 2.12256 3.00515 2.05728C8.15843 1.69056 13.3223 1.5072 18.4861 1.5072C18.6253 1.5072 18.7655 1.51008 18.9056 1.51104C18.8163 1.51488 18.728 1.51776 18.6387 1.5216C17.6413 1.58016 16.6448 1.62336 15.6647 1.69344C14.6855 1.7664 13.7216 1.83744 12.7895 1.90752C10.9261 2.06976 9.19139 2.23296 7.70723 2.40576C6.22115 2.55648 4.98851 2.73216 4.12451 2.8368C3.26147 2.9472 2.76803 3.0096 2.76803 3.0096C2.76803 3.0096 3.26531 2.98752 4.13507 2.94816C5.00483 2.91456 6.24515 2.83968 7.73507 2.8128C9.22498 2.76288 10.9635 2.74176 12.824 2.73312C13.7543 2.7408 14.7152 2.74848 15.6915 2.75616C16.6679 2.76672 17.6586 2.80512 18.6493 2.82816C19.639 2.86944 20.6278 2.91168 21.6022 2.95392C22.5747 3.01632 23.5309 3.06144 24.4554 3.13536C26.3034 3.26688 28.0218 3.43584 29.4896 3.60096C30.369 3.70368 31.1562 3.80543 31.8291 3.89951C31.4614 5.26175 30.5245 6.95519 28.2685 8.28959C27.0349 8.26367 25.6688 8.25119 24.2182 8.27039C22.4346 8.28959 20.5347 8.35295 18.6387 8.44607C16.7427 8.54495 14.8506 8.67935 13.0813 8.82431C11.3111 8.98271 9.66274 9.14111 8.25251 9.30815C6.84131 9.45407 5.67107 9.62303 4.85027 9.72575C4.03043 9.83231 3.56099 9.89279 3.56099 9.89279C3.56099 9.89279 4.03235 9.87167 4.85891 9.83711C5.68547 9.80639 6.86339 9.73823 8.28035 9.71519C9.69538 9.67007 11.3466 9.65471 13.1139 9.64991C14.8823 9.65663 16.7658 9.68639 18.6464 9.75167C19.3856 9.77855 20.1219 9.81215 20.8535 9.84959C20.0634 9.84095 19.2733 9.82847 18.4832 9.82847C13.5162 9.82847 8.55107 10.0051 3.59363 10.3584C3.55619 10.3603 3.51779 10.3622 3.48035 10.3622C2.67204 10.3622 1.98468 9.74399 1.9194 8.92607L1.92228 8.92511ZM1.51332 51.8687C1.64963 50.1369 1.78596 48.4051 1.92228 46.6732C1.98756 45.8543 2.67588 45.2361 3.48323 45.2361C3.52067 45.2361 3.55811 45.2371 3.59651 45.2399C8.55299 45.5932 13.5191 45.7699 18.4861 45.7699C20.0231 45.7699 21.56 45.7468 23.0979 45.7132C21.657 45.8102 20.1555 45.886 18.6493 45.9417C16.7687 46.0079 14.8851 46.0367 13.1168 46.0444C11.3495 46.0396 9.69827 46.0233 8.28323 45.9791C6.86627 45.9561 5.68835 45.8879 4.86179 45.8572C4.03523 45.8227 3.56387 45.8015 3.56387 45.8015C3.56387 45.8015 4.03331 45.863 4.85315 45.9686C5.67395 46.0713 6.84515 46.2403 8.25539 46.3862C9.66562 46.5532 11.313 46.7126 13.0842 46.87C14.8535 47.0159 16.7456 47.1503 18.6416 47.2483C20.5376 47.3414 22.4374 47.4057 24.2211 47.4239C25.9914 47.447 27.6454 47.4249 29.071 47.3865C26.6432 49.127 22.7984 51.4243 17.8631 52.869C16.9847 52.8921 16.1063 52.9218 15.2403 52.9314C14.241 52.9391 13.256 52.9478 12.3037 52.9554C10.3981 52.9478 8.61826 52.9276 7.09283 52.8786C5.56547 52.8508 4.29635 52.7779 3.40547 52.7443C2.5146 52.7049 2.0058 52.6838 2.0058 52.6838C2.0058 52.6838 2.51172 52.7481 3.39587 52.8575C4.28099 52.9631 5.54339 53.1398 7.06595 53.2914C8.58562 53.4642 10.3626 53.6294 12.2701 53.7916C12.6205 53.8175 12.9776 53.8434 13.3357 53.8694C13.0256 53.9164 12.7136 53.9596 12.3968 53.998C9.26434 53.9106 6.13571 53.7638 3.00803 53.541C2.11524 53.4767 1.44708 52.727 1.51619 51.8706L1.51332 51.8687ZM36.5513 9.04511L36.7702 6.26495L36.9603 3.84767C37.0246 3.04224 36.7664 2.25696 36.2345 1.63584C35.6873 0.999359 34.9203 0.615359 34.0736 0.554879C28.9088 0.1872 23.6634 0 18.4861 0C13.3079 0 8.06339 0.18624 2.89763 0.554879C2.05188 0.614399 1.28388 0.999359 0.736677 1.63584C0.203877 2.25504 -0.0534021 3.04032 0.0109178 3.84863L0.200999 6.26399L0.418917 9.04319C0.531237 10.4313 1.57764 11.5555 2.90339 11.8128V43.7846C1.57668 44.0419 0.530278 45.166 0.419878 46.5523L0.214437 49.1529L0.00995683 51.7506C-0.0553231 52.5551 0.201956 53.3404 0.735716 53.9606C1.28291 54.598 2.05092 54.981 2.89763 55.0415C8.06243 55.4092 13.3079 55.5964 18.4861 55.5964C23.6634 55.5964 28.9088 55.4102 34.0736 55.0415C34.9193 54.982 35.6873 54.598 36.2345 53.9615C36.7673 53.3414 37.0256 52.5551 36.9603 51.7478L36.7558 49.1519L36.5513 46.5532C36.4409 45.1651 35.3936 44.0409 34.0669 43.7836V11.8118C35.3936 11.5545 36.44 10.4304 36.5504 9.04415L36.5513 9.04511Z" fill="#D3BC88"/>
</svg>