<svg width="49" height="51" viewBox="0 0 49 51" fill="none" xmlns="http://www.w3.org/2000/svg">
<path d="M24.3117 48.119C19.0384 48.119 13.479 47.5737 9.03905 46.6195C3.74177 45.4809 2.41218 44.182 2.20194 43.7846C2.07234 41.6889 3.33474 40.9939 3.71874 40.8604L4.93313 40.5359L5.11169 39.2841C5.62625 35.6639 6.66785 28.5004 7.68257 21.8937C8.07041 21.9091 8.42945 21.552 8.53793 21.0173C8.60033 20.711 8.57537 20.3932 8.47073 20.1196C8.37473 19.8701 8.22209 19.6896 8.03873 19.5888C8.19905 18.5664 8.35553 17.5709 8.50721 16.6185C8.63201 16.9267 8.83265 17.1533 9.07937 17.2512C9.09857 17.2589 9.11873 17.2656 9.13793 17.2713C9.64097 17.424 10.1459 16.9939 10.2851 16.3056C10.3552 15.9571 10.3283 15.5942 10.2074 15.2793C10.0835 14.9539 9.87809 14.7216 9.62753 14.6217C9.60833 14.6141 9.58913 14.6073 9.56993 14.6016C9.29441 14.5181 9.01409 14.6179 8.79329 14.8416C9.01697 13.4726 9.22529 12.2313 9.41249 11.1753C9.42593 11.3481 9.45569 11.5171 9.51041 11.6755C9.63617 12.0413 9.85697 12.3053 10.1306 12.4137C10.1498 12.4214 10.1709 12.4291 10.191 12.4349C10.72 12.5952 11.2509 12.1104 11.3978 11.3491C11.4717 10.9661 11.4429 10.5667 11.319 10.224C11.1914 9.86975 10.9773 9.61919 10.7171 9.51455C10.6979 9.50687 10.6778 9.50015 10.6586 9.49439C10.2554 9.37151 9.83873 9.64223 9.60065 10.1395C9.77729 9.18623 9.92705 8.45375 10.0403 8.01407C10.553 6.02783 11.4746 5.21087 13.0816 4.24319C13.649 3.90047 14.3075 3.62783 15.0525 3.41088C15.3443 3.51263 15.7389 3.57599 16.1757 3.57599C17.0733 3.57599 17.8019 3.312 17.8019 2.98752C17.8019 2.95296 17.7894 2.9184 17.7731 2.8848C19.6221 2.66208 21.8061 2.60064 24.3117 2.60064C25.3533 2.60064 26.3363 2.61312 27.2665 2.64096C27.0688 2.73792 26.9488 2.85792 26.9488 2.98752C26.9488 3.312 27.6755 3.57599 28.5741 3.57599C29.4717 3.57599 30.2003 3.312 30.2003 2.98752C30.2003 2.9232 30.1648 2.86368 30.1139 2.80608C30.5085 2.84352 30.8877 2.88768 31.2534 2.93856C31.2745 3.25728 31.9897 3.5136 32.8758 3.5136C33.16 3.5136 33.424 3.48479 33.6563 3.43776C34.3657 3.65087 34.9965 3.91391 35.5417 4.24319C35.9718 4.50239 36.351 4.75007 36.688 5.01311C36.4739 5.08991 36.2406 5.16959 35.9862 5.25119C35.5139 5.40575 34.9772 5.57375 34.383 5.73599C34.2342 5.78111 34.072 5.82047 33.9155 5.86175C33.6333 5.77631 33.2733 5.72255 32.8758 5.72255C31.9782 5.72255 31.2496 5.98559 31.2496 6.31199C31.2496 6.36863 31.2793 6.42335 31.3216 6.47519C30.9769 6.54815 30.6256 6.62015 30.2656 6.67775C29.5014 6.81119 28.7104 6.94751 27.8992 7.03775C27.3904 7.11167 26.8739 7.16255 26.3545 7.20863C26.2854 6.90623 25.5942 6.66815 24.7427 6.66815C23.8441 6.66815 23.1165 6.93119 23.1165 7.25663C23.1165 7.30463 23.1366 7.35071 23.1664 7.39487C23.0944 7.39775 23.0224 7.39967 22.9504 7.40255C22.4857 7.42463 22.0259 7.41695 21.5709 7.40639C21.6064 7.35839 21.6314 7.30847 21.6314 7.25663C21.6314 6.93119 20.9037 6.66815 20.0061 6.66815C19.1085 6.66815 18.3798 6.93119 18.3798 7.25663C18.3798 7.25759 18.3818 7.25855 18.3818 7.26047C18.3482 7.25855 18.3126 7.25471 18.28 7.25279C17.5581 7.21823 16.8842 7.11647 16.2602 7.03583C15.6371 6.94655 15.0573 6.89759 14.5552 6.79487C14.0512 6.69791 13.6125 6.61247 13.2506 6.54239C12.5258 6.40223 12.111 6.32159 12.111 6.32159C12.111 6.32159 12.5152 6.44447 13.2218 6.65951C13.576 6.76703 14.007 6.89663 14.5005 7.04735C14.993 7.20287 15.5651 7.31135 16.1824 7.46687C16.8016 7.61471 17.4717 7.78751 18.1926 7.89791C18.5536 7.96223 18.9222 8.02751 19.3005 8.09567C19.6787 8.16575 20.0656 8.23295 20.4621 8.27327C21.255 8.35871 22.0749 8.49503 22.9139 8.54495C23.7529 8.59391 24.6064 8.69087 25.4627 8.68991C26.319 8.71199 27.1782 8.73311 28.0221 8.69855C28.8697 8.69279 29.7001 8.63807 30.5056 8.58239C31.3129 8.53631 32.0867 8.42975 32.8259 8.35871C33.0342 8.32799 33.2329 8.30111 33.4345 8.27423C33.7581 9.24287 34.0374 10.3469 34.2601 11.5987C34.1622 11.6745 34.0691 11.759 33.9923 11.8598C33.759 12.1641 33.6582 12.5405 33.7139 12.9216C33.7869 13.4342 34.1392 13.848 34.6067 14.0496C34.6077 14.0563 34.6086 14.064 34.6086 14.0707C34.7008 14.9529 34.7949 15.8841 34.8899 16.8461C34.887 16.8499 34.8841 16.8528 34.8813 16.8557C34.6557 17.1417 34.5587 17.4921 34.6134 17.8425C34.6614 18.1507 34.8275 18.4166 35.0608 18.6153C35.1884 19.9526 35.3152 21.3341 35.4419 22.7289C35.4054 22.8681 35.3958 23.0121 35.4208 23.1571C35.4352 23.2454 35.4659 23.3299 35.5024 23.4096C35.6032 24.5318 35.703 25.6588 35.8 26.7753C35.4803 26.8224 35.1453 26.8694 34.7929 26.9136C34.0816 27.0172 33.3078 27.0931 32.4899 27.1862C31.6701 27.2649 30.8041 27.3427 29.9065 27.4051C29.0089 27.454 28.0806 27.526 27.136 27.5414C26.6637 27.5558 26.1875 27.5692 25.7094 27.5836C25.2313 27.5827 24.7513 27.5827 24.2704 27.5817C23.3094 27.5932 22.3494 27.552 21.4038 27.5164C20.4563 27.4972 19.5299 27.408 18.6294 27.3465C17.728 27.2966 16.864 27.1776 16.0413 27.0873C15.6304 27.0393 15.2301 26.9932 14.8432 26.9491C14.4592 26.8876 14.0877 26.8291 13.7315 26.7715C13.0182 26.6544 12.3616 26.5632 11.7846 26.4528C11.2096 26.3337 10.7085 26.2291 10.2957 26.1427C9.46913 25.9708 8.99681 25.8729 8.99681 25.8729C8.99681 25.8729 9.46433 25.991 10.2832 26.1984C10.6922 26.303 11.1894 26.4288 11.7597 26.5728C12.3328 26.7081 12.9866 26.8272 13.695 26.976C14.0502 27.048 14.4208 27.1238 14.8038 27.2006C15.1888 27.263 15.5882 27.3264 15.9981 27.3916C16.8198 27.5174 17.6829 27.6739 18.5862 27.7641C19.4877 27.864 20.417 27.9955 21.3683 28.054C22.3177 28.1318 23.2845 28.2144 24.2521 28.2441C24.7369 28.2652 25.2208 28.2864 25.7027 28.3065C26.1846 28.3132 26.6665 28.319 27.1437 28.3257C28.0979 28.3507 29.0368 28.318 29.9469 28.3075C30.856 28.2844 31.7344 28.2422 32.5677 28.198C33.4 28.1404 34.1881 28.0963 34.9139 28.0224C35.2566 27.9936 35.584 27.9619 35.8969 27.9302C36.1993 31.3987 36.4758 34.6896 36.7014 37.2892C36.3913 37.342 36.0688 37.3939 35.7318 37.4457C34.96 37.5763 34.1181 37.679 33.2272 37.798C32.3363 37.9027 31.3945 38.0054 30.4192 38.0927C29.4419 38.1619 28.432 38.2636 27.4038 38.2953C26.8893 38.3183 26.3709 38.3433 25.8496 38.3663C25.3283 38.374 24.8061 38.3807 24.2829 38.3884C23.2355 38.4172 22.1891 38.3855 21.1581 38.3587C20.1261 38.351 19.1152 38.2627 18.1341 38.2041C17.151 38.159 16.2093 38.0361 15.3126 37.943C14.8643 37.894 14.4285 37.847 14.007 37.8009C13.5875 37.7356 13.1824 37.6723 12.7946 37.6118C12.0179 37.487 11.3008 37.39 10.673 37.271C10.0461 37.1404 9.49985 37.0262 9.04961 36.9331C8.14913 36.7449 7.63457 36.6383 7.63457 36.6383C7.63457 36.6383 8.14433 36.766 9.03617 36.9887C9.48257 37.1001 10.0259 37.2355 10.647 37.391C11.272 37.535 11.9843 37.6598 12.759 37.8153C13.1469 37.8921 13.5501 37.9718 13.9677 38.0534C14.3891 38.1167 14.825 38.1811 15.2723 38.2483C16.168 38.3769 17.1107 38.5382 18.0957 38.6217C19.0787 38.7187 20.0934 38.8483 21.1322 38.8953C22.1689 38.9644 23.2211 39.0374 24.2771 39.0508C24.8051 39.0633 25.3321 39.0777 25.8582 39.0911C26.3843 39.0873 26.9085 39.0844 27.4278 39.0806C28.4685 39.0892 29.4899 39.0278 30.4816 38.9961C31.4704 38.9462 32.4265 38.8799 33.3337 38.8089C34.2381 38.7235 35.0953 38.6524 35.8835 38.5516C36.2022 38.5161 36.5065 38.4787 36.8022 38.4403C36.8944 39.4953 36.976 40.3948 37.0441 41.0985C36.1993 41.2588 35.2806 41.3923 34.3091 41.5449C33.3126 41.6851 32.2595 41.8223 31.167 41.9452C30.0726 42.047 28.9417 42.1843 27.7878 42.2457C27.2099 42.2841 26.6291 42.3235 26.0445 42.3628C25.4598 42.383 24.8723 42.4041 24.2848 42.4243C23.1097 42.4809 21.9328 42.4713 20.7731 42.4636C19.6125 42.4799 18.4749 42.4041 17.369 42.3619C16.2611 42.3331 15.1994 42.2159 14.1885 42.1324C13.6816 42.0883 13.1901 42.0431 12.7149 42.0019C12.2416 41.9375 11.7837 41.8761 11.345 41.8166C10.4675 41.6918 9.65825 41.5996 8.94593 41.4796C8.23745 41.3462 7.61921 41.23 7.10945 41.134C6.08993 40.943 5.50721 40.8326 5.50721 40.8326C5.50721 40.8326 6.07937 40.9871 7.08065 41.2579C7.58273 41.3932 8.19233 41.5583 8.89121 41.7465C9.59393 41.9222 10.3955 42.0777 11.2672 42.2707C11.703 42.3647 12.1581 42.4627 12.6294 42.5644C13.1037 42.6451 13.5952 42.7276 14.0982 42.8121C15.1091 42.9753 16.1728 43.1779 17.2845 43.2931C18.3952 43.4236 19.5414 43.5907 20.7146 43.6665C21.8857 43.7654 23.079 43.8681 24.2733 43.9046C24.8713 43.9305 25.4694 43.9564 26.0656 43.9823C26.6608 43.9881 27.255 43.9948 27.8445 44.0015C29.0243 44.0313 30.184 43.9814 31.3081 43.9651C32.4323 43.9267 33.5181 43.87 34.5481 43.8067C35.5773 43.727 36.5526 43.6636 37.4502 43.5628C37.9907 43.5129 38.4995 43.4543 38.9814 43.3958C39.7081 44.0044 40.4368 44.9443 40.7248 46.3555C40.3628 46.4447 39.9865 46.5331 39.5804 46.6204C35.1395 47.5746 29.5801 48.1199 24.3078 48.1199L24.3117 48.119ZM42.3808 30.1814C42.6553 32.0889 42.8752 33.8755 43.0777 35.4048C43.2803 36.934 43.4195 38.2118 43.5289 39.1055C43.5788 39.5558 43.5846 39.9081 43.6038 40.1491C43.6182 40.3891 43.6259 40.5187 43.6259 40.5187C43.6259 40.5187 43.6096 40.391 43.5798 40.1519C43.5472 39.9139 43.5116 39.5596 43.4444 39.119C43.2966 38.231 43.0854 36.9628 42.8329 35.4422C42.59 33.9187 42.3068 32.1427 42.0025 30.238C41.7078 28.3334 41.3939 26.3011 41.08 24.2697C40.4742 20.2032 39.8675 16.1366 39.4134 13.0857C39.1744 11.5641 38.9968 10.2893 38.8374 9.40607C38.7644 8.96255 38.702 8.61407 38.6521 8.37791C38.607 8.14079 38.583 8.01503 38.583 8.01503C38.583 8.01503 38.6156 8.13983 38.6761 8.37215C38.7385 8.60543 38.8288 8.94623 38.9209 9.38783C39.1168 10.2681 39.3788 11.5267 39.6572 13.0445C39.9308 14.5622 40.2582 16.3334 40.5654 18.2371C40.8688 20.1408 41.1923 22.1721 41.5148 24.2035C41.8105 26.2387 42.1043 28.2748 42.3808 30.1824V30.1814ZM45.7158 38.8982C45.7158 38.8982 42.0217 11.5641 40.9465 7.27775C39.8454 2.88288 36.592 0 24.3117 0C12.0314 0 8.77697 2.88288 7.67585 7.27775C6.60065 11.5641 2.90754 38.8982 2.90754 38.8982C2.90754 38.8982 -0.279658 39.9811 0.0198617 43.8191C0.312661 47.5651 12.9549 50.063 24.3126 50.063C35.6694 50.063 48.3126 47.5651 48.6044 43.8191C48.904 39.9811 45.7168 38.8982 45.7168 38.8982H45.7158Z" fill="#D3BC88"/>
<path d="M29.7827 46.3431C29.2173 46.3498 28.5789 46.3421 27.8829 46.3248C27.1878 46.3104 26.4352 46.297 25.6403 46.2989C24.8454 46.2797 24.0083 46.2346 23.1424 46.2221C22.2765 46.2221 21.3856 46.1299 20.4774 46.1031C19.5693 46.0781 18.6515 45.9927 17.7338 45.9207C16.8131 45.8775 15.8992 45.7623 14.9968 45.6749C14.0944 45.5856 13.2122 45.4618 12.3549 45.361C11.5063 45.2131 10.673 45.1248 9.8973 44.9731C9.50754 44.9031 9.12835 44.8349 8.76163 44.7687C8.39683 44.6938 8.04355 44.6218 7.70467 44.5517C7.36387 44.4883 7.04323 44.4067 6.73699 44.3347C6.43075 44.2618 6.13411 44.2032 5.86339 44.1283C5.32003 43.9834 4.84195 43.8615 4.45411 43.7424C4.06627 43.6253 3.75907 43.5322 3.55363 43.4602C3.34723 43.3911 3.23779 43.3459 3.23779 43.3459C3.23779 43.3459 3.33475 43.4093 3.52483 43.5207C3.71491 43.6301 3.99331 43.7952 4.36291 43.9738C4.73059 44.1571 5.18275 44.3655 5.71363 44.5824C6.24451 44.7917 6.84451 45.0365 7.51651 45.2448C7.85251 45.3523 8.20195 45.4647 8.56387 45.5799C8.93155 45.6787 9.30978 45.7805 9.69954 45.8851C10.4781 46.1002 11.3114 46.2682 12.1744 46.4487C12.6074 46.5235 13.048 46.5984 13.4944 46.6762C13.9408 46.7549 14.393 46.8336 14.8528 46.8787C15.7706 46.9815 16.7008 47.113 17.6359 47.1715C18.5719 47.2339 19.5059 47.3031 20.4285 47.3146C21.3501 47.3415 22.2573 47.3587 23.1338 47.328C24.0112 47.3088 24.8579 47.28 25.6595 47.2349C26.4611 47.1792 27.2186 47.1101 27.9155 47.0448C28.264 47.0122 28.5981 46.9805 28.9158 46.9498C29.2326 46.9056 29.5331 46.8624 29.8144 46.8221C30.3779 46.7443 30.8685 46.6647 31.2726 46.6013C32.079 46.4717 32.5379 46.3843 32.5379 46.3843C32.5379 46.3843 32.0694 46.3651 31.2534 46.3517C30.8464 46.3488 30.352 46.3459 29.7846 46.3411L29.7827 46.3431Z" fill="#D3BC88"/>
<path d="M12.4452 10.5858C12.4644 10.5916 12.4836 10.5964 12.5018 10.6012C13.122 10.7385 13.7162 10.2297 13.8544 9.45688C13.9245 9.07192 13.8756 8.67928 13.7191 8.34904C13.5588 8.00728 13.3053 7.774 13.0039 7.68568C12.9856 7.67992 12.9674 7.67513 12.9492 7.67129C12.3607 7.53785 11.7703 8.014 11.6013 8.77048C11.5169 9.15256 11.5524 9.55192 11.706 9.89368C11.8644 10.2479 12.1274 10.4946 12.4442 10.5858H12.4452Z" fill="#D3BC88"/>
<path d="M16.8968 11.5295C16.9102 11.5314 16.9237 11.5333 16.9381 11.5352C17.7435 11.636 18.4798 11.0668 18.5768 10.2844C18.6267 9.90229 18.5249 9.52021 18.2974 9.20917C18.0613 8.88661 17.7176 8.67733 17.3259 8.61685C17.3134 8.61493 17.3 8.61301 17.2885 8.61109C16.5099 8.51125 15.7899 9.03349 15.6478 9.81589C15.5787 10.1999 15.6641 10.5896 15.8926 10.9122C16.1288 11.2482 16.4869 11.4671 16.8968 11.5295Z" fill="#D3BC88"/>
<path d="M22.1375 12.1104C22.9986 12.1661 23.7138 11.5401 23.7426 10.7328C23.7695 9.92926 23.1311 9.23902 22.318 9.17854H22.3161C22.3141 9.17854 22.3122 9.17854 22.3103 9.17758C21.5001 9.12094 20.781 9.7123 20.7081 10.511C20.6745 10.8969 20.7973 11.2771 21.0585 11.5785C21.3292 11.8915 21.7141 12.0806 22.1365 12.1104H22.1375Z" fill="#D3BC88"/>
<path d="M27.3502 12.2852C27.3521 12.2852 27.3521 12.2852 27.354 12.2852C27.3617 12.2852 27.3694 12.2852 27.3761 12.2852C27.7966 12.2813 28.1835 12.1143 28.4609 11.8186C28.7278 11.5345 28.8612 11.1629 28.8391 10.777C28.7931 9.97541 28.1287 9.35333 27.3243 9.34277C27.3223 9.34277 27.3223 9.34277 27.3214 9.34277C27.3137 9.34277 27.307 9.34277 27.2993 9.34277C26.8971 9.34277 26.5246 9.49925 26.2443 9.78149C25.9745 10.0551 25.8238 10.418 25.8257 10.8058C25.8267 11.6074 26.5121 12.2785 27.3502 12.2852Z" fill="#D3BC88"/>
<path d="M32.4562 12.0413C32.4754 12.0394 32.4955 12.0384 32.5147 12.0365C32.9266 12.001 33.2894 11.8051 33.5362 11.4902C33.7742 11.1869 33.8721 10.8077 33.8165 10.4256C33.7041 9.65856 33.0149 9.096 32.245 9.1296C32.2258 9.13152 32.2075 9.13152 32.1883 9.13344C31.7938 9.16608 31.4414 9.34944 31.1909 9.6528C30.949 9.9456 30.8338 10.3181 30.8712 10.7021C30.9442 11.4874 31.6421 12.0826 32.4552 12.0422L32.4562 12.0413Z" fill="#D3BC88"/>
<path d="M12.9681 11.7916C12.8875 12.1785 12.9489 12.5778 13.1438 12.9138C13.3464 13.2633 13.667 13.5013 14.0424 13.5791C14.0596 13.582 14.0769 13.5858 14.0952 13.5887C14.8353 13.7125 15.514 13.174 15.6408 12.382C15.7032 11.9951 15.6283 11.6044 15.4305 11.2809C15.226 10.9439 14.9188 10.7183 14.5608 10.6415C14.5444 10.6386 14.5272 10.6357 14.5099 10.6319C13.8072 10.5129 13.1304 11.0159 12.9672 11.7925L12.9681 11.7916Z" fill="#D3BC88"/>
<path d="M17.7857 12.6892C17.7319 13.0799 17.8433 13.4697 18.1034 13.7865C18.3732 14.1167 18.7697 14.3251 19.2132 14.3711C19.2151 14.3711 19.2151 14.3711 19.217 14.3711C19.2247 14.3721 19.2324 14.3731 19.2401 14.374C20.1213 14.4537 20.8913 13.847 20.9575 13.0406C20.9911 12.6518 20.8634 12.2716 20.6042 11.9663C20.3345 11.6495 19.9553 11.4518 19.5319 11.4057C19.53 11.4048 19.53 11.4048 19.5281 11.4048C19.5213 11.4038 19.5137 11.4028 19.5069 11.4028C18.6554 11.3232 17.8989 11.8809 17.7857 12.6902V12.6892Z" fill="#D3BC88"/>
<path d="M23.1835 13.1876C23.147 14.0045 23.8373 14.7063 24.7186 14.7332C25.165 14.7457 25.5729 14.5921 25.8753 14.305C26.1643 14.0295 26.3198 13.6628 26.316 13.2749C26.3064 12.4714 25.6219 11.8061 24.7877 11.7745C24.7877 11.7745 24.7867 11.7745 24.7858 11.7745C24.7838 11.7745 24.78 11.7745 24.7781 11.7745C23.9352 11.7485 23.2181 12.3745 23.1835 13.1876Z" fill="#D3BC88"/>
<path d="M30.1073 14.6641C30.1217 14.6631 30.1371 14.6622 30.1515 14.6622C30.5806 14.6382 30.9675 14.4548 31.2372 14.1457C31.4964 13.849 31.6145 13.4737 31.5751 13.0887C31.4916 12.3034 30.7947 11.715 29.9844 11.7313C29.97 11.7313 29.9556 11.7322 29.9422 11.7332C29.5323 11.7524 29.1579 11.9252 28.8852 12.2209C28.6222 12.506 28.4849 12.8756 28.506 13.2606C28.5463 14.0622 29.251 14.6862 30.1083 14.6631L30.1073 14.6641Z" fill="#D3BC88"/>
<path d="M11.4218 15.529C11.4419 15.5347 11.463 15.5395 11.4842 15.5443C12.1398 15.6893 12.7696 15.1824 12.9145 14.4067C12.9865 14.0227 12.9337 13.6282 12.7677 13.2941C12.5958 12.9475 12.3251 12.7075 12.0035 12.6154C11.9843 12.6096 11.9642 12.6058 11.945 12.6C11.319 12.4598 10.695 12.9322 10.5184 13.6906C10.431 14.0736 10.4704 14.4758 10.6346 14.8214C10.8035 15.1805 11.0848 15.433 11.4218 15.529Z" fill="#D3BC88"/>
<path d="M16.5577 13.5839C16.5442 13.582 16.5298 13.5801 16.5154 13.5782C15.6802 13.4755 14.9103 14.0035 14.7625 14.7974C14.6914 15.1862 14.7845 15.5807 15.0284 15.9081C15.2837 16.2499 15.6677 16.4755 16.1084 16.5388C16.1237 16.5407 16.1381 16.5427 16.1525 16.5446C17.03 16.6492 17.7989 16.0847 17.9036 15.2774C17.9554 14.8895 17.8469 14.5036 17.6012 14.1878C17.3458 13.8595 16.9772 13.6454 16.5567 13.583L16.5577 13.5839Z" fill="#D3BC88"/>
<path d="M22.0046 14.1513H22.0037C22.0017 14.1513 21.9979 14.1513 21.996 14.1513C21.1233 14.0975 20.3515 14.7004 20.2766 15.5145C20.2411 15.9062 20.3745 16.293 20.6539 16.5983C20.9467 16.918 21.3614 17.11 21.8184 17.1378C22.7448 17.1916 23.5128 16.5494 23.5416 15.7266C23.5685 14.9087 22.8811 14.2098 22.0046 14.1513Z" fill="#D3BC88"/>
<path d="M27.4769 14.2993C27.4759 14.2983 27.475 14.2993 27.4731 14.2983C27.4654 14.2993 27.4577 14.2993 27.45 14.2993C27.0219 14.3051 26.6225 14.4654 26.3249 14.7543C26.0388 15.0327 25.8804 15.3995 25.8823 15.7873C25.8862 16.5966 26.6158 17.2667 27.5076 17.2638C27.5095 17.2638 27.5095 17.2638 27.5115 17.2638C27.5201 17.2638 27.5278 17.2638 27.5355 17.2638C27.9847 17.2561 28.3956 17.0833 28.6903 16.7809C28.9735 16.491 29.1147 16.1175 29.0916 15.7287C29.0436 14.9223 28.3361 14.3012 27.4769 14.2993Z" fill="#D3BC88"/>
<path d="M32.7873 14.0323C32.3707 14.0707 31.9982 14.2598 31.7351 14.566C31.4817 14.8627 31.3617 15.2342 31.4001 15.6163C31.4788 16.3977 32.2132 16.9814 33.0676 16.9286C33.0887 16.9267 33.1099 16.9257 33.131 16.9228C33.5659 16.8806 33.9479 16.679 34.2071 16.3593C34.4558 16.0531 34.5594 15.6739 34.5009 15.2947C34.3818 14.5305 33.658 13.9804 32.8468 14.0255C32.8276 14.0275 32.8065 14.0284 32.7873 14.0303V14.0323Z" fill="#D3BC88"/>
<path d="M14.7356 17.4336C14.798 17.0573 14.7193 16.6762 14.5167 16.3584C14.3055 16.0282 13.9868 15.8045 13.6172 15.7277C13.5999 15.7239 13.5817 15.721 13.5634 15.7171C12.8377 15.5971 12.1436 16.0829 11.9804 16.8423C11.8998 17.2186 11.965 17.6083 12.1666 17.9376C12.3769 18.2813 12.7071 18.5155 13.094 18.5943C13.1132 18.5981 13.1314 18.601 13.1497 18.6048C13.91 18.7277 14.6079 18.2055 14.7375 17.4336H14.7356Z" fill="#D3BC88"/>
<path d="M18.9663 16.4593C18.9644 16.4593 18.9644 16.4593 18.9624 16.4583C18.9548 16.4574 18.9461 16.4564 18.9394 16.4564C18.0216 16.3767 17.2095 16.9451 17.0904 17.7707C17.0348 18.1681 17.1548 18.5655 17.4351 18.8871C17.7269 19.2241 18.1532 19.4372 18.6332 19.4833C18.6341 19.4833 18.6351 19.4843 18.637 19.4843C18.6456 19.4852 18.6533 19.4862 18.6629 19.4862C19.6095 19.5649 20.436 18.9438 20.5061 18.122C20.5407 17.7275 20.4034 17.3396 20.124 17.0295C19.8322 16.707 19.4232 16.5054 18.9663 16.4593Z" fill="#D3BC88"/>
<path d="M24.7098 16.8174C24.7098 16.8174 24.7089 16.8174 24.7079 16.8174C24.705 16.8174 24.7022 16.8174 24.6993 16.8174C23.7911 16.7972 23.0231 17.4394 22.9866 18.2679C22.9502 19.0993 23.6932 19.8087 24.6407 19.8298C25.1217 19.8385 25.5604 19.6791 25.8849 19.3815C26.194 19.0993 26.3591 18.7258 26.3553 18.3313C26.3438 17.5134 25.6065 16.8433 24.7098 16.8174Z" fill="#D3BC88"/>
<path d="M30.5123 19.6627C30.5286 19.6617 30.544 19.6608 30.5603 19.6608C31.0086 19.632 31.4138 19.4438 31.696 19.1328C31.9658 18.8352 32.0906 18.4608 32.0483 18.0806C31.9629 17.3021 31.2323 16.7261 30.3827 16.7539C30.3674 16.7539 30.353 16.7549 30.3376 16.7558C29.9056 16.7808 29.513 16.9584 29.2269 17.256C28.9533 17.543 28.8112 17.9097 28.8333 18.2928C28.8775 19.0877 29.6157 19.6973 30.5123 19.6646V19.6627Z" fill="#D3BC88"/>
<path d="M10.3685 20.4412C10.3877 20.4469 10.4069 20.4517 10.4261 20.4556C11.0251 20.5861 11.5992 20.1513 11.7317 19.4793C11.7979 19.1452 11.7489 18.7996 11.5963 18.5058C11.4379 18.1996 11.1873 17.9874 10.8907 17.9029C10.8725 17.8981 10.8533 17.8933 10.835 17.8885C10.26 17.7618 9.68878 18.1689 9.53326 18.8293C9.45454 19.1625 9.49391 19.5138 9.64462 19.8162C9.80014 20.1273 10.0651 20.3567 10.3694 20.4421L10.3685 20.4412Z" fill="#D3BC88"/>
<path d="M16.7365 19.4179C16.4878 19.1145 16.1269 18.9158 15.717 18.8582C15.7035 18.8563 15.6891 18.8553 15.6747 18.8525C14.8626 18.7584 14.1176 19.2441 13.9784 19.9757C13.9112 20.3337 14.0034 20.6976 14.2415 20.999C14.4901 21.3148 14.8645 21.5222 15.2917 21.5808C15.307 21.5827 15.3214 21.5846 15.3358 21.5865C16.1835 21.6825 16.9285 21.1632 17.0302 20.4221C17.0802 20.0649 16.9746 19.7088 16.7365 19.4179Z" fill="#D3BC88"/>
<path d="M21.6748 19.3324H21.6738C21.6719 19.3324 21.6681 19.3324 21.6661 19.3324C20.7532 19.2834 19.9487 19.8853 19.8738 20.6898C19.8393 21.0786 19.9785 21.4578 20.2713 21.7593C20.5785 22.0741 21.0105 22.2633 21.4885 22.2892C22.4543 22.3362 23.254 21.6969 23.2828 20.8837C23.3135 20.0735 22.5916 19.3871 21.6748 19.3324Z" fill="#D3BC88"/>
<path d="M27.6505 19.4612C27.6486 19.4612 27.6476 19.4612 27.6457 19.4612C27.638 19.4612 27.6294 19.4612 27.6227 19.4622C27.1801 19.4718 26.7702 19.633 26.4649 19.9191C26.1721 20.1918 26.0118 20.5508 26.0147 20.929C26.0214 21.7153 26.7721 22.3604 27.6851 22.3489C27.686 22.3489 27.688 22.3489 27.6889 22.3489C27.6976 22.3489 27.7062 22.3489 27.7148 22.3479C28.1747 22.3354 28.5971 22.1626 28.9004 21.8641C29.1884 21.5799 29.3344 21.2132 29.3104 20.8359C29.2614 20.0506 28.5337 19.4545 27.6515 19.4602L27.6505 19.4612Z" fill="#D3BC88"/>
<path d="M33.4511 19.1664C33.0411 19.2086 32.6744 19.392 32.4162 19.6838C32.1675 19.9641 32.0495 20.3136 32.0898 20.6688C32.1675 21.3964 32.8885 21.9292 33.7256 21.8668C33.7477 21.8649 33.7679 21.863 33.7899 21.8611C34.2152 21.814 34.5925 21.6201 34.8469 21.3168C35.0907 21.0268 35.1915 20.6736 35.1349 20.3212C35.0216 19.6099 34.3112 19.1078 33.5125 19.1625C33.4923 19.1644 33.4712 19.1654 33.4511 19.1683V19.1664Z" fill="#D3BC88"/>
<path d="M12.5505 21.2092C12.5361 21.2063 12.5217 21.2034 12.5063 21.2005C11.9198 21.1007 11.3611 21.501 11.2334 22.1221C11.17 22.4313 11.2238 22.7509 11.387 23.0207C11.5579 23.302 11.8228 23.494 12.1329 23.5583C12.1483 23.5612 12.1627 23.5641 12.178 23.5669C12.7857 23.6687 13.3473 23.2444 13.4529 22.6146C13.5057 22.3055 13.4433 21.9906 13.2791 21.7295C13.1092 21.4569 12.851 21.2725 12.5515 21.2092H12.5505Z" fill="#D3BC88"/>
<path d="M18.3328 21.9793C18.3309 21.9793 18.3299 21.9793 18.328 21.9793C18.3213 21.9783 18.3146 21.9774 18.3069 21.9774C17.5091 21.914 16.8074 22.3863 16.7104 23.067C16.6663 23.3943 16.7728 23.7207 17.0167 23.9847C17.2701 24.2602 17.6387 24.435 18.0506 24.4714H18.0515C18.8925 24.5358 19.6067 24.025 19.6691 23.3492C19.7008 23.0247 19.5827 22.706 19.3399 22.4497C19.0864 22.1828 18.7293 22.0167 18.3319 21.9783L18.3328 21.9793Z" fill="#D3BC88"/>
<path d="M24.6316 22.2807H24.6297C24.6277 22.2807 24.6249 22.2807 24.622 22.2807C23.8108 22.2701 23.1273 22.8211 23.0994 23.5248C23.0725 24.2285 23.7349 24.8227 24.5749 24.8333C25.0012 24.8381 25.3909 24.6989 25.6789 24.4474C25.9535 24.2055 26.1033 23.8887 26.1004 23.5546C26.0937 22.8615 25.4351 22.296 24.6325 22.2807H24.6316Z" fill="#D3BC88"/>
<path d="M30.8311 22.1375C30.8176 22.1385 30.8032 22.1395 30.7898 22.1395C30.4029 22.1663 30.0525 22.3209 29.7981 22.5782C29.5543 22.8259 29.4314 23.1388 29.4525 23.4623C29.4967 24.1334 30.1533 24.6383 30.9444 24.5999C30.9588 24.599 30.9732 24.598 30.9876 24.598C31.386 24.5683 31.745 24.4041 31.9965 24.1372C32.2375 23.8819 32.3488 23.5641 32.3133 23.2425C32.2404 22.5839 31.5904 22.1039 30.8311 22.1366V22.1375Z" fill="#D3BC88"/>
<path d="M24.0005 4.61753C24.0005 4.29209 23.2729 4.02905 22.3743 4.02905C21.4767 4.02905 20.749 4.29209 20.749 4.61753C20.749 4.94297 21.4767 5.20697 22.3743 5.20697C23.2719 5.20697 24.0005 4.94297 24.0005 4.61753Z" fill="#D3BC88"/>
<path d="M24.5806 4.61753C24.5806 4.94297 25.3092 5.20697 26.2068 5.20697C27.1044 5.20697 27.833 4.94297 27.833 4.61753C27.833 4.29209 27.1044 4.02905 26.2068 4.02905C25.3092 4.02905 24.5806 4.29209 24.5806 4.61753Z" fill="#D3BC88"/>
<path d="M23.5589 5.34912C22.6613 5.34912 21.9336 5.61216 21.9336 5.9376C21.9336 6.26304 22.6603 6.52608 23.5589 6.52608C24.4565 6.52608 25.1851 6.26304 25.1851 5.9376C25.1851 5.61312 24.4565 5.34912 23.5589 5.34912Z" fill="#D3BC88"/>
<path d="M19.2757 6.0212C20.1733 6.0212 20.9019 5.75816 20.9019 5.43272C20.9019 5.10824 20.1733 4.84424 19.2757 4.84424C18.3781 4.84424 17.6504 5.10728 17.6504 5.43272C17.6504 5.75816 18.3781 6.0212 19.2757 6.0212Z" fill="#D3BC88"/>
<path d="M19.2757 4.39105C20.1733 4.39105 20.9019 4.12705 20.9019 3.80161C20.9019 3.47713 20.1733 3.21313 19.2757 3.21313C18.3781 3.21313 17.6504 3.47617 17.6504 3.80161C17.6504 4.12705 18.3781 4.39105 19.2757 4.39105Z" fill="#D3BC88"/>
<path d="M23.5589 3.88619C24.4565 3.88619 25.1851 3.62315 25.1851 3.29771C25.1851 2.97227 24.4565 2.70923 23.5589 2.70923C22.6613 2.70923 21.9336 2.97227 21.9336 3.29771C21.9336 3.62315 22.6603 3.88619 23.5589 3.88619Z" fill="#D3BC88"/>
<path d="M30.0379 5.20697C30.9355 5.20697 31.6631 4.94297 31.6631 4.61753C31.6631 4.29209 30.9355 4.02905 30.0379 4.02905C29.1403 4.02905 28.4116 4.29209 28.4116 4.61753C28.4116 4.94297 29.1403 5.20697 30.0379 5.20697Z" fill="#D3BC88"/>
<path d="M28.574 5.66016C27.6764 5.66016 26.9487 5.9232 26.9487 6.24864C26.9487 6.57312 27.6754 6.83712 28.574 6.83712C29.4716 6.83712 30.2002 6.57312 30.2002 6.24864C30.2002 5.9232 29.4716 5.66016 28.574 5.66016Z" fill="#D3BC88"/>
<path d="M16.1756 5.66016C15.278 5.66016 14.5493 5.9232 14.5493 6.24864C14.5493 6.57312 15.278 6.83712 16.1756 6.83712C17.0732 6.83712 17.8018 6.57312 17.8018 6.24864C17.8018 5.9232 17.0732 5.66016 16.1756 5.66016Z" fill="#D3BC88"/>
<path d="M14.7127 5.20697C15.6103 5.20697 16.3379 4.94297 16.3379 4.61753C16.3379 4.29209 15.6112 4.02905 14.7127 4.02905C13.8141 4.02905 13.0864 4.29209 13.0864 4.61753C13.0864 4.94297 13.8131 5.20697 14.7127 5.20697Z" fill="#D3BC88"/>
<path d="M33.8704 5.20697C34.768 5.20697 35.4957 4.94297 35.4957 4.61753C35.4957 4.29209 34.768 4.02905 33.8704 4.02905C32.9728 4.02905 32.2441 4.29209 32.2441 4.61753C32.2441 4.94297 32.9718 5.20697 33.8704 5.20697Z" fill="#D3BC88"/>
</svg>
