<svg width="60" height="60" viewBox="0 0 60 60" fill="none" xmlns="http://www.w3.org/2000/svg">
<path d="M3.25151 29.614C3.25151 15.0537 15.0547 3.25151 29.615 3.25151C40.7874 3.25151 50.3307 10.2057 54.1679 20.0188C53.6629 19.0012 53.1397 18.1468 52.6712 17.448C52.1279 16.6204 51.6239 16.0185 51.2936 15.6134C50.9471 15.2179 50.7608 15.0076 50.7608 15.0076C50.7608 15.0076 50.8799 15.262 51.1026 15.7372C51.2168 15.9734 51.3397 16.272 51.4914 16.6137C51.5682 16.7846 51.6363 16.9766 51.7179 17.1753C51.7995 17.374 51.8917 17.5824 51.9723 17.8099C52.3208 18.7065 52.676 19.8172 53.0005 21.095C53.3192 22.3737 53.5813 23.8319 53.7205 25.4217C53.7608 25.8172 53.7733 26.2252 53.8031 26.6361C53.8069 27.0498 53.8357 27.4694 53.8213 27.8975C53.8194 28.3238 53.8098 28.7567 53.7858 29.1964L53.78 29.3606L53.7762 29.4441C53.7762 29.4345 53.7752 29.494 53.7762 29.4287L53.7743 29.4498L53.7704 29.494L53.7416 29.8444C53.7224 30.0796 53.7023 30.3158 53.6831 30.5548C53.5151 32.2982 53.1253 34.1874 52.5282 36.0229C52.2363 36.9474 51.8619 37.8594 51.4664 38.7695C51.2408 39.213 51.0469 39.6738 50.7954 40.1097L50.4383 40.773L50.0514 41.4249C49.0088 43.1576 47.7263 44.7762 46.2844 46.2316C45.55 46.9458 44.805 47.6533 43.989 48.2706C43.7922 48.4328 43.5896 48.5874 43.3794 48.7323L42.764 49.1845C42.3368 49.4591 41.9288 49.7634 41.4882 50.013L40.8392 50.4018L40.1749 50.7589C39.741 51.0114 39.2821 51.2091 38.8377 51.4328C37.9314 51.8379 37.0175 52.2066 36.0959 52.5051C34.2527 53.1051 32.398 53.5026 30.6057 53.6792C30.1641 53.7138 29.6975 53.7647 29.2914 53.7858C29.0591 53.7954 28.8287 53.804 28.6012 53.8127C28.3871 53.8155 28.1759 53.8194 27.9666 53.8223C27.5558 53.8367 27.1286 53.8146 26.7167 53.8088C26.3039 53.7858 25.8979 53.7656 25.5014 53.732C22.318 53.4661 19.6828 52.6923 17.8848 52.0117C17.4345 51.8437 17.038 51.6738 16.6857 51.5355C16.342 51.3839 16.0425 51.2619 15.8064 51.1496C15.3312 50.9288 15.0768 50.8117 15.0768 50.8117C15.0768 50.8117 15.288 50.997 15.6844 51.3426C16.0934 51.6738 16.6915 52.173 17.5228 52.7144C18.2112 53.1733 19.0521 53.6879 20.0505 54.1832C10.2211 50.3528 3.25151 40.8018 3.25151 29.6159V29.614ZM29.615 0C13.2854 0 0 13.2854 0 29.614C0 45.9445 13.2854 59.229 29.615 59.229C45.9436 59.229 59.229 45.9436 59.229 29.614C59.229 13.2854 45.9436 0 29.615 0Z" fill="#D3BC88"/>
<path d="M27.3876 22.4245C27.3876 21.1957 28.387 20.1964 29.6148 20.1964C30.8427 20.1964 31.843 21.1957 31.843 22.4245C31.843 23.6533 30.8427 24.6527 29.6148 24.6527C28.386 24.6527 27.3876 23.6533 27.3876 22.4245ZM29.6148 18.7516C27.5864 18.7516 25.9409 20.3961 25.9409 22.4245C25.9409 24.453 27.5854 26.0984 29.6148 26.0984C31.6433 26.0984 33.2878 24.454 33.2878 22.4245C33.2878 20.3961 31.6433 18.7516 29.6148 18.7516Z" fill="#D3BC88"/>
<path d="M20.1972 29.614C20.1972 28.3862 21.1976 27.3868 22.4254 27.3868C23.6542 27.3868 24.6526 28.3871 24.6526 29.614C24.6526 30.8428 23.6532 31.8421 22.4254 31.8421C21.1976 31.8421 20.1972 30.8428 20.1972 29.614ZM22.4254 25.941C20.3969 25.941 18.7524 27.5855 18.7524 29.614C18.7524 31.6434 20.3969 33.2879 22.4254 33.2879C24.4539 33.2879 26.0983 31.6434 26.0983 29.614C26.0983 27.5865 24.4539 25.941 22.4254 25.941Z" fill="#D3BC88"/>
<path d="M36.8043 27.3858C38.0331 27.3858 39.0325 28.3861 39.0325 29.613C39.0325 30.8418 38.0331 31.8412 36.8043 31.8412C35.5755 31.8412 34.5761 30.8418 34.5761 29.613C34.5761 28.3852 35.5755 27.3858 36.8043 27.3858ZM36.8043 33.2869C38.8328 33.2869 40.4773 31.6424 40.4773 29.613C40.4773 27.5855 38.8328 25.9401 36.8043 25.9401C34.7758 25.9401 33.1313 27.5845 33.1313 29.613C33.1313 31.6424 34.7758 33.2869 36.8043 33.2869Z" fill="#D3BC88"/>
<path d="M27.3876 36.8044C27.3876 35.5756 28.387 34.5762 29.6148 34.5762C30.8427 34.5762 31.843 35.5756 31.843 36.8044C31.843 38.0332 30.8427 39.0326 29.6148 39.0326C28.386 39.0326 27.3876 38.0332 27.3876 36.8044ZM29.6148 33.1305C27.5864 33.1305 25.9409 34.775 25.9409 36.8044C25.9409 38.8329 27.5854 40.4774 29.6148 40.4774C31.6433 40.4774 33.2878 38.8329 33.2878 36.8044C33.2878 34.7759 31.6433 33.1305 29.6148 33.1305Z" fill="#D3BC88"/>
<path d="M16.8843 43.6597C18.4932 45.0008 20.1675 45.9685 21.7419 46.5598C21.9358 46.6405 22.1259 46.7202 22.3131 46.797C22.5051 46.8642 22.698 46.9179 22.8843 46.9765C23.2577 47.0878 23.6186 47.1954 23.9642 47.299C24.6698 47.4594 25.3236 47.564 25.9054 47.6773C26.5054 47.731 27.0343 47.7742 27.4922 47.805C27.7217 47.8299 27.9319 47.8194 28.1249 47.8136C28.3169 47.8078 28.4926 47.803 28.65 47.7992C29.2778 47.7762 29.6129 47.7646 29.6129 47.7646C29.6129 47.7646 29.2807 47.7186 28.6577 47.6341C28.5022 47.6139 28.3284 47.5909 28.1364 47.5659C27.9454 47.5429 27.7342 47.5198 27.5162 47.4594C27.0766 47.3538 26.5745 47.2395 26.0177 47.1166C25.4705 46.9304 24.8599 46.747 24.2158 46.5061C23.9009 46.3678 23.5726 46.2238 23.2318 46.0731C23.0628 45.9982 22.8881 45.9291 22.7153 45.8466C22.5473 45.7534 22.3774 45.6584 22.2046 45.5624C20.7963 44.8443 19.3582 43.7701 17.9921 42.4357C16.6356 41.0879 15.3963 39.4069 14.4651 37.4571C13.5329 35.5093 12.9358 33.2869 12.8081 30.9589C12.7995 30.668 12.7918 30.3762 12.7851 30.0824L12.7716 29.6418L12.7832 29.4796C14.3153 24.5356 18.5758 16.7135 30.3809 12.7987C30.5853 12.8044 30.7889 12.8092 30.9924 12.815C33.2753 12.9426 35.5063 13.5359 37.4532 14.47C39.4029 15.4002 41.0829 16.6406 42.4308 17.9951C42.6007 18.165 42.7687 18.333 42.9338 18.4991C43.098 18.6671 43.2343 18.8562 43.3831 19.0319C43.53 19.2095 43.674 19.3842 43.817 19.558C43.961 19.7318 44.1069 19.8998 44.224 20.087C44.4736 20.4498 44.7184 20.8031 44.9556 21.1468C45.1802 21.4991 45.3607 21.8639 45.5584 22.2066C45.6544 22.3804 45.7485 22.5503 45.8426 22.7183C45.9242 22.8901 45.9943 23.0658 46.0691 23.2348C46.2151 23.5746 46.361 23.9029 46.5021 24.2178C46.744 24.8629 46.9274 25.4725 47.1136 26.0197C47.2384 26.5813 47.3517 27.0853 47.4573 27.525C47.5178 27.7449 47.5389 27.9522 47.5639 28.1413C47.5888 28.3314 47.6119 28.5042 47.6311 28.6588C47.7175 29.2808 47.7626 29.613 47.7626 29.613C47.7626 29.613 47.7741 29.278 47.7962 28.6501C47.801 28.4917 47.8058 28.316 47.8106 28.1212C47.8163 27.9263 47.8288 27.7141 47.8029 27.4847C47.7712 27.0277 47.728 26.4997 47.6752 25.9055C47.5619 25.3228 47.4583 24.669 47.2979 23.9634C47.1981 23.6178 47.0906 23.2559 46.9744 22.8834C46.9159 22.6962 46.8621 22.5033 46.7949 22.3113C46.7181 22.125 46.6384 21.934 46.5578 21.741C45.9674 20.1657 44.9988 18.4914 43.6576 16.8815C42.3223 15.2697 40.5837 13.726 38.4525 12.5395C36.3309 11.3519 33.8359 10.5139 31.1201 10.2566C30.8071 10.2335 30.4942 10.2105 30.1793 10.1875L29.706 10.1539L29.6762 10.151C29.5322 10.1481 29.6177 10.151 29.5774 10.15L29.514 10.1529L29.3873 10.1567L29.131 10.1654C28.7902 10.1769 28.4484 10.1903 28.1057 10.2019C27.9338 10.2095 27.761 10.2115 27.5902 10.2239L27.0766 10.2931C26.3921 10.3948 25.6932 10.4515 25.0164 10.6454C24.6756 10.7289 24.3338 10.8143 23.9921 10.8998C23.6484 10.9814 23.323 11.1244 22.987 11.2358C20.3076 12.1641 17.8078 13.7346 15.7534 15.7583C13.7297 17.8127 12.162 20.3125 11.2328 22.9909C11.1224 23.3269 10.9793 23.6524 10.8977 23.9961C10.8123 24.3378 10.7288 24.6805 10.6433 25.0213C10.4532 25.6876 10.3889 26.4249 10.2872 27.1295L10.218 27.6613C10.2075 27.8274 10.2056 27.9839 10.1988 28.1452C10.1883 28.4648 10.1768 28.7836 10.1652 29.1023L10.1576 29.3394L10.1537 29.4584L10.1518 29.518L10.1489 29.614L10.1518 29.6466L10.1854 30.1544C10.2094 30.4904 10.2344 30.8264 10.2574 31.1605C10.5147 33.8312 11.3489 36.3339 12.5384 38.4565C13.724 40.5867 15.2696 42.3243 16.8795 43.6607L16.8843 43.6597Z" fill="#D3BC88"/>
<path d="M9.9927 36.8716C9.79494 36.2034 9.5943 35.3826 9.4215 34.4428C9.2535 33.501 9.11047 32.4364 9.07015 31.2757C9.04231 30.6969 9.04423 30.094 9.06727 29.4738C9.07495 29.3183 9.08358 29.1628 9.09222 29.0054C9.10374 28.8498 9.11622 28.6934 9.12774 28.5359C9.1575 28.2038 9.17766 27.8505 9.2295 27.5452C9.3879 26.2809 9.68166 24.9062 10.1175 23.5698C10.5572 22.2258 11.138 20.8857 11.8724 19.606C12.6135 18.3302 13.4871 17.1071 14.4903 15.9974C15.4839 14.879 16.6176 13.8892 17.8061 13.0176C18.4032 12.5836 19.0234 12.1929 19.6464 11.8224C20.2791 11.4681 20.9156 11.1388 21.5607 10.8499C22.8509 10.2748 24.1594 9.84092 25.4352 9.54428C26.7111 9.24188 27.9514 9.0806 29.1091 8.99804C31.4285 8.8454 33.4003 9.07772 34.7731 9.3206C35.4566 9.4502 36 9.56252 36.3658 9.65564C36.7344 9.7478 36.9302 9.7958 36.9302 9.7958C36.9302 9.7958 36.7584 9.68828 36.4253 9.50204C36.0902 9.32348 35.5978 9.0518 34.9363 8.77436C34.2768 8.49596 33.4589 8.1782 32.4826 7.92189C31.5082 7.66077 30.3802 7.44381 29.1303 7.34013C27.8803 7.24509 26.5075 7.24413 25.0637 7.42269C23.6208 7.60029 22.1108 7.94685 20.6093 8.49788C19.1079 9.04604 17.6103 9.78812 16.2183 10.7404C14.8186 11.6793 13.514 12.8121 12.362 14.0841C11.2244 15.3676 10.2298 16.7798 9.4407 18.2716C9.24774 18.647 9.06055 19.0233 8.88391 19.4006C8.72551 19.7875 8.54887 20.1628 8.41063 20.5526C8.12071 21.3244 7.86343 22.0991 7.68295 22.8786C7.29319 24.4377 7.11175 25.9506 7.08583 27.4367C7.07047 27.8198 7.08967 28.1481 7.09927 28.485C7.10503 28.6626 7.11175 28.8393 7.11847 29.014C7.13095 29.1858 7.14439 29.3567 7.15783 29.5266C7.22695 30.2034 7.30471 30.8543 7.43047 31.4697C7.66087 32.7042 8.00263 33.8015 8.36359 34.7423C8.72263 35.685 9.12294 36.4655 9.47238 37.0914C9.81318 37.7192 10.1405 38.181 10.3527 38.4959C10.5773 38.8031 10.6964 38.9653 10.6964 38.9653C10.6964 38.9653 10.6273 38.7752 10.4957 38.4181C10.3652 38.0629 10.1943 37.5378 9.9927 36.8696V36.8716Z" fill="#D3BC88"/>
<path d="M46.0637 26.5161C46.0148 26.1859 45.9005 25.8749 45.8237 25.5629C45.7345 25.2537 45.6644 24.9465 45.5645 24.6547C45.4551 24.3667 45.3476 24.0845 45.242 23.808C45.1316 23.5344 45.05 23.2569 44.9108 23.0121C44.6487 22.5149 44.4327 22.0281 44.1725 21.6038C43.9028 21.1843 43.6513 20.7936 43.4189 20.4307C43.1578 20.087 42.9025 19.7817 42.6817 19.5034C42.5703 19.3651 42.4647 19.2336 42.3649 19.1107C42.2593 18.9946 42.1498 18.8938 42.0538 18.7958C41.8599 18.601 41.6929 18.4358 41.5594 18.3034C41.2906 18.0355 41.1486 17.8934 41.1486 17.8934C41.1486 17.8934 41.2753 18.0499 41.5143 18.3437C41.6334 18.4915 41.7812 18.672 41.954 18.8851C42.0394 18.9926 42.1374 19.105 42.2305 19.2307C42.3178 19.3603 42.41 19.4986 42.5079 19.6445C42.7018 19.9363 42.9217 20.2541 43.1473 20.6083C43.3479 20.9779 43.5629 21.3801 43.7943 21.8073C44.017 22.2384 44.1927 22.728 44.4106 23.2224C44.6141 23.7254 44.7581 24.2793 44.9473 24.8409C45.0269 25.1261 45.0769 25.4256 45.145 25.727C45.2007 26.0294 45.2948 26.3309 45.3226 26.6496C45.3841 27.2841 45.5146 27.9331 45.5012 28.6118C45.5847 29.9635 45.3994 31.3881 45.1143 32.8224C44.81 34.2614 44.2263 35.6707 43.5284 37.0348C43.3316 37.3651 43.1348 37.6953 42.9361 38.0275L42.7873 38.2761L42.6135 38.5094L42.2669 38.9769C42.0375 39.2899 41.8119 39.6067 41.5364 39.8841L40.7694 40.7289L39.8746 41.5439C39.7239 41.6735 39.5799 41.83 39.4244 41.9366L38.9636 42.2764L38.5047 42.6163L38.2762 42.7871L38.0276 42.9369C37.6964 43.1346 37.3652 43.3324 37.035 43.5292C35.6698 44.2242 34.2615 44.8108 32.8225 45.1132C31.3873 45.3993 29.9636 45.5846 28.6129 45.5001C27.9342 45.5116 27.2852 45.383 26.6507 45.3215C26.331 45.2927 26.0305 45.1996 25.7281 45.1439C25.4267 45.0758 25.1272 45.0258 24.842 44.9452C24.2804 44.757 23.7256 44.6121 23.2235 44.4095C22.7272 44.1916 22.2385 44.0169 21.8084 43.7942C21.3803 43.5628 20.979 43.3468 20.6094 43.1471C20.2542 42.9215 19.9364 42.6998 19.6427 42.5058C19.4968 42.4079 19.3585 42.3158 19.2289 42.2284C19.1032 42.1343 18.9928 42.0393 18.8862 41.9529C18.6731 41.781 18.4926 41.6342 18.3457 41.5151C18.052 41.2761 17.8945 41.1494 17.8945 41.1494C17.8945 41.1494 18.0366 41.2915 18.3035 41.5603C18.4389 41.6937 18.603 41.8598 18.7979 42.0556C18.8958 42.1526 18.9976 42.262 19.1147 42.3686C19.2385 42.4684 19.37 42.573 19.5073 42.6844C19.7857 42.9052 20.0891 43.1586 20.4308 43.4198C20.7937 43.653 21.1854 43.9055 21.604 44.1743C22.0292 44.4345 22.516 44.6505 23.0123 44.9126C23.258 45.0518 23.5345 45.1324 23.8081 45.2438C24.0836 45.3494 24.3668 45.4569 24.6548 45.5673C24.9467 45.6671 25.2548 45.7372 25.563 45.8255C25.876 45.9023 26.186 46.0156 26.5163 46.0655C27.1748 46.1682 27.8535 46.3218 28.5659 46.342C29.9828 46.486 31.4977 46.365 33.0279 46.0866C33.4081 45.9993 33.7902 45.91 34.1761 45.8217C34.561 45.7276 34.9335 45.5769 35.3156 45.4559L35.8878 45.262L36.4436 45.0153C36.8113 44.8406 37.1914 44.6879 37.5514 44.4911C38.9876 43.7289 40.3873 42.6527 41.5268 41.5689L42.3821 40.6175C42.673 40.3171 42.913 39.9772 43.1569 39.6393L43.5226 39.1363L43.705 38.8857L43.8634 38.6188C44.0727 38.2617 44.2801 37.9065 44.4874 37.5523C44.6852 37.1923 44.8397 36.8131 45.0116 36.4444L45.2583 35.8886L45.4513 35.3164C45.5722 34.9334 45.722 34.5619 45.8161 34.1769C45.9063 33.791 45.9956 33.4089 46.0829 33.0288C46.3613 31.4985 46.4813 29.9846 46.3383 28.5667C46.3191 27.8544 46.1655 27.1756 46.0618 26.5171L46.0637 26.5161Z" fill="#D3BC88"/>
</svg>



